<svg width="59" height="59" viewBox="0 0 59 59" fill="none" xmlns="http://www.w3.org/2000/svg">
<path d="M13 8C24.0667 8 35.1333 8 46.2 8C46.2 8.06667 46.2 8.13333 46.2 8.2C45.8 9.9 45 13.2 45 13.2C45 13.2 45 18.8 45 21.8C45.4 21.8 45.8 21.8 46.2 21.8C46.2 27.5333 46.2 33.2667 46.2 39C45.8 39 45.4 39 45 39C45 42.2 45 47.2 45 47.2C45 47.2 45.9 50.1 46.2 51.4C35.1333 51.4 24.0667 51.4 13 51.4C13 36.9333 13 22.4667 13 8Z" fill="black"/>
<path d="M19.2998 13.2C19.2998 24.2 19.2998 35.2 19.2998 46.2C21.6998 46.2 24.1331 46.2 26.5998 46.2C26.5998 41.9 26.5998 38.4 26.5998 38.4C26.5998 38.4 28.2998 36.5999 30.4998 34.2999C33.4331 34.2999 36.3998 34.2999 39.3998 34.2999C39.3998 31.3666 39.3998 28.4333 39.3998 25.5C35.8998 25.5 30.5998 25.5 30.5998 25.5C30.5998 25.5 28.1998 22.7 26.5998 20.9C26.5998 18.3666 26.5998 15.8 26.5998 13.2C24.1331 13.2 21.6998 13.2 19.2998 13.2Z" fill="#509AD3"/>
<path d="M30.5 13.2C30.3 16.7 30.5 19.3 30.5 19.3C30.5 19.3 31.6 20.6 32.2 21.2C34.2 21.2 36.2 21.2 38.2 21.2C38.2 18.5333 38.2 15.8666 38.2 13.2C35.6 13.2 33.0334 13.2 30.5 13.2Z" fill="#D5E054"/>
<path d="M30.5 46.3999C33.0333 46.3999 35.6 46.3999 38.2 46.3999C38.2 43.7332 38.2 41.0666 38.2 38.3999C35.5 38.3999 32.6 38.3999 32.6 38.3999C32.6 38.3999 31.3 39.6999 30.5 40.5999C30.5 42.5332 30.5 44.4666 30.5 46.3999Z" fill="#F5812A"/>
</svg>
