<svg width="80" height="59" viewBox="0 0 80 59" fill="none" xmlns="http://www.w3.org/2000/svg">
<path d="M2 25.7158C2.06679 25.5875 2.17378 25.5145 2.1944 25.4223C2.57771 23.7076 3.3078 22.1498 4.40104 20.7841C6.07216 18.6964 8.24099 17.3734 10.8477 16.7744C11.0846 16.72 11.333 16.7162 11.5699 16.6618C11.8652 16.5941 12.1234 16.508 12.3184 16.2045C14.6495 12.5756 18.0598 10.5691 22.1981 9.64306C23.7221 9.30202 25.268 9.25198 26.7943 9.38063C30.007 9.65141 32.9702 10.6502 35.5052 12.7426C36.6488 13.6866 37.5827 14.7856 38.2395 16.1093C38.3908 16.4142 38.5652 16.4902 38.8788 16.4809C40.4192 16.4354 41.9558 16.4418 43.4382 16.9633C47.5259 18.4011 50.1248 21.193 51.0315 25.4508C51.5919 28.0828 51.1746 30.6122 49.9495 33.0112C49.8108 33.2827 49.656 33.393 49.3476 33.3875C48.327 33.3692 47.3058 33.3806 46.1575 33.3806C46.3459 33.1441 46.4847 32.9835 46.6086 32.8122C47.4912 31.5922 48.0853 30.2623 48.2783 28.7488C48.6564 25.7854 47.6681 23.3311 45.4836 21.3756C44.0332 20.0773 42.29 19.4155 40.3103 19.3282C38.0489 19.2283 36.1752 20.172 34.4206 21.4048C33.1938 22.2667 32.0663 23.2698 30.8944 24.2099C30.8213 24.2686 30.7481 24.3272 30.6529 24.4035C30.666 22.6426 32.8457 19.58 35.3899 17.7221C34.736 16.2547 33.7046 15.1231 32.3601 14.2434C30.7481 13.1887 29.0015 12.5347 27.0858 12.319C25.2641 12.114 23.467 12.1618 21.6997 12.7134C20.0449 13.2298 18.5508 14.0183 17.2129 15.1335C16.1349 16.0319 15.3047 17.1003 14.7069 18.357C14.5403 18.7072 14.4268 19.0827 14.276 19.4809C12.9055 19.3355 11.5518 19.5108 10.2751 20.0399C7.40815 21.228 5.61116 23.3345 5.07079 26.4188C4.63829 28.8874 5.23868 31.1472 6.76887 33.1041C7.95832 34.6252 9.49201 35.6948 11.4763 35.9503C12.1553 36.0377 12.8391 36.1348 13.5216 36.1409C18.8719 36.1884 24.2224 36.2259 29.5728 36.2418C31.3975 36.2472 33.2222 36.1704 35.0471 36.1516C38.9969 36.1109 42.9468 36.0833 46.8966 36.0506C47.0717 36.0491 47.2468 36.0504 47.5455 36.0504C46.6728 36.9049 45.7604 37.4765 44.7677 37.925C43.1897 38.6381 41.5259 38.835 39.8046 38.8307C36.4813 38.8224 33.1578 38.8939 29.8343 38.9157C23.7417 38.9556 17.6489 39.0231 11.5566 38.9922C9.72412 38.983 8.06203 38.2155 6.59618 37.1213C4.3185 35.421 2.92606 33.1271 2.23403 30.3887C2.19239 30.224 2.13119 30.0642 2.03955 29.9114C2 28.5345 2 27.1483 2 25.7158Z" fill="#325097"/>
<path d="M34.5798 1.64478C34.6993 1.71047 34.7657 1.82361 34.8465 1.83498C37.6554 2.23047 40.2072 3.21891 42.4218 5.0321C43.6524 6.0397 44.6427 7.222 45.3189 8.66679C45.3622 8.75937 45.5526 8.84976 45.6606 8.83549C47.5203 8.58992 49.3112 8.86096 51.0549 9.51767C52.4854 10.0564 53.757 10.8649 54.8347 11.9341C56.5823 13.6679 57.6912 15.7356 58.0768 18.2062C58.3848 20.1795 58.2117 22.0773 57.5542 23.9423C57.4047 24.3663 57.1835 24.7686 56.96 25.1607C56.8985 25.2686 56.7104 25.3613 56.5789 25.3633C55.5254 25.3796 54.4717 25.3724 53.3214 25.3724C53.5631 25.0358 53.7616 24.7545 53.9651 24.4768C55.935 21.7892 55.6916 17.5223 53.6165 14.9442C52.1701 13.1473 50.3522 12.0511 48.0452 11.7129C46.2847 11.4548 44.6664 11.8575 43.0906 12.5436C42.4416 12.8261 41.8375 13.2148 41.2233 13.5729C40.9399 13.7382 40.7228 13.7741 40.536 13.4445C40.441 13.2768 40.31 13.1258 40.1777 12.9835C39.5389 12.2964 39.5553 12.2232 40.3033 11.6547C40.9874 11.1348 41.6465 10.5822 42.3269 10.0357C41.6442 8.44732 40.5151 7.28523 39.0942 6.3991C37.685 5.52026 36.1591 4.90559 34.5016 4.72022C33.3525 4.59171 32.1849 4.47172 31.0358 4.53515C28.9402 4.65083 27.0372 5.41201 25.3872 6.71003C24.8719 7.11543 24.3352 7.28935 23.7201 7.38202C22.3567 7.58739 20.9975 7.81977 19.627 8.04269C19.7839 7.84071 19.9865 7.59101 20.1773 7.33255C21.6477 5.3407 23.6099 4.00235 25.8499 3.0176C27.1884 2.42917 28.5665 2.00118 30.0188 1.81768C30.0571 1.81284 30.0886 1.75436 30.1007 1.68284C31.5633 1.64478 33.0484 1.64478 34.5798 1.64478Z" fill="#169FDA"/>
<path d="M55.4653 50.1214C55.4367 50.164 55.3894 50.1809 55.382 50.2086C55.0942 51.2831 54.3277 51.8534 53.309 52.1145C52.8566 52.2305 52.3786 52.2558 51.9101 52.298C51.0973 52.3712 50.2996 52.2711 49.5355 51.9869C48.7388 51.6907 48.0776 51.2112 47.7407 50.4001C47.602 50.0661 47.5481 49.6969 47.4456 49.305C47.8381 49.305 48.1665 49.305 48.4949 49.305C48.8987 49.305 49.3025 49.3088 49.7062 49.3026C49.8191 49.3009 49.8986 49.3313 49.9083 49.4462C49.9587 50.0414 50.3516 50.3133 50.8676 50.4638C51.4882 50.6448 52.1008 50.605 52.6966 50.3589C52.9246 50.2648 53.1155 50.135 53.135 49.8429C53.1585 49.4927 53.0603 49.1917 52.7291 49.0685C52.2289 48.8824 51.7103 48.7432 51.1945 48.6025C50.324 48.365 49.4521 48.1363 48.7044 47.596C48.1624 47.2043 47.8899 46.68 47.8344 46.0095C47.803 45.6305 47.8312 45.2716 47.9474 44.9188C48.1231 44.3856 48.4984 44.0195 48.9816 43.7576C49.5328 43.4588 50.1252 43.3175 50.75 43.2637C51.5845 43.1918 52.4053 43.2078 53.2173 43.4395C54.2382 43.7309 54.8463 44.4101 55.1094 45.4181C55.1636 45.6257 55.1818 45.8427 55.2197 46.0747C54.4542 46.0747 53.7234 46.0747 52.9763 46.0747C52.9639 46.0118 52.955 45.9417 52.9359 45.8746C52.7761 45.3111 52.3839 45.0341 51.7891 44.9797C51.3767 44.942 50.9786 44.967 50.5857 45.0739C50.2431 45.1671 50.0455 45.3813 50.0555 45.657C50.0655 45.9319 50.2083 46.143 50.4782 46.2369C51.0659 46.4413 51.6556 46.6401 52.2458 46.8373C52.939 47.0689 53.6454 47.2664 54.3239 47.5347C54.9059 47.7649 55.2635 48.2268 55.3823 48.8552C55.3868 48.879 55.4144 48.8984 55.4483 48.9142C55.4653 49.3059 55.4653 49.7033 55.4653 50.1214Z" fill="#325097"/>
<path d="M23.9883 55.5166C23.8054 55.1935 23.9056 54.8473 23.8808 54.5122C23.8727 54.4029 23.8848 54.2922 23.8784 54.1826C23.8667 53.9824 23.9879 53.8955 24.157 53.8909C24.5744 53.8796 24.9925 53.8782 25.4098 53.8904C25.6727 53.898 25.7447 54.0106 25.7111 54.3149C25.5664 54.3267 25.3889 54.5088 25.3049 54.2164C25.301 54.2029 25.2523 54.1967 25.2244 54.1966C24.9181 54.1953 24.6118 54.1958 24.2908 54.1958C24.2908 54.518 24.2908 54.8223 24.2908 55.1455C24.6256 55.1455 24.9646 55.1455 25.3184 55.1455C25.3184 55.061 25.3184 54.9764 25.3184 54.8638C25.145 54.8638 24.9666 54.8638 24.7748 54.8638C24.7748 54.7516 24.7748 54.6669 24.7748 54.5648C25.0815 54.5648 25.3915 54.5648 25.726 54.5648C25.7002 54.8745 25.8127 55.1892 25.6375 55.4994C25.0974 55.5166 24.5531 55.5166 23.9883 55.5166Z" fill="#606062"/>
<path d="M31.6534 55.5165C31.4001 55.0876 31.5211 54.6236 31.5102 54.1747C31.5063 54.0104 31.6418 53.8932 31.8155 53.8899C32.2613 53.8813 32.7076 53.8801 33.1534 53.8903C33.333 53.8945 33.4475 53.9852 33.4415 54.1947C33.4319 54.5234 33.4463 54.8529 33.4345 55.1815C33.4309 55.2826 33.3748 55.3818 33.3468 55.4992C32.7919 55.5165 32.233 55.5165 31.6534 55.5165ZM31.8974 55.0426C31.92 55.0817 31.9418 55.1543 31.9652 55.1548C32.3205 55.162 32.676 55.1598 33.0278 55.1598C33.0278 54.8228 33.0278 54.5184 33.0278 54.2136C32.6445 54.2136 32.2762 54.2136 31.8972 54.2136C31.8972 54.4883 31.8972 54.7445 31.8974 55.0426Z" fill="#606062"/>
<path d="M40.0235 55.5165C39.9653 55.3685 39.9277 55.2206 39.887 55.06C40.0247 55.0284 40.1214 55.0061 40.2181 54.9839C40.2132 55.0082 40.2084 55.0326 40.2035 55.0569C40.2975 55.0926 40.3902 55.1541 40.4859 55.1591C40.7553 55.1732 41.026 55.164 41.31 55.164C41.31 55.0598 41.31 54.975 41.31 54.8557C41.0159 54.8557 40.7167 54.8717 40.4205 54.8488C40.2763 54.8376 40.0342 54.7767 40.0166 54.698C39.9665 54.4748 39.9942 54.2287 40.0279 53.9969C40.035 53.9485 40.1981 53.8951 40.291 53.8917C40.6357 53.8792 40.9811 53.8816 41.326 53.8883C41.5634 53.893 41.6402 54.0052 41.6221 54.3037C41.5302 54.3279 41.4345 54.3532 41.3388 54.3784C41.3422 54.3543 41.3455 54.3302 41.3489 54.306C41.2415 54.269 41.1359 54.208 41.0264 54.1999C40.8009 54.1833 40.5733 54.1949 40.329 54.1949C40.329 54.2977 40.329 54.3871 40.329 54.5032C40.6532 54.5032 40.9741 54.5072 41.2949 54.5018C41.5044 54.4983 41.6328 54.5975 41.6628 54.7965C41.699 55.0361 41.706 55.2783 41.5402 55.4999C41.0445 55.5165 40.5443 55.5165 40.0235 55.5165Z" fill="#606062"/>
<path d="M42.2249 55.5165C42.2053 54.9836 42.2053 54.4507 42.2053 53.9066C42.3963 53.8724 42.5414 53.8558 42.6649 54.0498C42.8315 54.3115 43.0403 54.5464 43.2515 54.8192C43.4363 54.5689 43.6239 54.3326 43.7909 54.0824C43.9074 53.9079 44.0462 53.8406 44.2758 53.9137C44.2758 54.4267 44.2758 54.951 44.2758 55.4959C44.1569 55.5165 44.0379 55.5165 43.8992 55.4959C43.8793 55.1752 43.8793 54.8751 43.8793 54.575C43.8641 54.573 43.8488 54.571 43.8335 54.569C43.6359 54.8313 43.4383 55.0935 43.2221 55.3805C42.9915 55.0729 42.7889 54.8028 42.5577 54.4945C42.5577 54.8737 42.5577 55.1951 42.5577 55.5165C42.4533 55.5165 42.3489 55.5165 42.2249 55.5165Z" fill="#5F5F61"/>
<path d="M13.4585 55.5165C13.439 54.9834 13.439 54.4503 13.439 53.9107C13.6359 53.8586 13.779 53.8745 13.8985 54.0536C14.0709 54.3118 14.2693 54.5527 14.4752 54.8257C14.6541 54.5845 14.8232 54.3624 14.9856 54.1354C15.1085 53.9635 15.2288 53.7981 15.5091 53.9255C15.5091 54.4264 15.5091 54.9508 15.5093 55.4959C15.3905 55.5165 15.2716 55.5165 15.1328 55.4959C15.113 55.1648 15.113 54.8543 15.113 54.4977C14.8789 54.8089 14.674 55.0812 14.4475 55.3823C14.2188 55.0764 14.0165 54.8059 13.7914 54.5047C13.7914 54.8733 13.7914 55.1949 13.7914 55.5165C13.687 55.5165 13.5825 55.5165 13.4585 55.5165Z" fill="#5F5F61"/>
<path d="M53.0184 55.5166C52.9985 54.984 52.9985 54.4514 52.9985 53.8903C53.5038 53.8903 53.9996 53.8333 54.4749 53.9074C54.8963 53.973 54.6767 54.3844 54.7092 54.645C54.7327 54.833 54.5886 54.9076 54.4079 54.9006C54.3601 54.8987 54.312 54.9041 54.2314 54.9077C54.4647 55.1162 54.6733 55.3027 54.8874 55.5029C54.7009 55.5166 54.5089 55.5166 54.3018 55.5015C54.0314 55.2449 53.868 54.8602 53.395 54.9069C53.395 55.1236 53.395 55.3201 53.395 55.5166C53.2761 55.5166 53.1571 55.5166 53.0184 55.5166ZM54.1089 54.1951C53.8767 54.1951 53.6446 54.1951 53.4068 54.1951C53.4068 54.3391 53.4068 54.453 53.4068 54.5756C53.7144 54.5756 54.0101 54.5756 54.3037 54.5756C54.3414 54.2441 54.3407 54.2424 54.1089 54.1951Z" fill="#5F5F62"/>
<path d="M47.0271 55.5165C47.0073 54.9832 47.0073 54.45 47.0073 53.8895C47.4983 53.8895 47.9719 53.8788 48.4441 53.8994C48.5275 53.903 48.6473 54.0234 48.6759 54.1135C48.7227 54.2611 48.7332 54.4309 48.7149 54.5861C48.6813 54.8709 48.6439 54.8852 48.2086 54.9095C48.4329 55.11 48.6435 55.2982 48.8558 55.5015C48.6656 55.5165 48.4737 55.5165 48.2667 55.5014C47.9983 55.2659 47.8631 54.8681 47.4038 54.9045C47.4038 55.1263 47.4038 55.3214 47.4038 55.5165C47.2849 55.5165 47.1659 55.5165 47.0271 55.5165ZM48.3285 54.4371C48.2822 54.3574 48.2419 54.2139 48.1886 54.2089C47.9319 54.1847 47.6717 54.198 47.4187 54.198C47.4187 54.3467 47.4187 54.4599 47.4187 54.5822C47.4831 54.5858 47.5329 54.5908 47.5827 54.591C47.7797 54.5918 47.9773 54.5992 48.1734 54.5857C48.227 54.582 48.2762 54.5136 48.3285 54.4371Z" fill="#606062"/>
<path d="M36.411 55.5165C36.3904 54.9833 36.3904 54.45 36.3904 53.8655C36.873 53.8893 37.341 53.8771 37.7962 53.9471C38.1155 53.9962 38.2975 54.2622 38.3247 54.5914C38.3514 54.914 38.2596 55.1965 37.9713 55.3855C37.9241 55.4165 37.8799 55.452 37.8392 55.5009C37.3733 55.5165 36.9025 55.5165 36.411 55.5165ZM37.7528 55.0546C37.9933 54.7707 37.9397 54.3214 37.6389 54.2558C37.3688 54.1968 37.085 54.2007 36.8056 54.1767C36.8056 54.5355 36.8056 54.8445 36.8056 55.2079C37.1286 55.1608 37.4262 55.1175 37.7528 55.0546Z" fill="#606062"/>
<path d="M21.4762 55.5166C21.4578 54.9969 21.4588 54.4772 21.4606 53.9574C21.4607 53.9439 21.4691 53.9305 21.4766 53.9083C21.6336 53.8528 21.7519 53.8993 21.8798 54.0166C22.2171 54.3258 22.5712 54.6167 22.9483 54.9405C22.9483 54.5813 22.9483 54.2454 22.9483 53.8986C23.0776 53.8986 23.1767 53.8986 23.3069 53.8986C23.3069 54.4267 23.3069 54.951 23.3069 55.4959C23.2025 55.5166 23.098 55.5166 22.9791 55.5012C22.5947 55.1576 22.2248 54.8294 21.8091 54.4604C21.8091 54.862 21.8091 55.1893 21.8091 55.5166C21.7047 55.5166 21.6002 55.5166 21.4762 55.5166Z" fill="#606062"/>
<path d="M27.5567 55.5164C27.5067 55.2333 27.4724 54.9507 27.4499 54.6671C27.4384 54.5214 27.4474 54.374 27.448 54.2273C27.4492 53.9749 27.5316 53.8902 27.7902 53.8872C28.0835 53.8839 28.3768 53.8864 28.67 53.8865C29.0806 53.8865 29.1794 53.9932 29.1572 54.4394C29.0423 54.4626 28.9212 54.487 28.7845 54.5146C28.7746 54.3984 28.7674 54.3128 28.7587 54.2111C28.4611 54.2111 28.1657 54.2111 27.8572 54.2111C27.8572 54.5221 27.8572 54.8265 27.8572 55.1475C28.1551 55.1475 28.4502 55.1475 28.758 55.1475C28.7649 55.0564 28.7712 54.9712 28.7803 54.8503C28.9067 54.871 29.0227 54.8899 29.1459 54.91C29.1967 55.124 29.1729 55.3163 29.0292 55.5001C28.5483 55.5164 28.0628 55.5164 27.5567 55.5164Z" fill="#606062"/>
<path d="M50.9489 55.5164C50.9282 54.9828 50.9282 54.4492 50.9282 53.9011C51.457 53.9011 51.9667 53.9011 52.4952 53.9011C52.4952 53.987 52.4952 54.0762 52.4952 54.1869C52.1179 54.1869 51.7397 54.1869 51.3433 54.1869C51.3433 54.2963 51.3433 54.3857 51.3433 54.4961C51.5601 54.4961 51.777 54.4961 52.0114 54.4961C52.0114 54.6059 52.0114 54.6953 52.0114 54.8056C51.7925 54.8056 51.5756 54.8056 51.3419 54.8056C51.3419 54.93 51.3419 55.0341 51.3419 55.1593C51.7395 55.1593 52.1322 55.1593 52.5578 55.1593C52.5578 55.2784 52.5578 55.3775 52.558 55.4965C52.0286 55.5164 51.4991 55.5164 50.9489 55.5164Z" fill="#606062"/>
<path d="M18.2605 55.5165C18.2407 54.9832 18.2407 54.45 18.2407 53.9017C18.3723 53.9017 18.486 53.9017 18.629 53.9017C18.629 54.0871 18.629 54.2781 18.629 54.5146C18.8214 54.364 18.9866 54.2576 19.1237 54.1226C19.3669 53.8834 19.6525 53.8489 20.0143 53.9087C19.6612 54.1708 19.3346 54.4131 19.0102 54.6538C19.3825 54.9332 19.7529 55.2111 20.1291 55.5027C19.9138 55.5165 19.6925 55.5165 19.4557 55.5011C19.1843 55.2805 18.9284 55.0753 18.6372 54.8418C18.6372 55.0993 18.6372 55.3079 18.6372 55.5165C18.5183 55.5165 18.3993 55.5165 18.2605 55.5165Z" fill="#606062"/>
<path d="M34.1646 55.5165C34.0076 55.1889 33.9552 54.4276 34.0357 53.9C34.1471 53.9 34.261 53.9 34.4033 53.9C34.4033 54.3131 34.4033 54.7262 34.4033 55.1513C34.7505 55.1513 35.0696 55.1513 35.4173 55.1513C35.4173 54.736 35.4173 54.323 35.4173 53.8987C35.5593 53.8987 35.6732 53.8987 35.8113 53.8987C35.8113 54.3401 35.8188 54.7772 35.8052 55.2137C35.8023 55.3049 35.7216 55.3936 35.6813 55.5C35.1856 55.5165 34.6854 55.5165 34.1646 55.5165Z" fill="#606062"/>
<path d="M44.5603 55.5167C44.7266 55.1642 44.9122 54.8114 45.0994 54.4594C45.1643 54.3374 45.2304 54.2158 45.3006 54.0969C45.4857 53.7832 45.7426 53.7821 45.9179 54.0958C46.1765 54.5587 46.4314 55.0236 46.6934 55.5022C46.5508 55.5167 46.4027 55.5167 46.2393 55.5005C46.1509 55.2181 45.9813 55.1151 45.7074 55.1614C45.6006 55.1794 45.4883 55.1643 45.3785 55.1643C45.0742 55.1644 45.0345 55.1997 44.9808 55.5167C44.8473 55.5167 44.7138 55.5167 44.5603 55.5167ZM45.8357 54.8546C45.8447 54.828 45.8692 54.7932 45.8602 54.7761C45.7803 54.6252 45.6944 54.4774 45.59 54.293C45.4814 54.4931 45.3905 54.6607 45.2846 54.8556C45.4824 54.8556 45.6416 54.8556 45.8357 54.8546Z" fill="#5F5F61"/>
<path d="M15.7939 55.5164C15.9757 55.1321 16.177 54.7474 16.3796 54.3636C16.4236 54.2803 16.4889 54.2047 16.5163 54.1168C16.5804 53.9115 16.7172 53.8464 16.9123 53.8897C16.9734 53.9033 17.0504 53.9403 17.0791 53.9902C17.3646 54.4866 17.6415 54.988 17.9267 55.5022C17.7845 55.5164 17.6364 55.5164 17.4677 55.5C17.3847 55.2254 17.2324 55.1137 16.9603 55.1605C16.8395 55.1813 16.7123 55.1639 16.5879 55.1641C16.3071 55.1644 16.2618 55.2071 16.2145 55.5164C16.081 55.5164 15.9475 55.5164 15.7939 55.5164ZM17.0138 54.6538C16.9529 54.5334 16.892 54.413 16.8181 54.2669C16.7139 54.4759 16.6252 54.6537 16.533 54.8385C16.732 54.8385 16.907 54.8385 17.1014 54.8385C17.0721 54.7723 17.0522 54.7272 17.0138 54.6538Z" fill="#5F5F62"/>
<path d="M49.582 55.5166C49.5622 55.0855 49.5622 54.6544 49.5622 54.2026C49.3262 54.2026 49.1094 54.2026 48.8752 54.2026C48.8752 54.0924 48.8752 54.0029 48.8752 53.8999C49.4613 53.8999 50.0447 53.8999 50.6457 53.8999C50.6457 53.9897 50.6457 54.0792 50.6457 54.1894C50.4261 54.1894 50.209 54.1894 49.9582 54.1894C49.9582 54.6312 49.9582 55.0532 49.9584 55.4959C49.8397 55.5166 49.7208 55.5166 49.582 55.5166Z" fill="#606062"/>
<path d="M29.7152 55.5164C29.6946 54.9826 29.6946 54.4488 29.6946 53.9009C29.8281 53.9009 29.9419 53.9009 30.0844 53.9009C30.0844 54.311 30.0844 54.7242 30.0844 55.1585C30.4899 55.1585 30.8678 55.1585 31.2805 55.1585C31.2805 55.2787 31.2805 55.3777 31.2805 55.4966C30.7656 55.5164 30.2507 55.5164 29.7152 55.5164Z" fill="#606062"/>
<path d="M20.4632 55.5166C20.4434 54.9825 20.4434 54.4484 20.4434 53.9006C20.5778 53.9006 20.6916 53.9006 20.8398 53.9006C20.8398 54.4249 20.8398 54.9501 20.8398 55.496C20.7209 55.5166 20.6019 55.5166 20.4632 55.5166Z" fill="#606062"/>
<path d="M17.3167 47.1987C17.3167 48.8133 17.3167 50.4279 17.3167 52.0614C16.5703 52.0614 15.8345 52.0614 15.069 52.0614C15.069 51.9772 15.069 51.892 15.069 51.8068C15.069 50.1185 15.0725 48.4302 15.0665 46.7419C15.065 46.3277 14.9565 45.9438 14.7005 45.6004C14.2764 45.0316 13.4261 44.951 12.9153 45.4439C12.528 45.8177 12.3352 46.2686 12.3363 46.8087C12.3395 48.475 12.3375 50.1413 12.3376 51.8075C12.3376 51.8872 12.3376 51.9669 12.3376 52.0634C11.5564 52.0634 10.7914 52.0634 10.0029 52.0634C10.0029 51.9703 10.0029 51.8843 10.0029 51.7982C10.0029 50.1026 10.0066 48.407 9.99878 46.7114C9.99762 46.4594 9.96492 46.2021 9.90574 45.9572C9.81317 45.5742 9.57429 45.3165 9.16716 45.2473C8.8054 45.1858 8.43992 45.1537 8.09163 45.291C7.51619 45.5178 7.32625 46.0107 7.32129 46.5696C7.30583 48.3091 7.31556 50.0489 7.31553 51.7886C7.31553 51.8756 7.31553 51.9625 7.31553 52.0648C6.53918 52.0648 5.77921 52.0648 5 52.0648C5 49.2063 5 46.3417 5 43.4615C5.69883 43.4615 6.40009 43.4615 7.12243 43.4615C7.12243 43.8326 7.12243 44.2105 7.12243 44.5885C7.13657 44.6011 7.1507 44.6137 7.16484 44.6263C7.66274 43.6263 8.50365 43.2587 9.56008 43.2186C10.6489 43.1773 11.4683 43.5893 12.0183 44.5409C12.1745 44.336 12.3096 44.146 12.4579 43.9668C12.7793 43.5785 13.214 43.372 13.6939 43.2841C14.4096 43.1529 15.1139 43.2012 15.7793 43.5353C16.4357 43.8649 16.8811 44.383 17.1648 45.0838C16.9069 45.7167 16.9143 46.3485 17.0075 46.9919C17.0374 47.1985 17.1163 47.2749 17.3167 47.1987Z" fill="#325097"/>
<path d="M46.434 52.0805C45.9496 52.0805 45.4872 52.0772 45.0248 52.0825C44.8877 52.0841 44.8073 52.06 44.7946 51.8973C44.7818 51.7335 44.7308 51.5726 44.7045 51.4481C44.381 51.6379 44.0519 51.8611 43.6973 52.031C43.3091 52.217 42.887 52.2866 42.4516 52.3066C41.9186 52.3309 41.3974 52.3039 40.8776 52.1747C39.9156 51.9355 39.2919 51.1073 39.2479 50.2C39.2201 49.6269 39.2467 49.0658 39.4845 48.5411C39.8316 47.7754 40.4945 47.3844 41.2703 47.2005C42.0016 47.0272 42.7518 46.9352 43.4902 46.7897C43.7575 46.7371 44.0292 46.6632 44.2735 46.5461C44.7358 46.3246 44.7658 45.581 44.3324 45.3036C44.0599 45.1292 43.7588 45.0176 43.4269 45.0331C43.1436 45.0464 42.8524 45.033 42.5795 45.0957C42.099 45.2062 41.8558 45.5729 41.7229 46.023C41.6966 46.1121 41.6786 46.2037 41.656 46.2976C40.9445 46.2976 40.2433 46.2976 39.5194 46.2976C39.5112 45.6308 39.6509 45.0159 40.021 44.4718C40.4615 43.8244 41.1263 43.5256 41.8619 43.36C42.4852 43.2197 43.1212 43.1903 43.7545 43.2315C44.5729 43.2846 45.3692 43.4337 46.0348 43.9745C46.4919 44.3459 46.7484 44.8387 46.8652 45.3986C46.9448 45.7803 46.9978 46.1746 47.001 46.5638C47.0151 48.3033 47.0071 50.0429 47.0071 51.7825C47.0071 51.87 47.0071 51.9575 47.0071 52.0805C46.8158 52.0805 46.6359 52.0805 46.434 52.0805ZM44.6244 49.2184C44.6472 48.8047 44.67 48.3909 44.6914 48.0035C44.2886 48.1184 43.9098 48.2319 43.5278 48.3338C43.1719 48.4287 42.8077 48.4949 42.4564 48.6037C42.0955 48.7155 41.7739 48.8882 41.6232 49.28C41.4437 49.7469 41.5651 50.3058 41.9449 50.5008C42.2294 50.6467 42.5362 50.6836 42.8726 50.6375C43.7393 50.5187 44.3108 50.0646 44.6244 49.2184Z" fill="#325097"/>
<path d="M25.3303 48.7781C25.3303 47.0105 25.3303 45.243 25.3303 43.4608C26.0675 43.4608 26.7835 43.4608 27.5198 43.4608C27.5198 43.8198 27.5198 44.1831 27.5198 44.6029C27.6332 44.4615 27.7128 44.365 27.7894 44.2662C28.2635 43.6541 28.8997 43.3563 29.6583 43.2655C30.2002 43.2006 30.728 43.2168 31.2588 43.3534C32.1753 43.5893 32.9437 44.4076 33.0823 45.3539C33.1369 45.727 33.1688 46.1068 33.1708 46.4837C33.1798 48.2527 33.1748 50.0218 33.1748 51.7908C33.1748 51.8775 33.1748 51.9642 33.1748 52.0655C32.3967 52.0655 31.6368 52.0655 30.84 52.0655C30.84 51.9854 30.84 51.9011 30.84 51.8169C30.84 50.1653 30.8438 48.5136 30.8361 46.8621C30.8349 46.6027 30.7952 46.3411 30.7489 46.0849C30.6656 45.6239 30.4042 45.2998 29.9228 45.2574C29.5292 45.2227 29.1132 45.1959 28.7351 45.2847C28.0536 45.4449 27.7025 45.9725 27.6807 46.6716C27.6277 48.3783 27.6388 50.0869 27.6243 51.7948C27.6235 51.8813 27.6242 51.9678 27.6242 52.0669C26.858 52.0669 26.1127 52.0669 25.3326 52.0669C25.3326 51.7919 25.3326 51.5162 25.3395 51.205C25.4444 51.1413 25.5409 51.1002 25.6408 51.0881C25.8195 51.0666 25.8552 50.9814 25.8047 50.8197C25.7483 50.639 25.7043 50.4541 25.6624 50.2693C25.5496 49.7727 25.4407 49.2752 25.3303 48.7781Z" fill="#325097"/>
<path d="M37.5163 45.6154C36.6983 45.8442 36.2518 46.3744 36.2239 47.2427C36.175 48.7589 36.185 50.277 36.1705 51.7944C36.1697 51.8807 36.1704 51.9671 36.1704 52.0669C35.4046 52.0669 34.6592 52.0669 33.8967 52.0669C33.8967 49.2019 33.8967 46.337 33.8967 43.4591C34.6028 43.4591 35.3041 43.4591 36.026 43.4591C36.026 43.7643 36.026 44.0684 36.026 44.451C36.7409 43.3808 37.7396 43.1482 38.8852 43.2406C38.8852 44.0213 38.8852 44.802 38.8852 45.544C38.4307 45.5658 37.9821 45.5873 37.5163 45.6154Z" fill="#325097"/>
<path d="M25.3143 48.771C25.4406 49.2754 25.5494 49.7729 25.6622 50.2695C25.7042 50.4542 25.7481 50.6391 25.8045 50.8198C25.855 50.9815 25.8194 51.0668 25.6407 51.0883C25.5407 51.1003 25.4443 51.1415 25.3381 51.1845C24.8254 51.3193 24.3174 51.4268 23.8185 51.5669C23.6805 51.6057 23.6269 51.5641 23.5771 51.4717C23.5027 51.3338 23.4404 51.1893 23.3939 51.0916C23.0854 51.358 22.7768 51.6661 22.427 51.9168C21.9041 52.2916 21.294 52.4603 20.6636 52.5689C20.1747 52.6531 19.6873 52.6827 19.2121 52.5356C18.3142 52.2578 17.8205 51.6045 17.6298 50.7134C17.5623 50.3982 17.5501 50.0687 17.5383 49.7448C17.5094 48.9525 17.9089 48.3656 18.4998 47.9027C19.2151 47.3422 20.0848 47.076 20.898 46.7021C21.1862 46.5696 21.4661 46.4102 21.7268 46.2297C21.9738 46.0587 21.9812 45.7941 21.8955 45.5262C21.8167 45.2798 21.6287 45.1341 21.3936 45.0816C20.7649 44.9414 20.1795 45.0975 19.6632 45.4524C19.3563 45.6633 19.2758 46.0285 19.2572 46.388C19.2403 46.7135 19.2511 46.7171 18.9244 46.8002C18.4013 46.9331 17.8769 47.0614 17.3349 47.1952C17.1162 47.275 17.0374 47.1986 17.0075 46.992C16.9143 46.3486 16.9069 45.7168 17.1777 45.0921C17.6556 44.1199 18.5275 43.6792 19.4759 43.3663C20.2077 43.1247 20.9633 42.9662 21.7435 43.0061C22.769 43.0586 23.5521 43.5081 24.0579 44.4205C24.4199 45.0733 24.5597 45.7968 24.7463 46.5052C24.9363 47.2266 25.1092 47.9526 25.289 48.6767C25.2959 48.7048 25.2955 48.7347 25.3143 48.771ZM25.0528 51.0755C25.2507 51.0261 25.4487 50.9766 25.6586 50.9241C25.6433 50.8448 25.6342 50.7807 25.6185 50.7181C25.2562 49.268 24.8945 47.8178 24.5297 46.3684C24.3707 45.7365 24.2305 45.0986 23.9124 44.5185C23.5126 43.7893 22.9225 43.3132 22.0861 43.2256C20.647 43.0748 19.3189 43.4262 18.1232 44.2335C17.5369 44.6294 17.1914 45.2018 17.1139 45.9154C17.0722 46.2995 17.0843 46.6822 17.1972 47.0629C17.6889 46.9399 18.1578 46.8227 18.6266 46.7053C18.7189 46.6821 18.8098 46.6468 18.9035 46.6363C19.0503 46.6199 19.0898 46.5491 19.0917 46.4047C19.0965 46.0449 19.1829 45.7043 19.4334 45.43C19.8567 44.9664 20.9886 44.7228 21.5717 44.9601C21.9076 45.0968 22.0693 45.3576 22.1058 45.7043C22.1386 46.0161 22.025 46.2757 21.7593 46.4389C21.492 46.6032 21.2103 46.7466 20.9264 46.881C20.2844 47.1849 19.6233 47.4515 18.9961 47.7828C18.4401 48.0764 18.0006 48.509 17.7995 49.1332C17.5967 49.7628 17.6893 50.3838 17.8878 50.991C18.137 51.7537 18.6537 52.2476 19.4478 52.4172C19.9454 52.5234 20.4416 52.4558 20.9308 52.3439C21.9225 52.1173 22.7801 51.6855 23.3138 50.7653C23.3292 50.7387 23.3675 50.7255 23.4166 50.6911C23.4993 50.88 23.5817 51.0489 23.6473 51.2241C23.7016 51.3694 23.7808 51.4074 23.9323 51.3647C24.2918 51.2633 24.6557 51.1777 25.0528 51.0755Z" fill="#F4F9FB"/>
<path d="M9.52852 54.6111C9.52622 54.7021 9.50742 54.7926 9.54202 54.8521C9.63496 55.012 9.75074 55.1585 9.85789 55.311C9.46158 55.4569 9.26952 55.2336 9.12253 54.9366C9.07826 54.8471 8.92478 54.7958 9.04203 54.6432C9.25253 54.3692 9.36104 53.9534 9.88072 54.1424C9.76637 54.2932 9.65137 54.4448 9.52852 54.6111Z" fill="#159ED9"/>
<path d="M7.54288 55.3404C7.36091 55.3826 7.31304 55.2447 7.24124 55.153C6.92861 54.7536 6.95592 54.7686 7.22648 54.3329C7.38959 54.0703 7.58823 54.0964 7.85855 54.1215C7.73668 54.3001 7.63184 54.4667 7.51313 54.6227C7.44342 54.7144 7.43913 54.7743 7.5188 54.8673C7.63463 55.0025 7.72641 55.1583 7.85282 55.3404C7.72949 55.3404 7.64554 55.3404 7.54288 55.3404Z" fill="#314F96"/>
<path d="M5.77694 55.3407C5.60819 55.3743 5.53888 55.2797 5.46748 55.1708C5.17836 54.73 5.19292 54.7413 5.45777 54.3031C5.6104 54.0505 5.81023 54.1078 6.07392 54.1214C5.94926 54.3004 5.8565 54.4608 5.73649 54.5973C5.641 54.7059 5.66912 54.7855 5.73851 54.8795C5.84046 55.0177 5.94115 55.1568 6.06615 55.3281C5.9486 55.3336 5.87223 55.3371 5.77694 55.3407Z" fill="#314F96"/>
<path d="M11.6642 55.0468C11.7301 55.1474 11.7866 55.2346 11.87 55.3632C11.6651 55.3387 11.4608 55.3748 11.3653 55.2893C11.2003 55.1417 11.0018 54.9166 11.0054 54.7276C11.0091 54.5378 11.217 54.3236 11.3846 54.176C11.4828 54.0895 11.6773 54.1123 11.8284 54.0859C11.8379 54.1027 11.8473 54.1194 11.8568 54.1361C11.7849 54.2465 11.7173 54.3601 11.6403 54.4667C11.441 54.7427 11.4393 54.7415 11.6642 55.0468Z" fill="#159ED9"/>
<path d="M21.0608 48.2927C21.351 48.1485 21.6351 48.0258 21.8981 47.8678C22.126 47.7308 22.33 47.554 22.5585 47.3844C22.5448 47.3796 22.5682 47.3816 22.5702 47.3893C22.7481 48.0564 23.0264 48.7143 22.7452 49.422C22.4216 50.2362 21.8036 50.6807 20.9573 50.7965C20.2675 50.8908 19.8386 50.504 19.7825 49.8069C19.7498 49.3997 19.888 49.0633 20.2103 48.8247C20.474 48.6295 20.7661 48.4727 21.0608 48.2927ZM19.9593 49.8016C19.9957 50.2247 20.2467 50.6761 20.8243 50.6349C21.1872 50.6089 21.5122 50.5025 21.805 50.3135C22.3538 49.9595 22.6993 49.4594 22.6813 48.7869C22.6718 48.4292 22.5758 48.0739 22.5135 47.6839C22.3788 47.7726 22.2836 47.8456 22.1794 47.9022C21.6669 48.1807 21.1451 48.4428 20.6402 48.7343C20.2513 48.9589 19.9053 49.2335 19.9593 49.8016Z" fill="#F5FAFC"/>
<path d="M25.0355 51.0805C24.6559 51.1776 24.2919 51.2632 23.9324 51.3646C23.7809 51.4073 23.7018 51.3693 23.6474 51.2241C23.5819 51.0489 23.4995 50.88 23.4168 50.691C23.3677 50.7255 23.3293 50.7387 23.314 50.7652C22.7802 51.6855 21.9226 52.1172 20.931 52.3439C20.4417 52.4557 19.9455 52.5233 19.4479 52.4171C18.6538 52.2475 18.1372 51.7536 17.8879 50.991C17.6894 50.3837 17.5968 49.7627 17.7996 49.1332C18.0007 48.509 18.4403 48.0763 18.9963 47.7827C19.6235 47.4514 20.2845 47.1848 20.9265 46.8809C21.2105 46.7465 21.4921 46.6032 21.7594 46.4389C22.0251 46.2756 22.1388 46.016 22.106 45.7042C22.0695 45.3575 21.9077 45.0967 21.5718 44.96C20.9887 44.7227 19.8568 44.9663 19.4335 45.43C19.1831 45.7042 19.0966 46.0448 19.0918 46.4046C19.0899 46.549 19.0504 46.6199 18.9036 46.6363C18.8099 46.6467 18.7191 46.682 18.6267 46.7052C18.1579 46.8227 17.689 46.9398 17.1974 47.0628C17.0844 46.6821 17.0724 46.2994 17.1141 45.9153C17.1916 45.2017 17.5371 44.6293 18.1234 44.2334C19.319 43.4261 20.6471 43.0747 22.0863 43.2255C22.9227 43.3132 23.5127 43.7893 23.9125 44.5185C24.2306 45.0985 24.3708 45.7364 24.5299 46.3683C24.8946 47.8178 25.2564 49.268 25.6187 50.718C25.6343 50.7806 25.6435 50.8448 25.6587 50.9241C25.4489 50.9765 25.2509 51.026 25.0355 51.0805ZM21.0457 48.299C20.7662 48.4728 20.4741 48.6296 20.2104 48.8248C19.8881 49.0634 19.7499 49.3998 19.7826 49.807C19.8387 50.5041 20.2676 50.8909 20.9574 50.7966C21.8037 50.6808 22.4217 50.2363 22.7453 49.422C23.0265 48.7143 22.7482 48.0565 22.5703 47.3894C22.5683 47.3817 22.5449 47.3797 22.5586 47.3845C22.3301 47.5541 22.1261 47.7309 21.8982 47.8679C21.6352 48.0258 21.3511 48.1486 21.0457 48.299Z" fill="#17A0DA"/>
</svg>
