<svg width="59" height="59" viewBox="0 0 59 59" fill="none" xmlns="http://www.w3.org/2000/svg">
<g clip-path="url(#clip0_18_61)">
<path d="M33.7874 47.0165C33.735 46.8854 33.6956 46.3609 33.6956 45.8365C33.6956 45.312 33.6563 44.604 33.617 44.2894L33.5383 43.6994L32.1879 44.3287C31.4405 44.6827 30.2605 45.1285 29.5394 45.3252C28.3332 45.6529 28.0841 45.6792 25.3701 45.6792C21.6334 45.6923 20.3747 45.4169 17.5427 43.9616C13.3603 41.7983 10.3841 37.878 9.34831 33.1449C9.16475 32.3058 9.1123 31.4798 9.1123 29.5656C9.1123 26.1567 9.53186 24.3343 10.8299 21.9087C12.8752 18.1196 15.9694 15.5236 20.0339 14.16C22.3283 13.3865 25.6585 13.1505 28.0841 13.57C31.1914 14.1207 34.4299 15.7465 36.5539 17.818C37.1045 18.3556 37.1045 18.3687 37.2225 18.0672C37.2881 17.8967 37.5765 17.0838 37.865 16.2578C38.8876 13.3734 38.9925 13.1767 39.4645 13.1374C39.7268 13.1112 40.1856 13.2292 40.697 13.4783C41.1296 13.688 42.4539 14.2649 43.6208 14.7632L45.7579 15.6678V16.1398C45.7579 16.402 45.417 17.5165 44.9843 18.644C43.883 21.5285 42.6899 25.7372 42.0999 28.8445C41.8114 30.3654 41.2345 34.6527 41.1034 36.1998L41.0247 37.1963L41.4312 37.5503C42.113 38.114 42.9128 38.5336 44.1452 38.9663C46.7543 39.884 48.5505 39.4645 49.4814 37.7469C49.8092 37.1569 49.8485 36.9734 49.7961 36.2129C49.7174 35.0854 49.3503 34.1676 48.3801 32.6467C47.9474 31.9649 47.3443 30.916 47.0296 30.2998C46.5052 29.2247 46.479 29.1067 46.4396 27.7956C46.4003 26.4976 46.4134 26.3796 46.7805 25.6716C47.1214 24.9767 47.1345 24.9112 46.9116 24.9112C46.7805 24.9112 46.4659 24.8194 46.2168 24.7276C45.8103 24.5572 45.7579 24.4785 45.7579 24.072V23.6L46.7281 23.6263C47.6196 23.6394 47.777 23.6 48.5636 23.1543C49.1012 22.8658 49.6125 22.6823 49.8879 22.6823C50.3074 22.6823 50.3468 22.7085 50.3468 23.0756C50.3468 23.2854 50.1632 23.8229 49.9272 24.2556C49.5994 24.898 49.5076 25.252 49.4552 26.0912L49.3896 27.14H48.9439C48.5636 27.14 48.4719 27.0745 48.3276 26.7205L48.1441 26.3009L47.9868 26.8385C47.7245 27.7169 47.9867 28.3725 49.5339 30.68C51.2514 33.2236 51.7365 34.2332 51.9463 35.6229C52.3265 38.2189 51.3694 40.3823 49.429 41.3656C48.5768 41.8114 47.6983 41.9556 45.9545 41.9556C44.1583 41.9556 42.821 41.7065 41.6016 41.1689C41.2739 41.0247 40.9723 40.9067 40.933 40.9067C40.8936 40.9067 40.9067 42.2572 40.9592 43.9092C41.0116 45.9152 40.9985 46.9509 40.9068 47.0034C40.8412 47.0427 39.2285 47.1214 37.3274 47.1607C34.1283 47.2394 33.8661 47.2263 33.7874 47.0165ZM38.8614 45.6267H39.6219L39.5301 43.2798C39.4776 41.9818 39.4776 40.4478 39.5301 39.8709C39.6219 38.8483 39.635 38.8089 39.9496 38.8089H40.2774L39.9234 38.3894C39.5694 37.9829 39.5694 37.9305 39.6481 36.7767C39.9234 33.0007 40.3954 29.4214 40.9199 27.14C41.7196 23.6918 42.3359 21.4498 43.0701 19.3389C43.529 18.0409 43.9223 16.9003 43.9485 16.8085C43.9748 16.7167 43.5814 16.4676 42.9783 16.2054C42.4145 15.9563 41.7065 15.6416 41.405 15.4974C40.6052 15.1303 40.0939 14.9336 40.0545 14.9729C39.8972 15.1565 39.4908 16.1529 39.4252 16.4938C39.3728 16.7429 39.2548 17.1232 39.1499 17.346C39.045 17.582 38.8614 18.0672 38.7434 18.4212C38.6385 18.7883 38.4943 19.1947 38.4288 19.3389C38.3632 19.4832 38.2321 19.8765 38.1403 20.2305C37.9699 20.8205 37.9436 20.8467 37.4847 20.8467C37.0521 20.8467 36.9472 20.768 36.449 20.1256C34.8101 18.0016 31.5847 15.9956 28.4774 15.1827C27.127 14.8287 26.7599 14.7763 25.3701 14.8025C23.7443 14.8287 22.0399 15.1172 20.5321 15.6154C19.6799 15.9038 17.805 16.756 17.7001 16.9003C17.6607 16.9527 17.5427 17.0314 17.4379 17.0707C16.5332 17.4116 13.2554 20.65 12.7834 21.6858C12.7179 21.83 12.6261 21.9874 12.5867 22.0267C12.5474 22.066 12.3376 22.4463 12.1147 22.8789C11.4723 24.0852 10.9085 25.8814 10.607 27.6776C10.3579 29.146 10.3447 29.4345 10.489 30.6145C10.8692 33.8136 11.6952 35.9507 13.5307 38.4418C15.2876 40.828 18.2901 42.9389 21.0565 43.7125C24.059 44.5516 26.6812 44.5385 29.6574 43.6469C30.7587 43.3192 31.2176 43.1094 32.8565 42.1392C33.5908 41.7065 34.1939 41.4312 34.443 41.4312C34.8363 41.4312 34.8363 41.4312 34.915 42.3227C34.9674 42.8078 35.0067 43.7387 35.0067 44.3943C35.0067 45.0498 35.0461 45.6267 35.1116 45.6923C35.1641 45.7447 35.859 45.7578 36.6456 45.7054C37.4454 45.666 38.4287 45.6267 38.8614 45.6267Z" fill="#FCFCFD"/>
<path d="M25.0423 40.1199C23.2592 39.897 21.24 39.0579 20.1256 38.0877C19.8372 37.8386 19.5618 37.6288 19.5225 37.6288C19.2603 37.6288 17.7394 35.5704 17.228 34.5477C16.3889 32.8301 16.1267 31.6633 16.1267 29.5655C16.1267 27.4546 16.3889 26.3008 17.2674 24.5177C17.7918 23.4819 18.0803 23.0886 19.0767 22.0921C21.4498 19.7321 23.6918 18.893 27.3367 19.0504C29.9196 19.1553 31.0472 19.5224 32.9876 20.8597C35.99 22.9444 37.4847 26.1304 37.3274 30.1686C37.2749 31.5977 37.2094 31.9779 36.816 33.1448C36.5669 33.8659 36.1605 34.8099 35.9114 35.2295C35.4 36.0817 33.1712 38.4155 32.8565 38.4155C32.7385 38.4155 32.6467 38.4679 32.6467 38.5335C32.6467 38.7301 30.7587 39.5824 29.7098 39.8577C28.5298 40.1593 26.2878 40.2904 25.0423 40.1199ZM27.8612 38.6908C28.1496 38.6253 28.7134 38.5073 29.0936 38.4286C29.4869 38.3499 29.8409 38.2319 29.8803 38.1664C29.9327 38.1008 30.1556 38.009 30.3916 37.9566C30.6276 37.9041 30.8636 37.7861 30.8898 37.6944C30.9292 37.5895 31.1389 37.4584 31.3487 37.3797C31.5585 37.3141 31.7289 37.183 31.7289 37.1175C31.7289 37.0388 31.8076 36.9733 31.9125 36.9733C32.0174 36.9733 32.1223 36.8815 32.1747 36.7766C32.214 36.6717 32.3189 36.5799 32.4107 36.5799C32.5812 36.5799 33.5645 35.6753 33.5645 35.5179C33.5645 35.4786 33.7743 35.2164 34.0234 34.9541C34.2725 34.6788 34.4823 34.351 34.4823 34.2068C34.4823 34.0757 34.5347 33.9577 34.6134 33.9577C34.7838 33.9577 35.0854 33.3415 35.1903 32.7515C35.2427 32.4761 35.3345 32.2533 35.3869 32.2533C35.4525 32.2533 35.5443 31.9386 35.5836 31.5715C35.636 31.1913 35.7278 30.8241 35.7934 30.7455C35.8589 30.6668 35.9114 30.339 35.9245 30.0244C35.9376 29.2377 35.6492 27.1399 35.518 27.1399C35.4656 27.1399 35.3869 26.9433 35.3345 26.7204C35.2296 26.1697 34.6003 24.7799 34.456 24.7799C34.4036 24.7799 34.3512 24.6881 34.3512 24.5833C34.3512 24.4784 34.2987 24.3866 34.2332 24.3866C34.1676 24.3866 34.1676 24.5964 34.2332 24.8848C34.2987 25.147 34.3905 25.9337 34.4298 26.6155C34.574 28.687 34.1152 30.7586 33.1449 32.3713C32.8696 32.817 32.6467 33.2235 32.6467 33.2628C32.6467 33.3021 32.332 33.643 31.9649 34.0495C31.5847 34.4428 31.2569 34.823 31.2307 34.8886C31.2045 34.9541 31.0734 35.0066 30.9292 35.0066C30.798 35.0066 30.68 35.0984 30.68 35.2033C30.68 35.3081 30.562 35.3999 30.4178 35.3999C30.2736 35.3999 30.1556 35.4786 30.1556 35.5704C30.1556 35.8981 28.3069 36.8421 27.6514 36.8421C27.4416 36.8421 27.2712 36.8946 27.2712 36.9601C27.2712 37.2224 25.7109 37.3404 23.6 37.2486C22.4069 37.1961 21.4236 37.1699 21.3974 37.183C21.2663 37.2748 23.6787 38.3237 24.5178 38.5466C25.5536 38.8088 26.9958 38.8744 27.8612 38.6908ZM24.4523 31.2568C25.2652 30.9159 25.96 30.4046 26.3534 29.8408C26.8778 29.0541 27.1794 28.097 27.0745 27.4546L26.9958 26.9039L25.724 27.4153C24.9636 27.7168 24.2294 27.9266 23.9016 27.9266H23.3378V27.4021C23.3378 27.035 23.5345 26.4844 23.9934 25.5666L24.6489 24.2555L24.3212 24.1244C23.8098 23.9277 23.128 23.967 22.3152 24.2161C20.8598 24.675 19.6012 26.3139 19.6143 27.7168C19.6274 30.0637 22.42 32.109 24.4523 31.2568Z" fill="#FCFCFD"/>
<path d="M32.0828 13.2946C31.8468 13.0455 32.0172 11.9179 32.463 10.8035C33.0399 9.3875 33.0923 9.30884 33.6168 9.30884C34.5346 9.30884 34.5739 9.9775 33.7872 11.9311L33.2235 13.3077L32.699 13.3471C32.4106 13.3733 32.1352 13.3471 32.0828 13.2946Z" fill="#FCFCFD"/>
<path d="M19.1683 11.5115C18.9323 10.7642 18.7488 9.87264 18.7488 9.53175V8.91553H19.3257C19.6403 8.91553 19.955 8.99419 20.0337 9.08597C20.2828 9.40064 20.9908 11.9049 20.9514 12.3375C20.9121 12.7702 20.899 12.7833 20.2434 12.8226L19.5748 12.862L19.1683 11.5115Z" fill="#FCFCFD"/>
<path d="M25.8289 10.1087C25.8289 9.09916 25.8682 8.1945 25.9075 8.0765C25.9993 7.82738 27.0744 7.77494 27.2055 8.01094C27.258 8.08961 27.258 8.99427 27.2055 10.0432L27.1137 11.9312H26.4713H25.8289V10.1087Z" fill="#FCFCFD"/>
<path d="M29.1067 39.6741C29.1067 39.5037 29.4738 39.3333 29.8671 39.3333C29.9458 39.3333 30.0245 39.4513 30.0245 39.5955C30.0245 39.8053 29.9327 39.8577 29.5656 39.8577C29.264 39.8577 29.1067 39.7921 29.1067 39.6741Z" fill="#B0BFC6"/>
<path d="M25.8288 39.2021C23.6786 39.0186 21.9741 38.3368 20.309 36.9863C19.3781 36.239 18.9192 35.7146 19.0634 35.5703C19.1028 35.531 19.2994 35.6228 19.5092 35.7801C19.7321 35.9374 19.9681 36.0554 20.0468 36.0554C20.1254 36.0554 20.2959 36.1079 20.427 36.1734C20.6368 36.2914 21.0432 36.4488 21.2792 36.5143C21.3317 36.5406 21.3841 36.5668 21.4103 36.5799C21.4366 36.6192 21.6201 36.6454 22.3543 36.7634C22.9574 36.8552 25.6321 36.8946 25.7763 36.8159C25.8419 36.7766 26.091 36.7372 26.3401 36.7372C26.5892 36.7372 26.8252 36.6586 26.8777 36.5799C26.9301 36.4881 27.1399 36.4094 27.3497 36.3963C27.5595 36.3701 27.8741 36.3177 28.0577 36.2521C28.6083 36.0817 29.7621 35.3474 29.7621 35.177C29.7621 35.0852 29.8801 35.0066 30.0243 35.0066C30.1686 35.0066 30.2866 34.9148 30.2866 34.8099C30.2866 34.705 30.3783 34.6132 30.4832 34.6132C30.693 34.6132 31.9386 33.3283 31.8861 33.1579C31.873 33.0923 31.9517 33.0399 32.0697 33.0399C32.2008 33.0399 32.2532 32.9612 32.2139 32.8563C32.1746 32.7514 32.227 32.6334 32.345 32.5941C32.463 32.5417 32.5154 32.4761 32.4761 32.4368C32.4368 32.3974 32.5155 32.2532 32.6597 32.109C32.8039 31.9648 32.8826 31.7943 32.8432 31.7288C32.7908 31.6501 32.8301 31.5977 32.9088 31.5977C32.9874 31.5977 33.0268 31.5452 32.9875 31.4797C32.9481 31.4141 33.0006 31.3223 33.1186 31.283C33.2497 31.2306 33.3021 31.0994 33.2628 30.9421C33.2234 30.7979 33.2497 30.6799 33.3021 30.6799C33.4594 30.6799 33.7348 29.8014 33.6299 29.631C33.5906 29.5654 33.6168 29.4999 33.6954 29.4999C33.7872 29.4999 33.8134 29.395 33.761 29.2377C33.7086 29.0803 33.7348 28.9754 33.8397 28.9754C33.9446 28.9754 33.9708 28.8312 33.9183 28.5166C33.879 28.2674 33.8921 28.0577 33.9708 28.0577C34.0363 28.0577 34.0888 27.7299 34.0888 27.3366C34.0888 26.9432 34.0363 26.6154 33.9708 26.6154C33.9052 26.6154 33.879 26.3926 33.9183 26.1041C33.9577 25.8157 33.9315 25.5666 33.8528 25.5141C33.7741 25.4617 33.7348 25.3568 33.7741 25.2519C33.8135 25.1601 33.761 24.911 33.6823 24.7012C33.5906 24.4914 33.5381 24.2686 33.5512 24.203C33.5643 24.1506 33.5119 24.0194 33.4332 23.9408C33.3677 23.849 33.3414 23.731 33.3939 23.6917C33.4332 23.6392 33.407 23.5999 33.3283 23.5999C33.2366 23.5999 33.1841 23.5606 33.1972 23.5081C33.2103 23.4426 33.053 23.0754 32.8694 22.6821C32.6859 22.2888 32.5548 21.9348 32.5941 21.9086C32.6859 21.8168 34.4821 23.6786 34.4821 23.8621C34.4821 23.9277 34.5477 23.9932 34.6132 23.9932C34.6919 23.9932 34.7443 24.085 34.7443 24.1899C34.7443 24.2948 34.7968 24.3866 34.8492 24.3866C34.9803 24.3866 35.7014 25.8812 35.7014 26.1566C35.7014 26.2614 35.767 26.3532 35.8326 26.3532C35.8981 26.3532 35.9243 26.4319 35.885 26.5368C35.8457 26.6417 35.8719 26.7466 35.9506 26.7728C36.0292 26.799 36.0948 27.0088 36.1079 27.2448C36.1079 27.4808 36.1603 27.6643 36.2128 27.6643C36.3701 27.6643 36.3832 30.7323 36.239 31.0732C36.1866 31.1781 36.1603 31.401 36.1734 31.5714C36.1866 31.7288 36.1472 31.8599 36.0817 31.8599C36.003 31.8599 35.9768 31.9648 36.0161 32.109C36.0423 32.2401 35.9899 32.4237 35.885 32.5286C35.7932 32.6334 35.7277 32.7908 35.767 32.8826C35.7932 32.9612 35.7539 33.0399 35.6621 33.0399C35.5834 33.0399 35.5572 33.0923 35.5966 33.171C35.6883 33.3283 35.177 34.351 34.9934 34.351C34.9148 34.351 34.8886 34.4034 34.9279 34.469C35.0197 34.6132 34.2592 35.6621 34.0626 35.6621C33.9839 35.6621 33.9577 35.7014 34.0101 35.7539C34.115 35.8719 33.0399 36.9732 32.817 36.9732C32.7121 36.9732 32.6072 37.065 32.5679 37.1699C32.5154 37.2748 32.4106 37.3666 32.3057 37.3666C32.2008 37.3666 32.1221 37.4321 32.1221 37.5108C32.1221 37.5763 31.9517 37.7074 31.7419 37.773C31.5321 37.8517 31.3223 37.9828 31.283 38.0877C31.2568 38.1794 31.0208 38.2974 30.7848 38.3499C30.5488 38.4023 30.3259 38.4941 30.2734 38.5597C30.2341 38.6252 29.8932 38.7301 29.4999 38.8088C29.1066 38.8874 28.7657 38.9923 28.7263 39.0448C28.6739 39.0972 28.4772 39.1366 28.2543 39.1497C28.0446 39.1497 27.6906 39.1759 27.4677 39.2283C27.2579 39.2677 26.5106 39.2546 25.8288 39.2021Z" fill="#B0BFC6"/>
<path d="M32.0698 38.3106C32.2009 38.1795 32.4238 38.0353 32.5549 37.9829C32.7254 37.9173 32.7778 37.9697 32.7778 38.2189C32.7778 38.5073 32.7254 38.5466 32.2927 38.5466C31.8207 38.5466 31.8207 38.5466 32.0698 38.3106Z" fill="#B0BFC6"/>
<path d="M21.0304 38.2189C20.8993 38.114 20.5846 38.0222 20.3617 38.0222C20.0077 38.0222 19.929 37.9697 19.929 37.7469C19.929 37.5764 19.6668 37.1962 19.2735 36.8291C18.9195 36.4882 18.6179 36.1211 18.6179 36.0293C18.6179 35.9375 18.9326 36.1866 19.3128 36.58C19.6799 36.9733 20.2306 37.4846 20.5059 37.6944C20.7944 37.9173 21.109 38.1533 21.227 38.2451C21.345 38.3369 21.3975 38.4155 21.3581 38.4155C21.3188 38.4155 21.1746 38.3237 21.0304 38.2189Z" fill="#B0BFC6"/>
<path d="M50.7663 36.7765C50.7532 36.239 50.7925 36.0554 50.9236 36.0554C51.1072 36.0554 51.1072 36.121 51.0154 37.3403C51.0023 37.419 50.9499 37.4976 50.8974 37.4976C50.8319 37.4976 50.7794 37.1699 50.7663 36.7765Z" fill="#B0BFC6"/>
<path d="M34.3642 36.3572C34.4691 36.2261 34.6527 36.0032 34.7838 35.8721C35.0067 35.623 35.0067 35.623 35.0067 36.095C35.0067 36.5539 34.9805 36.5801 34.6002 36.5801C34.2331 36.5801 34.2069 36.5539 34.3642 36.3572Z" fill="#B0BFC6"/>
<path d="M36.7898 27.9006C36.6587 27.4024 36.698 27.2712 36.9734 27.2712C37.1831 27.2712 37.2356 27.363 37.2356 27.7301C37.2356 28.2546 36.9209 28.3726 36.7898 27.9006Z" fill="#B0BFC6"/>
<path d="M12.5867 24.9636C11.6427 24.4261 11.4067 24.1507 11.4067 23.5607C11.4067 23.1281 11.905 21.9087 12.1934 21.6334C12.2327 21.5941 12.3245 21.4367 12.3901 21.2925C12.8621 20.2567 16.1398 17.0183 17.0445 16.6774C17.1494 16.6381 17.2674 16.5594 17.3067 16.507C17.3985 16.389 19.339 15.4712 19.5225 15.4712C19.6012 15.4712 19.6667 15.5761 19.6667 15.7072C19.6798 15.8252 19.8503 16.1399 20.0601 16.389C20.3747 16.7561 20.4534 16.9659 20.4534 17.4641C20.4534 17.805 20.401 18.0934 20.3354 18.0934C20.2698 18.0934 19.6798 18.4474 19.0374 18.8801C17.1232 20.1519 15.4318 22.171 14.3961 24.413C14.0158 25.2259 13.9503 25.3045 13.5832 25.3045C13.3603 25.3045 12.9145 25.1472 12.5867 24.9636Z" fill="#B0BFC6"/>
<path d="M38.2189 20.8861C37.7075 20.6108 37.6026 20.4535 37.6944 20.0601C37.878 19.2079 37.9173 19.0768 38.0222 18.9457C38.0746 18.8801 38.1402 18.7753 38.1402 18.7228C38.1533 18.6573 38.1664 18.5917 38.1664 18.5524C38.1795 18.513 38.1926 18.4475 38.2057 18.395C38.2189 18.3295 38.2844 18.1197 38.3762 17.8968C38.6646 17.1233 38.7171 16.979 38.7433 16.8873C38.7695 16.8217 38.7957 16.7561 38.8089 16.7168C38.822 16.6775 38.8613 16.5988 38.8744 16.5201C38.8875 16.4546 38.9137 16.3759 38.9269 16.3628C38.9531 16.3366 38.9793 16.2055 39.0055 16.0613C39.0973 15.6024 39.7397 14.2913 39.8709 14.2913C39.9364 14.2913 40.2117 14.3961 40.4871 14.5404C40.7493 14.6715 41.1164 14.8157 41.3 14.8681C41.4835 14.9075 41.7326 15.0255 41.8637 15.1304C42.0735 15.3008 42.0604 15.3664 41.6409 16.2055C41.0246 17.4641 40.5526 18.6179 40.12 19.929L39.7529 21.0435L39.176 21.0697C38.8482 21.0959 38.4549 21.0173 38.2189 20.8861Z" fill="#B0BFC6"/>
<path d="M22.6824 14.7761C22.6824 14.6712 22.8266 14.5401 23.0102 14.5008C23.1937 14.4484 23.3379 14.3566 23.3379 14.291C23.3379 14.2124 23.4822 14.1599 23.6657 14.1599C23.8493 14.1599 23.9935 14.2255 23.9935 14.291C23.9935 14.3697 24.0853 14.4221 24.2033 14.4221C24.3213 14.4221 24.3868 14.5139 24.3606 14.6581C24.3213 14.8417 24.1508 14.8941 23.4953 14.9204C22.8528 14.9466 22.6824 14.9204 22.6824 14.7761Z" fill="#B0BFC6"/>
<path d="M25.8027 14.8549C25.2389 14.7631 25.37 14.4746 26.0125 14.3042C26.7205 14.1337 27.14 14.1206 27.14 14.278C27.14 14.3435 27.3498 14.4353 27.5989 14.4746C27.8743 14.5271 28.0578 14.6451 28.0578 14.75C28.0578 14.9073 27.8611 14.9466 27.1138 14.9335C26.5894 14.9204 25.9994 14.8811 25.8027 14.8549Z" fill="#B0BFC6"/>
<path d="M23.1149 13.806C23.2329 13.7798 23.4427 13.7798 23.5738 13.806C23.6918 13.8454 23.5869 13.8716 23.3378 13.8716C23.0887 13.8716 22.9838 13.8454 23.1149 13.806Z" fill="#B0BFC6"/>
<path d="M48.511 27.0876C48.511 26.9827 48.4455 26.8778 48.3799 26.8516C48.3012 26.8254 48.1963 26.4845 48.157 26.0911C48.1046 25.5143 48.1308 25.3307 48.3012 25.1865C48.4192 25.0947 48.511 25.0291 48.5241 25.0554C48.5241 25.0816 48.5503 25.3569 48.5897 25.6716C48.6159 25.9863 48.7208 26.3665 48.8126 26.5238C48.9568 26.786 48.9699 26.7336 49.0092 26.0911C49.0486 25.0947 49.1403 24.78 49.3632 24.78C49.5206 24.78 49.5599 25.016 49.5599 26.0256V27.2711H49.0355C48.6683 27.2711 48.511 27.2187 48.511 27.0876Z" fill="#F21128"/>
<path d="M9.34812 25.8945C9.16456 25.6847 9.11212 24.78 9.28256 24.78C9.34812 24.78 9.45301 24.4392 9.51856 24.0327L9.63656 23.2723L10.161 23.2329L10.6986 23.1936L10.2266 24.6358C9.97745 25.4356 9.71523 26.0912 9.63656 26.078C9.57101 26.078 9.42679 25.9994 9.34812 25.8945Z" fill="#F21128"/>
<path d="M46.7805 24.9504C46.3871 24.911 46.2822 24.8324 46.2822 24.6357C46.2822 24.5046 46.2298 24.3866 46.1511 24.3866C46.0856 24.3866 46.02 24.1506 46.02 23.8622V23.3377H47.0034C47.5409 23.3377 47.9867 23.2853 47.9867 23.2197C47.9867 22.9706 49.324 22.2888 49.8354 22.2888C50.3467 22.2888 50.3467 22.2888 50.3467 22.8002C50.3467 23.0886 50.268 23.377 50.15 23.4688C50.0451 23.5606 49.9534 23.7966 49.9534 24.0064C49.9534 24.321 49.9009 24.3866 49.6256 24.3866C49.2191 24.3866 49.2191 24.3735 49.6387 23.6524C49.8222 23.3377 49.9402 23.0755 49.9009 23.0755C49.8616 23.0755 49.4289 23.2984 48.9438 23.5606C48.1571 23.9933 47.9605 24.0457 47.1082 24.0588C46.5838 24.0588 46.1511 24.0719 46.1511 24.0982C46.1511 24.2293 47.1476 24.5177 47.5934 24.5177C48.0916 24.5177 48.1178 24.5439 47.9867 24.7799C47.8425 25.0422 47.7769 25.0553 46.7805 24.9504Z" fill="#F21128"/>
<path d="M42.8995 23.5083C43.0437 22.6955 43.7386 20.519 44.5515 18.3819C45.0104 17.1363 45.3775 16.1006 45.3513 16.0743C45.325 16.0481 44.3024 15.6023 43.0699 15.0779C41.8506 14.5535 40.5526 13.9897 40.1986 13.8192C39.8315 13.6488 39.5037 13.5439 39.4644 13.5963C39.3202 13.7537 38.7039 15.3663 38.0222 17.3461C37.6682 18.3426 37.3535 19.1948 37.3142 19.2341C37.2748 19.2734 36.8684 18.9326 36.4226 18.4868C33.4988 15.5499 29.2902 13.7668 25.3044 13.7668C19.5486 13.7668 14.1861 16.9528 11.3541 22.0661C11.0788 22.5512 10.8297 22.9446 10.7904 22.9446C10.7642 22.9446 10.6462 22.8528 10.5282 22.7348C10.3708 22.5906 10.3446 22.3808 10.4102 21.8826C10.4888 21.3581 10.4626 21.2401 10.2921 21.2401C10.1479 21.2401 10.0955 21.109 10.0955 20.7812C10.0955 20.3748 10.0561 20.3223 9.76771 20.3223C9.58415 20.3223 9.43993 20.2699 9.43993 20.2174C9.43993 20.165 9.24326 20.0077 9.02037 19.8634C8.64015 19.6406 8.31237 19.6143 6.33259 19.6012C5.08704 19.6012 4.06437 19.6406 4.06437 19.7061C4.06437 19.7586 3.65793 19.7979 3.14659 19.7979C2.62215 19.7979 2.22882 19.8503 2.22882 19.929C2.22882 20.0077 1.76993 20.0601 1.10126 20.0601H-0.0131836L0.0392609 14.9861C0.0785942 9.92523 0.0785942 9.89901 0.432594 8.66656C1.62571 4.53656 4.66748 1.57345 8.91548 0.38034L10.0299 0.0656738H29.4999H48.9699L50.0844 0.367229C52.4313 0.983451 54.6995 2.41256 56.2204 4.20878C57.1906 5.34945 58.2002 7.27678 58.5279 8.5879C58.6459 9.09923 58.8033 9.68923 58.8819 9.91212C58.9475 10.135 58.9999 12.4032 58.9999 14.973V19.6406L55.5648 19.5881C53.6637 19.5619 51.5922 19.5357 50.9366 19.5226C49.691 19.4832 47.8555 19.7455 47.8555 19.9421C47.8555 20.0077 47.7506 20.0601 47.6195 20.0601C47.4884 20.0601 47.3048 20.1781 47.1999 20.3223C47.0426 20.5452 46.859 20.5846 45.9282 20.5846C45.3382 20.5846 44.8137 20.6501 44.7744 20.7157C44.735 20.7943 44.5908 20.8468 44.4597 20.8468C44.2762 20.8468 44.1844 21.0303 44.0533 21.6466C43.9615 22.0792 43.8042 22.525 43.6993 22.6168C43.6075 22.7217 43.5288 22.9446 43.5288 23.115C43.5288 23.6263 43.3977 23.8623 43.1093 23.8623C42.8864 23.8623 42.8602 23.7968 42.8995 23.5083ZM33.407 11.4723C33.8922 10.2661 33.9446 10.0301 33.7873 9.87278C33.5382 9.62367 33.4333 9.7679 32.8564 11.197C32.3844 12.377 32.3057 12.731 32.4762 12.9015C32.6859 13.0981 32.8695 12.8228 33.407 11.4723ZM20.5057 12.3377C20.5975 12.2066 19.837 9.72856 19.6273 9.47945C19.4437 9.23034 19.1422 9.26967 19.1422 9.53189C19.1422 9.66301 19.3257 10.371 19.5617 11.1052C19.8764 12.1541 20.0206 12.4557 20.2042 12.4557C20.3353 12.4557 20.4664 12.4032 20.5057 12.3377ZM26.7466 10.8561C26.7466 10.4759 26.7859 9.7679 26.8253 9.28278C26.9039 8.50923 26.8908 8.39123 26.681 8.31256C26.3139 8.16834 26.2222 8.49612 26.2222 10.0695C26.2222 11.4461 26.2353 11.5379 26.4844 11.5379C26.7073 11.5379 26.7466 11.4461 26.7466 10.8561Z" fill="#F21128"/>
<path d="M0.0786667 48.747C0.0393333 48.5766 0 48.2226 0 47.9604C0 47.5539 0.0524444 47.4622 0.262222 47.4622C0.498222 47.4622 0.524444 47.5539 0.524444 48.2488C0.524444 48.8257 0.472 49.0355 0.340889 49.0355C0.249111 49.0355 0.131111 48.9044 0.0786667 48.747Z" fill="#E00B23"/>
<path d="M58.292 48.747C58.2527 48.5766 58.2134 48.2488 58.2134 48.0259C58.2134 47.6326 58.2527 47.5933 58.6198 47.5933H59.0132L58.9738 48.2881C58.9345 48.865 58.8952 48.9699 58.6592 49.0093C58.4625 49.0355 58.3576 48.9568 58.292 48.747Z" fill="#E00B23"/>
<path d="M21.5416 45.6005C21.2269 45.4956 21.1089 45.3776 21.1089 45.1809C21.1089 44.8925 21.1089 44.8925 22.1578 45.1023C22.9969 45.2596 23.2067 45.3514 23.2067 45.5349C23.2067 45.7185 23.0887 45.7578 22.5904 45.7447C22.2364 45.7316 21.7644 45.6661 21.5416 45.6005Z" fill="#E00B23"/>
<path d="M32.6467 43.6731C32.6467 43.5682 33.7087 42.8733 33.8792 42.8733C34.0758 42.8733 33.9316 43.5288 33.7087 43.66C33.3941 43.8173 32.6467 43.8304 32.6467 43.6731Z" fill="#E00B23"/>
<path d="M40.5134 41.431C40.5134 40.7099 40.5396 40.1199 40.5659 40.1199C40.5921 40.1199 41.051 40.3297 41.5754 40.5788C42.113 40.8279 42.939 41.1294 43.4372 41.2474C44.5779 41.5359 44.6434 41.8243 43.5421 41.8243C43.1094 41.8243 42.7161 41.7719 42.6768 41.6932C42.6374 41.6277 42.4539 41.5621 42.2834 41.5621C41.7983 41.5621 41.3001 41.2868 41.3001 41.0114C41.3001 40.8672 41.2476 40.8017 41.169 40.841C41.1034 40.8803 41.0379 41.3261 41.0379 41.8374C41.0379 42.6503 41.0116 42.7421 40.7756 42.7421C40.5265 42.7421 40.5134 42.6503 40.5134 41.431Z" fill="#E00B23"/>
<path d="M14.5927 42.0342C14.5402 41.9294 14.3436 41.8245 14.16 41.7982C13.9764 41.7851 13.7798 41.6278 13.7011 41.4705C13.6356 41.3131 13.452 41.1558 13.3078 41.1165C13.1504 41.0771 12.9538 40.8936 12.8489 40.71C12.7571 40.5265 12.4687 40.2642 12.2196 40.12C11.8 39.8709 11.7607 39.8578 11.6033 40.0676C11.4853 40.2511 11.328 40.2774 10.8691 40.1987C10.5544 40.1594 9.44 40.0676 8.39111 40.002C7.22422 39.9234 6.26711 39.7922 5.9 39.6611C5.41489 39.4776 5.00844 39.4514 3.55311 39.5169C2.58289 39.5562 1.75689 39.648 1.70444 39.7267C1.66511 39.7922 1.25867 39.8447 0.812889 39.8447L0 39.8316V29.7491V19.6667L0.694889 19.6405C1.062 19.6274 1.48156 19.6142 1.61267 19.6274C1.73067 19.6274 1.83556 19.5487 1.83556 19.4569C1.83556 19.3389 2.08467 19.2996 2.75333 19.3258C3.26467 19.352 3.67111 19.3258 3.67111 19.2602C3.67111 19.2078 4.61511 19.1685 5.76889 19.1816C6.92267 19.1947 7.86667 19.1685 7.86667 19.116C7.86667 19.0636 8.06333 19.0374 8.29933 19.0374C8.70578 19.0374 9.83333 19.6274 9.83333 19.8371C9.83333 19.8896 10.0038 19.9289 10.2136 19.9289C10.6462 19.9289 10.856 20.1387 10.6331 20.3616C10.5544 20.4402 10.4889 20.5976 10.4889 20.7025C10.502 20.886 10.5282 20.8729 10.6724 20.6894C10.9084 20.3616 11.0527 20.4009 10.9609 20.7549C10.8953 21.0302 10.9216 21.0565 11.3411 21.004C11.8262 20.9516 11.9049 21.0696 11.6689 21.5154C11.5902 21.6465 11.4198 21.7645 11.2756 21.7645C11.1313 21.7645 10.9609 21.8825 10.8822 22.0267C10.7904 22.2102 10.7904 22.2889 10.8822 22.2889C11.0789 22.2889 11.0396 22.6036 10.7904 23.1411C10.6593 23.4034 10.4758 23.6 10.3447 23.6C10.0693 23.6 9.84645 23.8885 10.0693 23.9671C10.3184 24.0458 10.2529 24.3867 10.0038 24.3998C9.85956 24.3998 9.83333 24.4391 9.93822 24.4785C10.2004 24.5834 10.1218 25.0554 9.83333 25.134C9.54489 25.2127 9.49244 25.3831 9.72844 25.4618C9.84644 25.5011 9.83333 25.7896 9.68911 26.6942C9.42689 28.3331 9.45311 31.3749 9.75467 32.7516C10.4364 35.9507 11.7869 38.4025 14.1862 40.8149L15.6022 42.2178H15.1433C14.8942 42.2178 14.6451 42.1391 14.5927 42.0342Z" fill="#E00B23"/>
<path d="M44.5779 41.8245C44.5779 41.5885 44.6697 41.5623 45.299 41.5623C45.9283 41.5623 46.0201 41.5885 46.0201 41.8245C46.0201 42.0605 45.9283 42.0867 45.299 42.0867C44.6697 42.0867 44.5779 42.0605 44.5779 41.8245Z" fill="#E00B23"/>
<path d="M48.38 41.4311C48.38 41.3656 48.6291 41.182 48.9438 41.0247C50.8842 40.0414 51.8938 37.996 51.5267 35.7934C51.3169 34.574 50.8187 33.5907 49.2322 31.2045C48.4718 30.09 47.7769 28.91 47.6589 28.5954C47.3573 27.73 47.4098 26.786 47.79 25.9994C48.3013 24.9767 48.4587 24.9111 48.5504 25.6847C48.6291 26.3009 48.8651 26.8778 49.0487 26.8778C49.1011 26.8778 49.1404 26.3796 49.1404 25.7633C49.1404 24.8062 49.1798 24.5702 49.4944 23.9802C49.8878 23.2198 50.032 22.6822 49.8353 22.6822C49.56 22.6822 48.4455 23.4951 48.3275 23.7705C48.262 23.9409 48.1964 23.9934 48.1571 23.9016C48.0784 23.6787 47.8818 23.6918 47.6458 23.9278C47.4622 24.0982 47.4229 24.0982 47.2524 23.9278C46.9902 23.6656 46.8591 23.6787 46.7411 23.9671C46.6493 24.1638 46.6362 24.1769 46.5575 23.9802C46.492 23.7967 46.4527 23.7836 46.3215 23.9278C46.0724 24.19 46.6624 24.5178 47.4491 24.544C47.8031 24.5571 48.0784 24.6096 48.0522 24.662C48.026 24.7014 47.79 25.0422 47.5409 25.4094C46.9247 26.3271 46.7673 26.8778 46.8329 27.9005C46.8853 28.8969 47.5015 30.2998 48.6422 32.0567C49.8878 33.9447 50.2287 34.8756 50.2287 36.4096C50.2287 37.3536 50.1893 37.5896 49.8747 38.1534C49.2191 39.3465 48.2227 39.8578 46.5182 39.8578C44.9055 39.8578 42.8471 39.2154 41.5229 38.2976C40.592 37.6551 40.5264 37.5109 40.6707 36.1211C41.182 31.0471 42.1653 25.4749 42.8864 23.6394C42.9651 23.4427 43.0569 23.1018 43.0962 22.8789C43.1355 22.6691 43.2142 22.42 43.2798 22.3413C43.3453 22.2627 43.3584 22.1578 43.306 22.1185C43.2667 22.066 43.2929 22.0267 43.3847 22.0267C43.4895 22.0267 43.5289 21.9218 43.4895 21.7645C43.4502 21.6334 43.4764 21.5022 43.542 21.476C43.6075 21.4498 43.6731 21.2269 43.6993 20.9778C43.7387 20.65 43.8304 20.5058 44.0009 20.4796C44.1451 20.4533 44.3024 20.3747 44.368 20.3091C44.4467 20.2436 44.9711 20.1911 45.5611 20.1911C46.4658 20.1911 46.6493 20.1518 46.8067 19.9289C46.9115 19.7847 47.0951 19.6667 47.2262 19.6667C47.3573 19.6667 47.4622 19.6142 47.4622 19.5356C47.4622 19.47 47.5802 19.4045 47.7244 19.4045C47.8687 19.4045 47.9867 19.3389 47.9867 19.2602C47.9867 19.1685 48.1047 19.1422 48.2751 19.1947C48.4455 19.234 48.9175 19.1816 49.3371 19.0636C49.7567 18.9587 50.1631 18.9062 50.2418 18.9587C50.4253 19.0767 51.5267 19.0636 51.9069 18.9456C52.0773 18.8931 52.2609 18.9325 52.392 19.0636C52.6018 19.2865 52.9689 19.352 52.9689 19.1685C52.9689 19.0636 57.8462 19.1291 58.8427 19.2471C58.9607 19.2734 59 21.3711 59 29.3034C59 38.7565 58.9869 39.3334 58.7771 39.3596C58.646 39.3727 58.0167 39.3858 57.3611 39.3989C55.3158 39.4251 53.0869 39.6218 52.9033 39.8054C52.8115 39.8971 52.392 39.9889 51.9724 40.0151C51.3169 40.0545 51.1858 40.0938 51.0678 40.356C51.0022 40.5265 50.8055 40.6838 50.6482 40.7362C50.4778 40.7756 50.3467 40.8542 50.3467 40.9198C50.3467 40.9854 50.2287 41.0378 50.0844 41.0378C49.9402 41.0378 49.8222 41.1034 49.8222 41.1689C49.8222 41.2476 49.7304 41.3 49.6255 41.3C49.5207 41.3 49.4289 41.3656 49.4289 41.4311C49.4289 41.5098 49.1929 41.5622 48.9044 41.5622C48.616 41.5622 48.38 41.5098 48.38 41.4311Z" fill="#E00B23"/>
<path d="M11.8394 20.7811C11.7476 20.6762 11.564 20.5451 11.446 20.4664C11.3149 20.4008 11.2625 20.296 11.328 20.2304C11.3936 20.178 11.4722 20.2042 11.4985 20.296C11.5771 20.5057 11.9311 20.2566 11.9311 19.9944C11.9311 19.8108 12.6785 19.4568 12.7965 19.5748C12.862 19.6404 12.508 20.296 12.3114 20.4533C12.272 20.4926 12.1802 20.6106 12.1147 20.7286C12.0229 20.9122 11.9705 20.9253 11.8394 20.7811Z" fill="#E00B23"/>
<path d="M44.1189 19.5225C44.3287 18.8276 44.8269 17.8968 44.8269 18.1721C44.84 18.3294 44.7614 18.5261 44.6565 18.6048C44.5516 18.6965 44.4336 18.9588 44.3943 19.2079C44.3418 19.457 44.2369 19.693 44.1714 19.7454C44.0665 19.7979 44.0534 19.7323 44.1189 19.5225Z" fill="#E00B23"/>
<path d="M36.9734 18.5785C36.9734 18.3294 37.1045 18.2245 37.3143 18.3163C37.5896 18.4212 37.5372 18.7489 37.2356 18.7489C37.0914 18.7489 36.9734 18.6703 36.9734 18.5785Z" fill="#E00B23"/>
<path d="M37.17 17.9622C37.052 17.7655 37.3536 17.4377 37.6551 17.4377C37.8387 17.4377 37.8911 17.5033 37.8387 17.6475C37.7993 17.7655 37.76 17.9097 37.76 17.9753C37.76 18.1326 37.2749 18.1195 37.17 17.9622Z" fill="#E00B23"/>
<path d="M10.0298 58.8689C9.9905 58.8033 9.79384 58.7377 9.61028 58.7377C9.07273 58.7377 7.48628 58.2264 6.48984 57.7282C4.26095 56.6006 2.4385 54.7782 1.31095 52.51C0.157169 50.2024 0.104725 49.8353 0.0391691 44.2369C-0.0132753 40.1986 -0.000164233 39.3726 0.144058 39.3726C0.248947 39.3726 0.52428 39.3333 0.76028 39.2809C1.07495 39.2022 1.17984 39.2284 1.17984 39.3595C1.17984 39.4775 1.20606 39.4906 1.28472 39.3857C1.38961 39.2022 2.37295 39.0711 4.06428 39.0317C4.99517 38.9924 5.51961 39.0449 6.14895 39.2415C7.0405 39.5037 9.43984 39.6611 9.43984 39.4513C9.43984 39.2546 9.70206 39.3202 9.93806 39.5562C10.1478 39.766 10.1609 39.7529 10.2003 39.4251C10.2265 39.2284 10.3052 39.0711 10.3707 39.0711C10.5412 39.0711 10.9607 39.4775 11.0525 39.7266C11.1049 39.8709 11.1443 39.8446 11.2229 39.6217C11.2885 39.3989 11.3803 39.3333 11.5507 39.3726C11.6949 39.412 11.8523 39.3464 11.9178 39.2284C12.0227 39.058 12.0752 39.0449 12.2456 39.1891C12.3636 39.2809 12.4161 39.412 12.3898 39.4775C12.3505 39.53 12.4947 39.6742 12.7176 39.7922C12.9274 39.8971 13.1109 40.0413 13.1109 40.0937C13.1241 40.3297 13.5305 40.6837 13.7927 40.71C13.9632 40.7231 14.0943 40.8149 14.0943 40.9197C14.1074 41.1951 14.2778 41.4311 14.5007 41.4311C14.5925 41.4311 15.1432 41.772 15.7201 42.1915C16.9787 43.1355 18.9585 44.1582 20.4532 44.6564C21.0694 44.8662 21.5938 45.0366 21.6332 45.0366C21.6725 45.0366 21.7774 45.0891 21.8692 45.1415C21.9478 45.2071 22.0921 45.2071 22.1576 45.1677C22.2363 45.1284 22.2887 45.1415 22.2887 45.2071C22.2887 45.2857 23.3507 45.3251 25.0814 45.312C27.6118 45.2726 27.9658 45.2464 29.1196 44.9317C30.3914 44.5909 33.1578 43.4109 33.6036 43.0306C33.7216 42.9257 33.8527 42.8602 33.8921 42.8995C33.9314 42.9257 33.9969 43.6993 34.0363 44.5909C34.1412 47.0689 33.8921 46.8066 36.1603 46.7935C37.2223 46.7804 38.6514 46.7411 39.3332 46.6886L40.5787 46.61V43.6469C40.5787 40.2511 40.6181 40.12 41.3654 40.474C41.6145 40.592 41.7849 40.7362 41.7587 40.7755C41.6669 40.9197 42.4405 41.2082 42.6634 41.1295C42.7683 41.0902 42.9256 41.1295 43.0043 41.2344C43.0829 41.3262 43.3976 41.4049 43.7254 41.4049C44.0401 41.4049 44.3809 41.4573 44.4596 41.5097C44.9054 41.7851 49.0354 41.3655 49.0354 41.0377C49.0354 40.9984 49.2452 40.8804 49.4943 40.7755C49.7434 40.6706 49.9532 40.5526 49.9532 40.5002C49.9532 40.4477 50.0974 40.3691 50.2678 40.3297C50.4383 40.2904 50.6087 40.1462 50.6481 40.002C50.7398 39.6217 51.5134 39.2677 51.8149 39.4513C52.1034 39.6217 52.4443 39.6349 52.4443 39.4775C52.4443 39.2809 52.9556 39.1629 53.9521 39.1235C54.4634 39.1104 54.9747 39.0842 55.1058 39.0842C55.2369 39.0711 55.3287 38.9662 55.3287 38.8089C55.3287 38.6646 55.4205 38.5466 55.5254 38.5466C55.6303 38.5466 55.7221 38.6646 55.7221 38.8089C55.7221 39.0186 55.7745 39.058 55.9581 38.9662C56.1941 38.8351 57.8461 38.8613 58.0558 38.9924C58.1345 39.0317 58.2132 39.0055 58.2394 38.9269C58.2656 38.8482 58.4229 38.822 58.6458 38.8744L58.9998 38.9662V43.4764C58.9998 47.5277 58.9736 47.9866 58.7901 47.9866C58.6458 47.9866 58.6065 48.0522 58.6589 48.1964C58.6983 48.3144 58.7376 48.4586 58.7376 48.5242C58.7376 48.6029 58.8032 48.616 58.8687 48.5766C59.0261 48.4717 59.0392 48.6946 58.8818 49.0093C58.8163 49.1273 58.7114 49.56 58.6327 49.9664C58.0296 53.2442 55.1058 56.6793 51.7363 58.0691C49.5205 58.9869 51.0545 58.9213 29.5392 58.9606C16.6116 58.9869 10.0823 58.9606 10.0298 58.8689Z" fill="#D0061F"/>
<path d="M45.6267 39.6742C45.6267 39.4251 45.8889 39.3595 46.3872 39.4906C46.9903 39.6479 46.8985 39.8577 46.2167 39.8577C45.7972 39.8577 45.6267 39.8053 45.6267 39.6742Z" fill="#D0061F"/>
<path d="M47.8557 39.4644C47.7508 39.3989 47.6983 39.3202 47.7377 39.2809C47.8294 39.176 48.3801 39.3464 48.3801 39.4776C48.3801 39.6349 48.1048 39.6218 47.8557 39.4644Z" fill="#D0061F"/>
<path d="M40.6445 36.9209C40.6445 36.5145 40.7232 36.4752 40.815 36.8423C40.8543 36.9865 40.8281 37.1438 40.7625 37.1832C40.697 37.2225 40.6445 37.1045 40.6445 36.9209Z" fill="#D0061F"/>
<path d="M51.6576 36.4881C51.6183 36.1865 51.6314 35.9768 51.697 36.0423C51.7625 36.1079 51.7887 36.357 51.7625 36.593C51.7232 37.0256 51.7101 37.0256 51.6576 36.4881Z" fill="#D0061F"/>
<path d="M34.705 46.0724C34.6526 46.02 34.6133 45.3513 34.6002 44.5909C34.587 43.8304 34.5477 42.8864 34.5084 42.5193L34.4166 41.8244L33.3022 42.5062C31.0208 43.8829 29.1459 44.486 26.5106 44.7089C23.9277 44.9186 20.7286 44.3942 18.8144 43.4371C14.3697 41.2082 11.341 37.406 10.3708 32.8433C9.91194 30.6406 9.8726 29.2771 10.2266 27.1924C11.105 22.0791 14.0026 18.1457 18.5522 15.93C20.9646 14.75 23.2328 14.3173 26.2746 14.4877C28.9624 14.6189 30.9553 15.2482 33.3546 16.7035C34.4428 17.3722 36.1866 18.88 36.8422 19.7322C37.1437 20.1255 37.4453 20.4533 37.4977 20.4533C37.5502 20.4533 37.655 20.2042 37.7468 19.9026C38.0746 18.8144 39.6217 14.4877 39.7397 14.3697C39.8184 14.2911 40.0675 14.3435 40.4084 14.514L40.9722 14.7762L40.3953 14.7631L39.8315 14.75L39.4644 15.7989C38.8219 17.6606 38.1533 19.8109 38.1533 20.0469C38.1533 20.3222 39.1497 20.8335 39.3202 20.6369C39.3726 20.5713 39.4906 20.2566 39.5824 19.9289C39.7922 19.1815 40.6313 17.0837 41.1557 16.0086C41.3786 15.5497 41.5228 15.1302 41.4835 15.0646C41.4573 14.9991 41.6146 15.0384 41.8506 15.1433C43.7255 15.9431 44.6433 16.3757 44.617 16.4806C44.6039 16.5331 44.1713 17.7655 43.6599 19.2077C41.9555 23.9671 40.7886 29.1591 40.3297 34.0889C40.2117 35.282 40.0937 36.5669 40.0544 36.9602C39.9757 37.6682 39.9888 37.6682 40.605 38.2451C41.8899 39.4382 44.5515 40.4084 46.5444 40.4084C49.0486 40.4084 50.4908 39.2153 50.8579 36.8291L50.989 35.99L50.9366 36.9864C50.8842 38.0877 50.6744 38.7302 50.0844 39.4775C49.2846 40.474 47.2262 41.1426 45.4824 40.9853C44.027 40.8411 42.139 40.3035 41.077 39.7266C40.5264 39.4382 40.0544 39.2284 40.015 39.2677C39.9233 39.3595 39.9102 42.5717 39.9888 44.4729L40.0544 46.02L37.4322 46.0986C35.9899 46.138 34.7706 46.1249 34.705 46.0724ZM29.3426 39.4513C31.2306 38.9662 32.7646 38.0484 34.1806 36.5275C35.3213 35.3082 35.8588 34.4035 36.4095 32.7909C37.1962 30.4833 37.1437 28.2806 36.239 25.9337C35.4786 23.9277 34.3248 22.4593 32.5942 21.2531C30.7586 19.9944 29.5524 19.5749 27.3366 19.4437C24.1768 19.2733 21.7513 20.2042 19.4699 22.4855C18.4735 23.482 18.185 23.8753 17.6606 24.9111C16.1266 28.0315 16.1135 31.0864 17.6213 34.1544C19.7715 38.5073 24.557 40.6706 29.3426 39.4513ZM15.1957 21.9086C16.061 20.6369 17.3722 19.3389 18.6439 18.4866C19.2864 18.054 19.8764 17.7 19.9419 17.7C20.2304 17.7 20.0206 17.1493 19.483 16.5724L18.9193 15.9431L18.3424 16.1922C16.8084 16.8871 14.881 18.4735 13.6224 20.0862C12.757 21.2137 11.7999 22.9837 11.7999 23.4557C11.7999 23.7442 12.2195 24.1375 12.9799 24.5702L13.5568 24.898L14.1075 23.8097C14.409 23.2066 14.8942 22.3544 15.1957 21.9086Z" fill="black"/>
<path d="M22.5511 31.8074C21.1351 31.4927 20.0731 30.6536 19.4962 29.3819C19.0504 28.4379 19.0898 26.917 19.5749 25.9336C20.3222 24.4259 21.712 23.5999 23.5213 23.5999C24.2949 23.5999 25.3044 23.849 25.3044 24.0587C25.3044 24.0981 24.9504 24.8323 24.5178 25.6976C24.0851 26.563 23.7311 27.3234 23.7311 27.4021C23.7311 27.6119 23.9278 27.5594 25.5798 26.917C26.8122 26.445 27.1793 26.3401 27.3104 26.4712C27.4153 26.5761 27.4678 27.0481 27.4678 27.7692C27.4678 28.7132 27.4022 29.0279 27.14 29.5654C26.7204 30.4176 26.0255 31.0863 25.1602 31.4927C24.2687 31.9123 23.4689 32.0041 22.5511 31.8074Z" fill="black"/>
</g>
<defs>
<clipPath id="clip0_18_61">
<rect width="59" height="59" fill="white"/>
</clipPath>
</defs>
</svg>
