<svg width="1024" height="1024" viewBox="0 0 1024 1024" fill="none" xmlns="http://www.w3.org/2000/svg">
<g clip-path="url(#clip0_5_216)">
<path d="M444.938 56.402C486.537 32.8237 537.463 32.8237 579.062 56.402L726.72 140.095L873.029 226.124C914.248 250.361 939.71 294.463 940.09 342.278L941.439 512L940.09 681.722C939.71 729.537 914.248 773.64 873.029 797.876L726.721 883.905L579.062 967.598C537.463 991.177 486.537 991.177 444.938 967.598L297.279 883.905L150.971 797.876C109.752 773.64 84.2898 729.537 83.9097 681.722L82.5605 512L83.9097 342.278C84.2898 294.463 109.752 250.361 150.971 226.124L297.28 140.095L444.938 56.402Z" fill="#023A35" stroke="#CDCDCD" stroke-width="32"/>
<mask id="mask0_5_216" style="mask-type:alpha" maskUnits="userSpaceOnUse" x="96" y="54" width="832" height="916">
<path d="M444.938 72.3516C486.537 48.7733 537.463 48.7733 579.062 72.3516L719.782 152.112L859.216 234.099C900.435 258.335 925.898 302.438 926.278 350.253L927.563 512L926.278 673.747C925.898 721.562 900.435 765.665 859.216 789.902L719.782 871.889L579.062 951.649C537.463 975.227 486.537 975.227 444.938 951.649L304.218 871.889L164.784 789.902C123.565 765.665 98.1024 721.562 97.7223 673.747L96.4365 512L97.7223 350.253C98.1024 302.438 123.565 258.335 164.784 234.099L304.218 152.112L444.938 72.3516Z" fill="#023A35"/>
</mask>
<g mask="url(#mask0_5_216)">
<path fill-rule="evenodd" clip-rule="evenodd" d="M465.974 299.105C471.225 287.413 477.583 276.336 484.911 266.012L535.153 285.608C539.38 280.623 543.942 275.938 548.804 271.587L529.481 220.952C539.693 213.543 550.65 207.115 562.215 201.806L595.714 243.773C601.915 241.589 608.314 239.83 614.877 238.533L623.119 185.34C629.341 184.729 635.65 184.417 642.03 184.417C648.411 184.417 654.72 184.729 660.942 185.34L669.184 238.533C675.747 239.83 682.146 241.589 688.347 243.773L721.846 201.806C733.411 207.115 744.367 213.543 754.58 220.952L735.257 271.587C740.119 275.937 744.681 280.623 748.908 285.608L799.15 266.011C806.478 276.336 812.836 287.413 818.087 299.105L775.729 333.664C777.677 339.654 779.243 345.819 780.397 352.13L834.374 360.679C834.978 366.97 835.288 373.348 835.288 379.799C835.288 386.25 834.978 392.627 834.374 398.917L779.732 407.572C778.477 413.605 776.844 419.498 774.858 425.223L818.087 460.492C812.836 472.184 806.479 483.261 799.15 493.586L746.768 473.155C742.875 477.539 738.715 481.678 734.317 485.545L754.58 538.646C744.368 546.055 733.412 552.482 721.847 557.791L686.28 513.234C680.894 515.036 675.364 516.518 669.712 517.658L660.941 574.257C654.719 574.868 648.411 575.181 642.03 575.181C635.65 575.181 629.341 574.868 623.119 574.257L614.349 517.658C608.697 516.518 603.167 515.036 597.781 513.234L562.214 557.791C550.649 552.482 539.693 546.055 529.481 538.646L549.744 485.544C545.346 481.677 541.187 477.539 537.293 473.154L484.911 493.586C477.582 483.261 471.225 472.184 465.974 460.492L509.203 425.223C507.218 419.497 505.585 413.605 504.33 407.572L449.687 398.917C449.083 392.627 448.773 386.25 448.773 379.799C448.773 373.348 449.083 366.97 449.687 360.679L503.664 352.13C504.818 345.819 506.384 339.654 508.333 333.664L465.974 299.105ZM756.899 378.149C756.899 442.286 705.471 494.28 642.031 494.28C578.591 494.28 527.163 442.286 527.163 378.149C527.163 314.011 578.591 262.018 642.031 262.018C705.471 262.018 756.899 314.011 756.899 378.149Z" fill="#047D79"/>
<path fill-rule="evenodd" clip-rule="evenodd" d="M697.205 379.385C697.205 410.192 672.503 435.166 642.031 435.166C611.559 435.166 586.857 410.192 586.857 379.385C586.857 348.578 611.559 323.604 642.031 323.604C672.503 323.604 697.205 348.578 697.205 379.385ZM642.031 418.742C620.531 418.742 603.102 401.122 603.102 379.385C603.102 357.649 620.531 340.028 642.031 340.028C663.531 340.028 680.96 357.649 680.96 379.385C680.96 401.122 663.531 418.742 642.031 418.742Z" fill="#335B99"/>
<path fill-rule="evenodd" clip-rule="evenodd" d="M528.452 378.148C528.452 441.566 579.303 492.976 642.031 492.976C704.758 492.976 755.609 441.566 755.609 378.148C755.609 314.731 704.758 263.321 642.031 263.321C579.303 263.321 528.452 314.731 528.452 378.148ZM642.031 435.166C672.503 435.166 697.205 410.192 697.205 379.385C697.205 348.578 672.503 323.604 642.031 323.604C611.559 323.604 586.857 348.578 586.857 379.385C586.857 410.192 611.559 435.166 642.031 435.166Z" fill="#3D6D37"/>
<path d="M603.102 379.385C603.102 401.122 620.531 418.742 642.031 418.742C663.531 418.742 680.96 401.122 680.96 379.385C680.96 357.649 663.531 340.028 642.031 340.028C620.531 340.028 603.102 357.649 603.102 379.385Z" fill="#023E37"/>
<path fill-rule="evenodd" clip-rule="evenodd" d="M532.711 799.98C533.903 793.933 535.784 788.137 538.267 782.679L560.173 785.594C561.784 782.858 563.614 780.269 565.641 777.853L556.175 757.789C560.583 753.679 565.464 750.08 570.726 747.084L586.535 762.25C589.476 760.979 592.545 759.954 595.718 759.2L599.683 737.578C602.634 737.233 605.637 737.056 608.68 737.056C611.724 737.056 614.726 737.233 617.678 737.578L621.643 759.2C624.815 759.954 627.885 760.979 630.826 762.25L646.635 747.084C651.897 750.08 656.778 753.679 661.185 757.789L651.72 777.853C653.746 780.269 655.577 782.858 657.188 785.594L679.094 782.679C681.577 788.137 683.458 793.933 684.65 799.98L664.953 810.793C665.04 812.087 665.084 813.394 665.084 814.711C665.084 816.459 665.006 818.189 664.854 819.897L684.65 830.764C683.458 836.811 681.577 842.607 679.094 848.065L656.446 845.051C654.912 847.515 653.197 849.851 651.319 852.041L661.186 872.955C656.778 877.065 651.897 880.665 646.635 883.66L629.868 867.575C627.299 868.628 624.637 869.495 621.896 870.161L617.678 893.166C614.726 893.512 611.724 893.689 608.68 893.689C605.637 893.689 602.635 893.512 599.683 893.166L595.464 870.161C592.724 869.495 590.062 868.628 587.493 867.575L570.726 883.66C565.464 880.665 560.583 877.066 556.175 872.956L566.042 852.041C564.164 849.851 562.449 847.514 560.915 845.051L538.267 848.065C535.784 842.607 533.903 836.811 532.711 830.764L552.507 819.897C552.355 818.189 552.277 816.459 552.277 814.711C552.277 813.394 552.321 812.087 552.408 810.793L532.711 799.98ZM654.724 814.711C654.724 840.42 634.11 861.261 608.68 861.261C583.251 861.261 562.637 840.42 562.637 814.711C562.637 789.002 583.251 768.161 608.68 768.161C634.11 768.161 654.724 789.002 654.724 814.711Z" fill="#065556"/>
<path fill-rule="evenodd" clip-rule="evenodd" d="M563.154 814.711C563.154 840.131 583.537 860.738 608.68 860.738C633.824 860.738 654.207 840.131 654.207 814.711C654.207 789.291 633.824 768.683 608.68 768.683C583.537 768.683 563.154 789.291 563.154 814.711ZM608.68 837.566C620.895 837.566 630.796 827.555 630.796 815.207C630.796 802.858 620.895 792.847 608.68 792.847C596.466 792.847 586.564 802.858 586.564 815.207C586.564 827.555 596.466 837.566 608.68 837.566Z" fill="#3D6D37"/>
<path fill-rule="evenodd" clip-rule="evenodd" d="M630.796 815.207C630.796 827.555 620.895 837.566 608.68 837.566C596.466 837.566 586.564 827.555 586.564 815.207C586.564 802.858 596.466 792.847 608.68 792.847C620.895 792.847 630.796 802.858 630.796 815.207ZM608.68 830.982C600.062 830.982 593.076 823.919 593.076 815.207C593.076 806.494 600.062 799.431 608.68 799.431C617.298 799.431 624.285 806.494 624.285 815.207C624.285 823.919 617.298 830.982 608.68 830.982Z" fill="#FEE601"/>
<path d="M593.076 815.207C593.076 823.919 600.062 830.982 608.68 830.982C617.298 830.982 624.285 823.919 624.285 815.207C624.285 806.494 617.298 799.431 608.68 799.431C600.062 799.431 593.076 806.494 593.076 815.207Z" fill="white"/>
<path fill-rule="evenodd" clip-rule="evenodd" d="M656.423 648.293C659.527 641.382 663.284 634.835 667.616 628.732L697.313 640.316C699.812 637.369 702.508 634.6 705.382 632.028L693.961 602.098C699.997 597.719 706.473 593.92 713.309 590.782L733.11 615.588C736.775 614.296 740.558 613.257 744.437 612.491L749.309 581.049C752.986 580.688 756.715 580.503 760.487 580.503C764.258 580.503 767.987 580.688 771.665 581.049L776.537 612.491C780.416 613.257 784.198 614.296 787.864 615.588L807.664 590.782C814.5 593.92 820.976 597.719 827.012 602.098L815.591 632.028C818.465 634.599 821.162 637.369 823.66 640.315L853.357 628.732C857.689 634.835 861.446 641.382 864.55 648.293L839.513 668.721C840.665 672.261 841.591 675.905 842.273 679.636L874.177 684.689C874.534 688.407 874.717 692.177 874.717 695.99C874.717 699.803 874.535 703.573 874.177 707.291L841.879 712.406C841.137 715.972 840.172 719.455 838.999 722.839L864.551 743.686C861.447 750.597 857.689 757.145 853.357 763.247L822.395 751.171C820.094 753.762 817.635 756.209 815.035 758.494L827.013 789.882C820.976 794.261 814.5 798.06 807.665 801.198L786.641 774.861C783.458 775.926 780.189 776.802 776.849 777.476L771.665 810.931C767.987 811.292 764.258 811.477 760.487 811.477C756.715 811.477 752.986 811.292 749.309 810.931L744.125 777.476C740.784 776.802 737.515 775.926 734.332 774.861L713.309 801.198C706.473 798.06 699.997 794.261 693.961 789.882L705.938 758.494C703.338 756.209 700.88 753.762 698.578 751.171L667.616 763.247C663.284 757.145 659.527 750.597 656.423 743.686L681.975 722.839C680.801 719.455 679.836 715.972 679.094 712.406L646.796 707.291C646.439 703.573 646.256 699.803 646.256 695.99C646.256 692.177 646.439 688.407 646.796 684.689L678.701 679.636C679.383 675.905 680.308 672.261 681.46 668.721L656.423 648.293ZM828.383 695.014C828.383 732.925 797.985 763.657 760.487 763.657C722.989 763.657 692.59 732.925 692.59 695.014C692.59 657.104 722.989 626.372 760.487 626.372C797.985 626.372 828.383 657.104 828.383 695.014Z" fill="#075851"/>
<path fill-rule="evenodd" clip-rule="evenodd" d="M693.353 695.014C693.353 732.499 723.41 762.887 760.487 762.887C797.564 762.887 827.621 732.499 827.621 695.014C827.621 657.53 797.564 627.142 760.487 627.142C723.41 627.142 693.353 657.53 693.353 695.014ZM760.487 728.717C778.498 728.717 793.099 713.955 793.099 695.746C793.099 677.536 778.498 662.775 760.487 662.775C742.475 662.775 727.874 677.536 727.874 695.746C727.874 713.955 742.475 728.717 760.487 728.717Z" fill="#4A7AB5"/>
<path fill-rule="evenodd" clip-rule="evenodd" d="M793.099 695.746C793.099 713.955 778.498 728.717 760.487 728.717C742.475 728.717 727.874 713.955 727.874 695.746C727.874 677.536 742.475 662.775 760.487 662.775C778.498 662.775 793.099 677.536 793.099 695.746ZM760.487 719.009C747.779 719.009 737.477 708.594 737.477 695.746C737.477 682.898 747.779 672.482 760.487 672.482C773.195 672.482 783.497 682.898 783.497 695.746C783.497 708.594 773.195 719.009 760.487 719.009Z" fill="#2C5E8F"/>
<path d="M737.477 695.746C737.477 708.594 747.779 719.009 760.487 719.009C773.195 719.009 783.497 708.594 783.497 695.746C783.497 682.898 773.195 672.482 760.487 672.482C747.779 672.482 737.477 682.898 737.477 695.746Z" fill="#073936"/>
<path fill-rule="evenodd" clip-rule="evenodd" d="M538.256 642.376C540.014 633.459 542.787 624.912 546.449 616.864L578.752 621.162C581.127 617.127 583.826 613.31 586.814 609.747L572.857 580.16C579.357 574.1 586.554 568.792 594.313 564.375L617.625 586.738C621.962 584.865 626.488 583.353 631.167 582.241L637.013 550.357C641.366 549.848 645.793 549.587 650.281 549.587C654.769 549.587 659.196 549.848 663.549 550.357L669.395 582.241C674.074 583.353 678.6 584.865 682.937 586.738L706.249 564.375C714.008 568.792 721.206 574.1 727.706 580.16L713.748 609.747C716.736 613.31 719.436 617.127 721.811 621.162L754.113 616.864C757.775 624.912 760.549 633.459 762.306 642.376L733.262 658.32C733.39 660.229 733.455 662.156 733.455 664.098C733.455 666.676 733.34 669.227 733.116 671.746L762.306 687.77C760.549 696.687 757.775 705.234 754.114 713.282L720.717 708.838C718.455 712.471 715.926 715.916 713.157 719.146L727.706 749.986C721.206 756.047 714.009 761.354 706.249 765.772L681.524 742.052C677.737 743.605 673.811 744.884 669.77 745.865L663.549 779.789C659.196 780.298 654.769 780.56 650.281 780.56C645.793 780.56 641.366 780.298 637.013 779.789L630.793 745.865C626.752 744.884 622.826 743.605 619.038 742.052L594.313 765.772C586.554 761.354 579.356 756.047 572.857 749.986L587.405 719.145C584.637 715.916 582.107 712.471 579.845 708.838L546.449 713.282C542.787 705.234 540.014 696.687 538.256 687.771L567.447 671.745C567.222 669.227 567.108 666.676 567.108 664.098C567.108 662.156 567.173 660.229 567.301 658.321L538.256 642.376ZM718.178 664.098C718.178 702.008 687.779 732.741 650.281 732.741C612.783 732.741 582.385 702.008 582.385 664.098C582.385 626.187 612.783 595.455 650.281 595.455C687.779 595.455 718.178 626.187 718.178 664.098Z" fill="#62AF45"/>
<path fill-rule="evenodd" clip-rule="evenodd" d="M583.147 664.098C583.147 701.582 613.204 731.97 650.281 731.97C687.358 731.97 717.415 701.582 717.415 664.098C717.415 626.613 687.358 596.225 650.281 596.225C613.204 596.225 583.147 626.613 583.147 664.098ZM650.281 697.8C668.293 697.8 682.894 683.038 682.894 664.829C682.894 646.62 668.293 631.858 650.281 631.858C632.27 631.858 617.669 646.62 617.669 664.829C617.669 683.038 632.27 697.8 650.281 697.8Z" fill="#FEE601"/>
<path fill-rule="evenodd" clip-rule="evenodd" d="M650.281 732.741C687.779 732.741 718.178 702.008 718.178 664.098C718.178 626.187 687.779 595.455 650.281 595.455C612.783 595.455 582.385 626.187 582.385 664.098C582.385 702.008 612.783 732.741 650.281 732.741ZM650.281 731.97C613.204 731.97 583.147 701.582 583.147 664.098C583.147 626.613 613.204 596.225 650.281 596.225C687.358 596.225 717.415 626.613 717.415 664.098C717.415 701.582 687.358 731.97 650.281 731.97Z" fill="#7A94AF"/>
<path fill-rule="evenodd" clip-rule="evenodd" d="M682.894 664.829C682.894 683.038 668.293 697.8 650.281 697.8C632.27 697.8 617.669 683.038 617.669 664.829C617.669 646.62 632.27 631.858 650.281 631.858C668.293 631.858 682.894 646.62 682.894 664.829ZM650.281 688.092C637.573 688.092 627.271 677.677 627.271 664.829C627.271 651.981 637.573 641.566 650.281 641.566C662.989 641.566 673.292 651.981 673.292 664.829C673.292 677.677 662.989 688.092 650.281 688.092Z" fill="#5A6300"/>
<path d="M627.271 664.829C627.271 677.677 637.573 688.092 650.281 688.092C662.989 688.092 673.292 677.677 673.292 664.829C673.292 651.981 662.989 641.566 650.281 641.566C637.573 641.566 627.271 651.981 627.271 664.829Z" fill="#003D33"/>
<path fill-rule="evenodd" clip-rule="evenodd" d="M283.684 188.577C284.876 182.53 286.757 176.734 289.24 171.276L311.146 174.191C312.757 171.455 314.588 168.866 316.614 166.45L307.149 146.386C311.556 142.276 316.437 138.677 321.699 135.681L337.508 150.847C340.449 149.576 343.519 148.551 346.691 147.797L350.656 126.175C353.608 125.83 356.61 125.653 359.653 125.653C362.697 125.653 365.699 125.83 368.651 126.175L372.616 147.797C375.789 148.551 378.858 149.576 381.799 150.847L397.608 135.681C402.87 138.677 407.751 142.276 412.159 146.386L402.693 166.45C404.72 168.866 406.55 171.455 408.161 174.191L430.067 171.276C432.55 176.734 434.431 182.53 435.623 188.577L415.926 199.39C416.013 200.684 416.057 201.991 416.057 203.308C416.057 205.056 415.98 206.786 415.827 208.494L435.623 219.361C434.431 225.408 432.55 231.204 430.067 236.662L407.419 233.648C405.885 236.112 404.17 238.448 402.292 240.638L412.159 261.552C407.751 265.662 402.87 269.262 397.608 272.257L380.841 256.172C378.272 257.225 375.61 258.092 372.87 258.758L368.651 281.763C365.699 282.109 362.697 282.286 359.653 282.286C356.61 282.286 353.608 282.109 350.656 281.763L346.438 258.758C343.697 258.092 341.035 257.225 338.466 256.172L321.699 272.258C316.437 269.262 311.556 265.663 307.148 261.553L317.015 240.638C315.137 238.448 313.422 236.112 311.888 233.648L289.24 236.662C286.757 231.204 284.876 225.408 283.684 219.361L303.48 208.494C303.328 206.786 303.25 205.056 303.25 203.308C303.25 201.991 303.294 200.684 303.381 199.39L283.684 188.577ZM405.697 203.308C405.697 229.017 385.083 249.858 359.654 249.858C334.224 249.858 313.61 229.017 313.61 203.308C313.61 177.599 334.224 156.758 359.654 156.758C385.083 156.758 405.697 177.599 405.697 203.308Z" fill="#065556"/>
<path fill-rule="evenodd" clip-rule="evenodd" d="M314.127 203.308C314.127 228.728 334.51 249.335 359.654 249.335C384.797 249.335 405.18 228.728 405.18 203.308C405.18 177.888 384.797 157.28 359.654 157.28C334.51 157.28 314.127 177.888 314.127 203.308ZM359.654 226.163C371.868 226.163 381.769 216.152 381.769 203.804C381.769 191.455 371.868 181.444 359.654 181.444C347.439 181.444 337.538 191.455 337.538 203.804C337.538 216.152 347.439 226.163 359.654 226.163Z" fill="#3D6D37"/>
<path fill-rule="evenodd" clip-rule="evenodd" d="M381.769 203.804C381.769 216.152 371.868 226.163 359.654 226.163C347.439 226.163 337.538 216.152 337.538 203.804C337.538 191.455 347.439 181.444 359.654 181.444C371.868 181.444 381.769 191.455 381.769 203.804ZM359.654 219.579C351.036 219.579 344.049 212.516 344.049 203.804C344.049 195.091 351.036 188.028 359.654 188.028C368.271 188.028 375.258 195.091 375.258 203.804C375.258 212.516 368.271 219.579 359.654 219.579Z" fill="#FEE601"/>
<path d="M344.049 203.804C344.049 212.516 351.036 219.579 359.654 219.579C368.271 219.579 375.258 212.516 375.258 203.804C375.258 195.091 368.271 188.028 359.654 188.028C351.036 188.028 344.049 195.091 344.049 203.804Z" fill="white"/>
<path fill-rule="evenodd" clip-rule="evenodd" d="M186.184 612.429C192.799 605.17 200.324 598.771 208.574 593.416L234.092 613.923C238.857 611.597 243.875 609.717 249.093 608.337L255.588 576.118C260.374 575.5 265.254 575.181 270.207 575.181C275.16 575.181 280.039 575.5 284.826 576.118L291.32 608.337C296.539 609.717 301.557 611.597 306.322 613.923L331.839 593.416C340.09 598.771 347.614 605.17 354.23 612.429L338.518 641.708C341.458 645.978 344.016 650.537 346.143 655.333L379.27 656.221C382.128 665.48 383.864 675.239 384.318 685.336L352.997 697.821C352.521 702.842 351.607 707.734 350.296 712.459L375.654 735.155C371.856 744.346 366.917 752.935 361.015 760.74L328.439 749.732C325.094 753.049 321.473 756.082 317.614 758.793L322.698 793.266C314.12 797.761 304.906 801.189 295.228 803.375L277.104 773.495C274.83 773.684 272.529 773.78 270.207 773.78C267.884 773.78 265.584 773.684 263.31 773.495L245.185 803.375C235.508 801.189 226.294 797.761 217.715 793.266L222.8 758.793C218.941 756.082 215.32 753.049 211.974 749.732L179.399 760.74C173.497 752.935 168.557 744.346 164.759 735.155L190.118 712.458C188.807 707.734 187.893 702.842 187.417 697.821L156.096 685.336C156.55 675.239 158.286 665.48 161.144 656.221L194.271 655.333C196.397 650.537 198.956 645.978 201.896 641.708L186.184 612.429ZM338.103 689.692C338.103 727.603 307.705 758.335 270.207 758.335C232.709 758.335 202.311 727.603 202.311 689.692C202.311 651.782 232.709 621.049 270.207 621.049C307.705 621.049 338.103 651.782 338.103 689.692Z" fill="#078E8A"/>
<path fill-rule="evenodd" clip-rule="evenodd" d="M203.073 689.692C203.073 727.177 233.13 757.564 270.207 757.564C307.284 757.564 337.341 727.177 337.341 689.692C337.341 652.207 307.284 621.82 270.207 621.82C233.13 621.82 203.073 652.207 203.073 689.692ZM270.207 723.394C288.218 723.394 302.819 708.633 302.819 690.423C302.819 672.214 288.218 657.452 270.207 657.452C252.196 657.452 237.594 672.214 237.594 690.423C237.594 708.633 252.196 723.394 270.207 723.394Z" fill="#7686BC"/>
<path fill-rule="evenodd" clip-rule="evenodd" d="M302.819 690.423C302.819 708.633 288.218 723.394 270.207 723.394C252.196 723.394 237.594 708.633 237.594 690.423C237.594 672.214 252.196 657.452 270.207 657.452C288.218 657.452 302.819 672.214 302.819 690.423ZM270.207 713.687C257.499 713.687 247.197 703.271 247.197 690.423C247.197 677.575 257.499 667.16 270.207 667.16C282.915 667.16 293.217 677.575 293.217 690.423C293.217 703.271 282.915 713.687 270.207 713.687Z" fill="#3658A3"/>
<path d="M247.197 690.423C247.197 703.271 257.499 713.687 270.207 713.687C282.915 713.687 293.217 703.271 293.217 690.423C293.217 677.575 282.915 667.16 270.207 667.16C257.499 667.16 247.197 677.575 247.197 690.423Z" fill="#0C3923"/>
<path fill-rule="evenodd" clip-rule="evenodd" d="M235.664 311.304C240.582 304.297 245.885 297.586 251.541 291.201L273.329 305.694C279.881 298.479 286.954 291.755 294.487 285.581L281.911 262.7C288.623 257.477 295.637 252.63 302.921 248.191L319.287 268.254C327.666 263.311 336.44 258.977 345.548 255.311L340.261 229.981C348.162 227.009 356.275 224.475 364.57 222.409L374.283 246.269C383.697 244.094 393.368 242.603 403.242 241.848L405.562 216.209C409.773 215.97 414.015 215.849 418.285 215.849C422.555 215.849 426.798 215.97 431.009 216.209L433.329 241.848C443.203 242.603 452.874 244.094 462.288 246.269L472.001 222.409C480.296 224.475 488.408 227.009 496.31 229.981L491.023 255.311C500.131 258.977 508.905 263.311 517.284 268.254L533.65 248.191C540.934 252.63 547.948 257.477 554.66 262.7L542.084 285.581C549.617 291.755 556.69 298.479 563.242 305.694L585.029 291.201C590.686 297.586 595.989 304.297 600.907 311.304L581.919 329.712C587.251 337.769 592.016 346.241 596.157 355.071L621.664 347.579C625.194 355.331 628.304 363.32 630.963 371.515L606.978 383.687C609.656 392.845 611.7 402.277 613.058 411.933L640.154 412.383C641.246 420.798 641.88 429.358 642.031 438.038L615.012 442.615C614.897 452.305 614.096 461.827 612.657 471.136L638.968 479.822C637.551 488.353 635.662 496.722 633.329 504.901L605.612 501.147C602.725 510.22 599.211 519.008 595.122 527.46L618.173 543.916C614.337 551.598 610.08 559.03 605.433 566.179L579.572 554.113C574.243 561.809 568.389 569.107 562.062 575.952L579.576 598.919C573.693 605.101 567.466 610.946 560.926 616.422L539.431 596.913C532.189 602.642 524.54 607.87 516.534 612.544L526.701 640.055C519.311 644.201 511.664 647.936 503.79 651.229L488.789 625.93C480.282 629.232 471.49 631.955 462.462 634.049L464.168 663.572C455.938 665.305 447.541 666.582 439.006 667.375L432.018 638.606C427.481 638.922 422.902 639.083 418.285 639.083C413.669 639.083 409.09 638.922 404.553 638.606L397.564 667.375C389.029 666.582 380.633 665.305 372.402 663.572L374.109 634.049C365.08 631.955 356.289 629.232 347.782 625.93L332.781 651.229C324.907 647.936 317.26 644.201 309.87 640.055L320.037 612.544C312.031 607.87 304.382 602.642 297.14 596.913L275.645 616.422C269.104 610.946 262.877 605.101 256.995 598.919L274.509 575.952C268.182 569.107 262.328 561.809 256.999 554.113L231.138 566.179C226.491 559.03 222.234 551.599 218.397 543.916L241.449 527.46C237.36 519.008 233.846 510.22 230.959 501.147L203.242 504.901C200.909 496.722 199.02 488.353 197.603 479.822L223.914 471.136C222.475 461.827 221.674 452.305 221.559 442.615L194.54 438.038C194.691 429.358 195.325 420.798 196.417 412.383L223.513 411.933C224.871 402.277 226.915 392.845 229.593 383.687L205.608 371.515C208.267 363.32 211.377 355.331 214.907 347.579L240.413 355.071C244.554 346.241 249.32 337.769 254.652 329.712L235.664 311.304ZM418.285 581.876C340.88 581.876 278.13 518.436 278.13 440.179C278.13 361.922 340.88 298.482 418.285 298.482C495.691 298.482 558.441 361.922 558.441 440.179C558.441 518.436 495.691 581.876 418.285 581.876Z" fill="#5CB147"/>
<path fill-rule="evenodd" clip-rule="evenodd" d="M278.13 440.179C278.13 518.436 340.88 581.876 418.285 581.876C495.691 581.876 558.441 518.436 558.441 440.179C558.441 361.922 495.691 298.482 418.285 298.482C340.88 298.482 278.13 361.922 278.13 440.179ZM538.988 440.179C538.988 507.574 484.948 562.209 418.286 562.209C351.624 562.209 297.584 507.574 297.584 440.179C297.584 372.784 351.624 318.15 418.286 318.15C484.948 318.15 538.988 372.784 538.988 440.179Z" fill="white"/>
<path fill-rule="evenodd" clip-rule="evenodd" d="M418.286 562.209C484.948 562.209 538.988 507.574 538.988 440.179C538.988 372.784 484.948 318.15 418.286 318.15C351.624 318.15 297.584 372.784 297.584 440.179C297.584 507.574 351.624 562.209 418.286 562.209ZM418.285 527.798C465.367 527.798 503.535 489.211 503.535 441.612C503.535 394.012 465.367 355.425 418.285 355.425C371.203 355.425 333.036 394.012 333.036 441.612C333.036 489.211 371.203 527.798 418.285 527.798Z" fill="#69B145"/>
<path d="M349.554 441.612C349.554 479.988 380.326 511.099 418.285 511.099C456.244 511.099 487.016 479.988 487.016 441.612C487.016 403.235 456.244 372.125 418.285 372.125C380.326 372.125 349.554 403.235 349.554 441.612Z" fill="#073A32"/>
<path fill-rule="evenodd" clip-rule="evenodd" d="M503.535 441.612C503.535 489.211 465.367 527.798 418.285 527.798C371.203 527.798 333.036 489.211 333.036 441.612C333.036 394.012 371.203 355.425 418.285 355.425C465.367 355.425 503.535 394.012 503.535 441.612ZM418.285 511.099C380.326 511.099 349.554 479.988 349.554 441.612C349.554 403.235 380.326 372.125 418.285 372.125C456.244 372.125 487.016 403.235 487.016 441.612C487.016 479.988 456.244 511.099 418.285 511.099Z" fill="#F0DA87"/>
<path fill-rule="evenodd" clip-rule="evenodd" d="M334.471 726.307C337.391 722.147 340.539 718.163 343.897 714.373L356.831 722.977C360.721 718.693 364.92 714.701 369.392 711.036L361.927 697.453C365.911 694.352 370.075 691.475 374.399 688.839L384.115 700.75C389.09 697.816 394.298 695.243 399.705 693.066L396.566 678.029C401.257 676.265 406.073 674.76 410.998 673.534L416.764 687.699C422.353 686.408 428.094 685.522 433.956 685.074L435.333 669.853C437.833 669.712 440.351 669.64 442.886 669.64C445.421 669.64 447.939 669.712 450.44 669.853L451.817 685.074C457.679 685.522 463.42 686.408 469.009 687.699L474.775 673.534C479.699 674.761 484.515 676.265 489.206 678.029L486.068 693.067C491.475 695.243 496.683 697.816 501.657 700.751L511.373 688.84C515.698 691.475 519.861 694.353 523.846 697.453L516.38 711.037C520.852 714.702 525.051 718.694 528.941 722.977L541.875 714.373C545.233 718.164 548.381 722.148 551.301 726.308L540.028 737.236C543.194 742.019 546.023 747.048 548.481 752.29L563.623 747.842C565.719 752.445 567.565 757.187 569.143 762.052L554.905 769.279C556.494 774.715 557.708 780.314 558.514 786.047L574.6 786.314C575.248 791.309 575.624 796.391 575.714 801.544L559.674 804.261C559.605 810.013 559.13 815.667 558.276 821.193L573.895 826.349C573.054 831.414 571.933 836.382 570.548 841.237L554.093 839.009C552.38 844.395 550.294 849.612 547.866 854.629L561.551 864.399C559.273 868.96 556.746 873.371 553.987 877.615L538.635 870.452C535.471 875.021 531.996 879.353 528.24 883.417L538.637 897.052C535.145 900.722 531.448 904.192 527.566 907.442L514.805 895.861C510.506 899.262 505.965 902.366 501.212 905.14L507.248 921.472C502.861 923.933 498.321 926.151 493.647 928.106L484.741 913.087C479.691 915.048 474.472 916.664 469.112 917.907L470.125 935.433C465.239 936.463 460.254 937.221 455.187 937.691L451.039 920.612C448.345 920.8 445.626 920.896 442.886 920.896C440.145 920.896 437.427 920.8 434.734 920.613L430.585 937.691C425.518 937.221 420.534 936.463 415.648 935.434L416.661 917.907C411.301 916.664 406.082 915.048 401.031 913.088L392.126 928.107C387.452 926.151 382.912 923.934 378.524 921.473L384.56 905.141C379.808 902.366 375.266 899.263 370.967 895.861L358.206 907.443C354.324 904.192 350.627 900.723 347.135 897.053L357.532 883.418C353.776 879.354 350.3 875.022 347.137 870.453L331.784 877.616C329.026 873.372 326.498 868.96 324.221 864.4L337.905 854.63C335.478 849.613 333.392 844.395 331.678 839.009L315.223 841.238C313.838 836.382 312.717 831.414 311.876 826.35L327.495 821.193C326.641 815.667 326.166 810.013 326.098 804.261L310.058 801.544C310.147 796.391 310.524 791.309 311.172 786.314L327.258 786.047C328.064 780.314 329.277 774.714 330.867 769.278L316.628 762.052C318.207 757.187 320.053 752.444 322.149 747.842L337.291 752.29C339.749 747.048 342.578 742.018 345.744 737.235L334.471 726.307ZM442.886 886.934C396.933 886.934 359.681 849.273 359.681 802.815C359.681 756.357 396.933 718.696 442.886 718.696C488.838 718.696 526.09 756.357 526.09 802.815C526.09 849.273 488.838 886.934 442.886 886.934Z" fill="#498C43"/>
<path fill-rule="evenodd" clip-rule="evenodd" d="M359.681 802.815C359.681 849.273 396.933 886.934 442.886 886.934C488.838 886.934 526.09 849.273 526.09 802.815C526.09 756.357 488.838 718.696 442.886 718.696C396.933 718.696 359.681 756.357 359.681 802.815ZM514.541 802.815C514.541 842.824 482.46 875.259 442.886 875.259C403.311 875.259 371.23 842.824 371.23 802.815C371.23 762.806 403.311 730.371 442.886 730.371C482.46 730.371 514.541 762.806 514.541 802.815Z" fill="white"/>
<path fill-rule="evenodd" clip-rule="evenodd" d="M442.886 875.259C482.46 875.259 514.541 842.824 514.541 802.815C514.541 762.806 482.46 730.371 442.886 730.371C403.311 730.371 371.23 762.806 371.23 802.815C371.23 842.824 403.311 875.259 442.886 875.259ZM442.885 854.831C470.836 854.831 493.494 831.923 493.494 803.665C493.494 775.408 470.836 752.5 442.885 752.5C414.935 752.5 392.277 775.408 392.277 803.665C392.277 831.923 414.935 854.831 442.885 854.831Z" fill="#067B78"/>
<path fill-rule="evenodd" clip-rule="evenodd" d="M493.494 803.665C493.494 831.923 470.836 854.831 442.885 854.831C414.935 854.831 392.277 831.923 392.277 803.665C392.277 775.408 414.935 752.5 442.885 752.5C470.836 752.5 493.494 775.408 493.494 803.665ZM442.885 844.917C420.351 844.917 402.083 826.448 402.083 803.665C402.083 780.883 420.351 762.414 442.885 762.414C465.42 762.414 483.688 780.883 483.688 803.665C483.688 826.448 465.42 844.917 442.885 844.917Z" fill="#FEE601"/>
<path d="M402.083 803.665C402.083 826.448 420.351 844.917 442.885 844.917C465.42 844.917 483.688 826.448 483.688 803.665C483.688 780.883 465.42 762.414 442.885 762.414C420.351 762.414 402.083 780.883 402.083 803.665Z" fill="#A3BDDF"/>
</g>
</g>
<defs>
<clipPath id="clip0_5_216">
<rect width="1024" height="1024" fill="white"/>
</clipPath>
</defs>
</svg>
