<svg width="854" height="854" viewBox="0 0 854 854" fill="none" xmlns="http://www.w3.org/2000/svg">
<circle cx="427" cy="427" r="409.5" fill="black" stroke="white" stroke-width="35"/>
<path d="M653.9 198.744C650.3 201.844 650.1 206.944 653.6 209.544C657.8 212.744 663.5 211.244 665.5 206.444C666.9 203.144 665.8 200.444 662.3 198.044C659.2 195.844 657.1 196.044 653.9 198.744Z" fill="url(#paint0_linear_208_16)"/>
<path d="M676.7 198.144C674.9 198.844 672.3 204.244 673.1 205.744C676.6 211.844 681.3 212.944 685.7 208.744C689 205.544 689.2 203.644 686.4 200.044C684.4 197.544 680.3 196.644 676.7 198.144Z" fill="url(#paint1_linear_208_16)"/>
<path d="M584.6 202.044C582 205.344 582 205.944 584.5 208.444C587.5 211.444 592.1 211.044 593.8 207.644C595.4 204.644 595 202.544 592.7 200.644C590.2 198.644 586.8 199.244 584.6 202.044Z" fill="url(#paint2_linear_208_16)"/>
<path d="M606.2 201.244C604 203.644 604.1 206.744 606.3 208.744C610.1 212.244 616.5 209.944 616.5 205.044C616.5 200.144 609.5 197.544 606.2 201.244Z" fill="url(#paint3_linear_208_16)"/>
<path d="M627.1 201.644C625.1 204.544 625.1 206.844 627.1 208.844C630.3 212.144 637.5 209.644 637.5 205.344C637.5 202.444 634.4 199.444 631.5 199.444C629.7 199.444 628.1 200.244 627.1 201.644Z" fill="url(#paint4_linear_208_16)"/>
<path d="M349.5 245.944C349.5 247.344 350 248.444 350.5 248.444C351.1 248.444 351.5 248.944 351.5 249.544C351.5 250.144 350.6 250.344 349.4 249.944C347.9 249.444 347.5 249.544 347.9 250.344C348.3 250.944 349.5 251.444 350.6 251.444C352.1 251.444 352.5 250.744 352.5 248.044C352.5 245.944 351.9 244.444 351 244.044C349.9 243.644 349.5 244.144 349.5 245.944Z" fill="url(#paint5_linear_208_16)"/>
<path d="M663.3 557.544C660.9 558.844 661 563.144 663.4 564.444C666.4 566.044 736 565.844 737.2 564.144C739.1 561.744 739.4 559.444 737.9 557.944C736.6 556.644 731.4 556.444 700.7 556.444C678.3 556.444 664.3 556.844 663.3 557.544Z" fill="url(#paint6_linear_208_16)"/>
<path d="M403.5 261.944C406.7 263.644 408.6 268.444 407.8 272.844C407.1 276.244 402.1 280.444 398.7 280.444C396.6 280.444 393.6 282.844 385.5 290.944L375 301.444L374 336.944L370.4 338.644C367.7 340.044 366.2 340.244 363.6 339.444C356.7 337.444 356.5 336.944 356.5 318.544C356.5 304.744 356.8 301.444 358.2 299.444C359.1 298.044 366.2 290.444 374 282.444C381.8 274.444 388.8 267.044 389.6 265.844C393.2 260.744 398.3 259.244 403.5 261.944Z" fill="url(#paint7_linear_208_16)"/>
<path d="M407.5 312.444C407.5 334.344 407.4 335.444 405.4 337.344C403.1 339.544 399.6 340.344 396.1 339.744C394.7 339.444 392.7 338.344 391.6 337.344C389.7 335.544 389.5 334.244 389.5 321.544V307.744L392.9 303.344C395.6 299.744 406.2 289.544 407.3 289.444C407.4 289.444 407.5 299.744 407.5 312.444Z" fill="url(#paint8_linear_208_16)"/>
<path d="M436.4 295.944C438 296.744 439.5 298.444 439.9 299.644C440.2 300.944 440.5 309.444 440.5 318.644V335.344L437.9 337.344C436.3 338.644 433.8 339.444 431.5 339.444C429.2 339.444 426.7 338.644 425.1 337.344L422.5 335.344V318.644C422.5 300.744 423.1 297.944 427.5 295.744C430.8 294.044 433 294.144 436.4 295.944Z" fill="url(#paint9_linear_208_16)"/>
<path d="M468.6 301.744L473.5 307.544V321.444C473.5 333.044 473.2 335.544 471.8 336.944C467.9 340.944 462 341.044 457.8 337.144C455.5 335.144 455.5 334.744 455.5 311.544V288.044L459.6 291.944C461.9 294.144 465.9 298.544 468.6 301.744Z" fill="url(#paint10_linear_208_16)"/>
<path d="M467.3 261.044C468.6 261.444 471.1 263.844 472.8 266.444C474.6 269.044 481.7 277.144 488.7 284.544C508 304.844 507 302.744 507 320.744V335.744L504.2 337.844C500.4 340.644 494.2 340.444 490.9 337.444C488.6 335.144 488.5 334.744 488.5 319.744C488.5 310.144 488.1 303.444 487.4 302.144C486.7 300.944 481.9 295.644 476.6 290.344C468.6 282.344 466.4 280.644 463.1 280.144C457.7 279.244 454.3 275.744 454.3 271.044C454.3 263.544 460 259.144 467.3 261.044Z" fill="url(#paint11_linear_208_16)"/>
<path d="M435.6 261.444C438.2 262.944 440.5 267.644 440.5 271.844C440.5 278.644 432.3 282.444 425.4 278.944C419.7 275.944 419.9 266.044 425.7 262.444C429.4 260.244 432.6 259.944 435.6 261.444Z" fill="url(#paint12_linear_208_16)"/>
<path fill-rule="evenodd" clip-rule="evenodd" d="M353.2 242.844C353.5 243.044 353.8 247.944 353.7 250.044C353.5 252.544 350.6 253.644 348.1 252.244C346.5 251.344 345.7 243.544 347.1 242.144C347.6 241.644 352.2 242.144 353.2 242.844ZM350.5 248.444C350 248.444 349.5 247.344 349.5 245.944C349.5 244.144 349.9 243.644 351 244.044C351.9 244.444 352.5 245.944 352.5 248.044C352.5 250.744 352.1 251.444 350.6 251.444C349.5 251.444 348.3 250.944 347.9 250.344C347.5 249.544 347.9 249.444 349.4 249.944C350.6 250.344 351.5 250.144 351.5 249.544C351.5 248.944 351.1 248.444 350.5 248.444Z" fill="url(#paint13_linear_208_16)"/>
<path d="M516 243.544C518.3 245.744 518.6 251.444 516.5 253.944C512.8 258.344 505.9 257.744 503.6 252.844C502.1 249.544 502.2 247.944 504 244.444C506.2 240.144 512 239.644 516 243.544Z" fill="url(#paint14_linear_208_16)"/>
<path d="M537.4 244.044C540.5 247.944 540.1 251.744 536.4 254.844C532.4 258.244 530 258.144 526.4 254.544C523.1 251.244 522.6 247.144 525.1 243.644C527.4 240.244 534.6 240.544 537.4 244.044Z" fill="url(#paint15_linear_208_16)"/>
<path d="M536.5 275.444C536.5 279.644 536.2 280.444 534.7 280.444C529.8 280.444 527.2 272.044 531.8 271.144C536.4 270.244 536.5 270.244 536.5 275.444Z" fill="url(#paint16_linear_208_16)"/>
<path d="M383.5 73.1443C384.9 74.0443 392.5 81.1442 400.5 88.9442C408.5 96.7442 415.9 103.744 417.1 104.544C420 106.544 422.5 110.544 422.5 113.244C422.5 122.444 411 126.344 405 119.244C403.6 117.644 402.5 115.044 402.5 113.644C402.5 111.544 400.1 108.544 392 100.444L381.5 89.9442L346 88.9442L344.3 85.3442C342.9 82.6442 342.7 81.1443 343.5 78.5443C345.5 71.6443 346 71.4443 364.4 71.4443C378.2 71.4443 381.5 71.7443 383.5 73.1443Z" fill="url(#paint17_linear_208_16)"/>
<path d="M321.5 85.9442C321.5 89.6442 321.1 91.4442 320.3 91.4442C318.3 91.4442 310.5 88.0442 310.5 87.2442C310.5 86.1442 318.6 80.4443 320.2 80.4443C321.1 80.4443 321.5 81.9442 321.5 85.9442Z" fill="url(#paint18_linear_208_16)"/>
<path d="M443 69.7443C446.7 75.0443 443.1 81.4443 436.6 81.4443C432.2 81.4443 429.5 79.0443 429.5 75.0443C429.5 70.8443 431.9 67.6443 435.3 67.2443C439.3 66.7443 441.4 67.4443 443 69.7443Z" fill="url(#paint19_linear_208_16)"/>
<path d="M463.2 68.2443C465.5 69.7443 466.6 74.4443 465.3 77.2443C464.2 79.4443 463.2 80.0443 459.7 80.2443C457.3 80.4443 454.7 80.0443 453.9 79.3443C452 77.7443 452.1 70.9443 454.1 69.0443C455.7 67.3443 461.1 66.9443 463.2 68.2443Z" fill="url(#paint20_linear_208_16)"/>
<path d="M380.2 108.344C382.8 110.444 386.3 113.644 387.9 115.544C389.5 117.444 391.5 119.744 392.3 120.644C393.7 122.344 392.6 122.444 370.7 122.444C348.6 122.444 347.5 122.344 345.6 120.344C343.4 118.044 342.6 114.544 343.2 111.044C343.5 109.644 344.6 107.644 345.6 106.544C347.4 104.644 348.7 104.444 361.4 104.444H375.3L380.2 108.344Z" fill="url(#paint21_linear_208_16)"/>
<path d="M385.3 139.844C389.7 143.744 388.8 152.644 383.8 154.544C382.5 155.044 373.8 155.444 364.5 155.444H347.6L345.6 152.844C342.8 149.344 342.9 143.544 345.6 140.044L347.7 137.344L365.5 137.644C381.2 137.944 383.5 138.144 385.3 139.844Z" fill="url(#paint22_linear_208_16)"/>
<path d="M419.8 139.544C425.6 146.644 421 155.444 411.3 155.444C404.3 155.444 400.4 147.344 404 140.444C406.7 135.244 415.8 134.744 419.8 139.544Z" fill="url(#paint23_linear_208_16)"/>
<path d="M391 174.544C388.8 176.844 384.4 180.844 381.2 183.544L375.4 188.444H361.5C349.9 188.444 347.4 188.144 346 186.744C342 182.844 341.9 176.944 345.8 172.644C347.8 170.444 348.2 170.444 371.4 170.444H394.9L391 174.544Z" fill="url(#paint24_linear_208_16)"/>
<path d="M419.2 171.644C421.5 173.544 422.7 177.544 422 181.144C421.6 183.644 420.2 185.244 416.6 187.744C414 189.444 405.8 196.644 398.4 203.644C378.1 222.944 380.2 221.944 362.2 221.944H347.2L345.1 219.144C342.3 215.344 342.5 209.144 345.5 205.844C347.8 203.544 348.2 203.444 363.2 203.444C372.8 203.444 379.5 203.044 380.8 202.344C382 201.644 387.3 196.844 392.6 191.544C400.6 183.544 402.3 181.244 402.8 178.044C403.5 173.644 406.7 169.744 409.9 169.244C412.6 168.744 417.2 169.944 419.2 171.644Z" fill="url(#paint25_linear_208_16)"/>
<path d="M537.5 220.044C537.5 222.744 537.1 223.444 535.6 223.444C532.6 223.444 527.5 222.244 527.5 221.544C527.5 220.444 535.7 215.444 536.6 216.044C537.1 216.344 537.5 218.144 537.5 220.044Z" fill="url(#paint26_linear_208_16)"/>
<path d="M493.2 219.144C497.2 221.444 497.5 221.844 495.8 222.544C494.7 222.944 492.5 223.444 490.9 223.644C488.2 223.944 488 223.644 487.7 220.144C487.5 218.144 487.7 216.444 488 216.444C488.4 216.444 490.7 217.644 493.2 219.144Z" fill="url(#paint27_linear_208_16)"/>
<path d="M597.5 157.944C597.5 166.444 597 166.844 588.4 166.244L584 165.944L583.5 158.644C583.2 154.544 583.2 151.044 583.4 150.844C583.6 150.644 586.9 150.444 590.7 150.444H597.5V157.944Z" fill="url(#paint28_linear_208_16)"/>
<path d="M583.8 142.544L583.1 138.744C582.8 136.644 582.5 133.044 582.5 130.644V126.444H597.6L597 141.944L583.8 142.544Z" fill="url(#paint29_linear_208_16)"/>
<path d="M595.7 105.544C598 106.744 599 111.044 597.9 114.344C596.7 117.644 593.2 119.444 587.8 119.444H583.5V112.044C583.5 105.144 583.7 104.544 585.8 104.144C588.4 103.644 593.3 104.344 595.7 105.544Z" fill="url(#paint30_linear_208_16)"/>
<path d="M620.7 132.144C620.7 135.344 620.8 138.844 620.9 139.944C621 141.744 620.3 141.944 613.7 142.244L606.5 142.544V126.444H620.5L620.7 132.144Z" fill="url(#paint31_linear_208_16)"/>
<path d="M620.5 157.944C620.5 166.244 621.2 165.644 612 165.644H607L606.4 150.444H620.5V157.944Z" fill="url(#paint32_linear_208_16)"/>
<path d="M643.5 133.844C643.5 142.244 643.3 142.444 634.3 142.444H629.5V126.444H643.5V133.844Z" fill="url(#paint33_linear_208_16)"/>
<path d="M662.6 152.344C664.3 153.644 664.9 155.244 664.9 157.944C664.9 162.944 661 166.444 655.6 166.444C651.9 166.444 651.7 166.244 651.1 162.644C650.3 157.744 650.3 151.944 651.2 151.144C652.6 149.644 660.3 150.444 662.6 152.344Z" fill="url(#paint34_linear_208_16)"/>
<path fill-rule="evenodd" clip-rule="evenodd" d="M702.5 191.744C707.8 195.244 709.8 199.644 710.3 208.544L710.8 216.444L669.4 216.544C628.7 216.644 614.7 216.644 581.3 216.544L564.5 216.444V208.644C564.5 199.144 566.4 194.844 572 191.744L576 189.444H699.2L702.5 191.744ZM653.6 209.544C650.1 206.944 650.3 201.844 653.9 198.744C657.1 196.044 659.2 195.844 662.3 198.044C665.8 200.444 666.9 203.144 665.5 206.444C663.5 211.244 657.8 212.744 653.6 209.544ZM673.1 205.744C672.3 204.244 674.9 198.844 676.7 198.144C680.3 196.644 684.4 197.544 686.4 200.044C689.2 203.644 689 205.544 685.7 208.744C681.3 212.944 676.6 211.844 673.1 205.744ZM584.5 208.444C582 205.944 582 205.344 584.6 202.044C586.8 199.244 590.2 198.644 592.7 200.644C595 202.544 595.4 204.644 593.8 207.644C592.1 211.044 587.5 211.444 584.5 208.444ZM606.3 208.744C604.1 206.744 604 203.644 606.2 201.244C609.5 197.544 616.5 200.144 616.5 205.044C616.5 209.944 610.1 212.244 606.3 208.744ZM627.1 208.844C625.1 206.844 625.1 204.544 627.1 201.644C628.1 200.244 629.7 199.444 631.5 199.444C634.4 199.444 637.5 202.444 637.5 205.344C637.5 209.644 630.3 212.144 627.1 208.844Z" fill="url(#paint35_linear_208_16)"/>
<path d="M709.8 236.644C710 237.344 710 251.644 709.7 268.444C709.2 301.844 709 302.944 703.3 306.444C700.1 308.344 692.8 310.044 691.8 309.044C691.5 308.744 693.5 306.344 696.2 303.644C699.2 300.644 701.5 297.244 702.3 294.644C703.6 290.344 704.2 243.844 703 242.644C702.4 242.044 694.6 249.844 688 257.644C685.3 260.844 685.1 261.644 685.8 264.644C689 276.844 680.8 287.944 667.6 289.244C662.8 289.644 656.5 287.344 652.2 283.644C651.3 282.844 650.4 282.344 650.2 282.544C650.1 282.744 649 284.344 647.7 286.144C646.5 287.944 645.5 289.844 645.5 290.444C645.5 290.944 645.1 291.444 644.5 291.444C644 291.444 643.5 291.844 643.5 292.344C643.5 292.844 641.3 296.844 638.7 301.144L633.9 308.944L604.4 309.244C562 309.544 564.5 312.244 564.5 266.744V235.444H636.9C693.9 235.444 709.4 235.744 709.8 236.644Z" fill="url(#paint36_linear_208_16)"/>
<path d="M739.6 233.144C750.3 244.544 757.6 258.644 759.6 271.544C760.3 275.644 761.4 280.344 762.1 282.044C763.7 285.744 762.9 292.444 760.7 294.144C758.4 296.044 735.1 295.944 733.6 294.044C733 293.344 732.2 290.644 731.9 288.144C731 281.944 732.3 280.444 738.8 280.444H743.8L743.2 275.144C742.3 267.744 739.1 259.144 734.5 251.444C730.7 245.144 730.5 244.444 730.5 236.344C730.5 231.644 730.8 227.444 731.1 227.144C732.2 226.144 734.8 227.944 739.6 233.144Z" fill="url(#paint37_linear_208_16)"/>
<path d="M762 311.944C764.8 313.144 764.3 313.244 755 313.344C745.8 313.344 745.2 313.244 747.5 311.944C750.7 310.144 758.1 310.144 762 311.944Z" fill="url(#paint38_linear_208_16)"/>
<path d="M202.9 549.144C203.6 550.944 196.5 558.944 193.2 560.044C191.9 560.444 191.4 561.444 191.6 563.244C192 566.844 190.8 568.644 185.8 571.844L181.6 574.644L177.8 571.544L174 568.544L167.4 570.644C160.9 572.844 160.7 572.944 159.4 577.444L158 581.944H142.1L141 577.944C140 574.644 139.1 573.544 135.2 571.744C127.7 568.144 126.2 568.044 122.8 570.844C121.1 572.244 119.2 573.444 118.5 573.444C117.9 573.444 115.3 572.044 112.8 570.344C109.2 567.844 108.4 566.744 108.8 564.844C109.1 562.944 108.1 561.444 103.4 557.444C98 552.744 96.4 549.844 98.2 548.144C98.5 547.744 122.1 547.444 150.6 547.444C198 547.444 202.3 547.544 202.9 549.144Z" fill="url(#paint39_linear_208_16)"/>
<path d="M118.9 596.944C122.9 600.644 122.1 606.544 117.4 609.044C109.6 613.044 102.7 603.144 109 596.944C112.1 593.744 115.5 593.744 118.9 596.944Z" fill="url(#paint40_linear_208_16)"/>
<path d="M254.3 556.044C256.4 558.444 256.5 559.244 256.5 578.544C256.5 598.444 256.5 598.544 254 600.944C251 604.044 246.3 604.244 243.5 601.444C241.2 599.144 240.6 596.944 240.3 589.444C240 583.944 240 583.944 237 584.244C232.2 584.744 225.9 588.244 222.1 592.444C219.6 595.244 217.8 598.844 215.9 605.144C211.5 619.644 207.8 625.044 199.1 629.744C194.9 631.944 191.4 632.144 150.3 632.444C148.7 632.444 147.5 632.944 147.5 633.544C147.5 634.144 153.4 640.744 160.5 648.244C167.7 655.744 173.5 662.544 173.5 663.344C173.5 664.944 172.6 665.644 162.6 672.544C154 678.444 153.5 678.244 153.5 667.944V660.944L145 652.744C135.1 642.944 134.1 640.744 134.6 627.544C134.9 619.744 135.3 618.044 136.9 616.844C138.5 615.744 143.4 615.444 160.4 615.444C172.3 615.444 183.8 614.944 185.9 614.444C191.7 613.144 194.9 609.144 199 598.444C206 579.944 217 570.544 234.6 567.844C239.6 567.044 240.5 566.144 240.5 561.944C240.5 556.444 245.4 551.944 250 553.144C251.1 553.344 253 554.744 254.3 556.044Z" fill="url(#paint41_linear_208_16)"/>
<path d="M292.3 566.044C295.3 567.244 295.5 567.644 295.5 572.244C295.5 576.344 295 577.744 292 581.144C290.1 583.444 288.5 585.444 288.5 585.744C288.5 585.944 290.3 587.344 292.5 588.844C294.7 590.244 296.5 591.944 296.5 592.544C296.5 593.144 294.7 594.344 292.5 595.144C290.3 596.044 288.5 597.444 288.5 598.244C288.5 599.044 289.9 601.344 291.6 603.544C293.2 605.644 294.9 608.844 295.2 610.744C295.8 614.744 293.6 616.644 286.1 618.244L281.3 619.244L279.8 615.644C278.4 612.244 278.4 611.944 280.4 610.344C283.3 607.944 283.1 606.544 278.4 600.344C274 594.544 271.5 590.144 271.5 588.444C271.5 587.944 274 584.744 277 581.444L282.5 575.444L280.4 572.544C278.6 570.044 278.5 569.344 279.6 567.344C280.2 566.044 281.3 564.644 281.9 564.244C283.2 563.344 287.6 564.144 292.3 566.044Z" fill="url(#paint42_linear_208_16)"/>
<path d="M312.4 559.544C313.7 561.844 313.5 562.744 311 569.244C309.5 573.144 307.7 576.544 307 576.844C306.2 577.144 304.4 574.344 302.1 569.544C298.1 560.944 298.2 558.144 302.6 555.044C304.7 553.644 305.1 553.644 307.9 555.244C309.6 556.244 311.6 558.144 312.4 559.544Z" fill="url(#paint43_linear_208_16)"/>
<path d="M309.4 609.744C312.4 615.744 312.6 621.544 310.1 624.344C305.8 629.044 298.8 624.444 299.8 617.444C300.4 612.744 304.5 604.244 305.9 604.744C306.5 604.844 308.1 607.144 309.4 609.744Z" fill="url(#paint44_linear_208_16)"/>
<path d="M332.1 566.344C333.4 568.744 332.2 573.444 330.3 573.444C328.3 573.444 330 575.844 336.2 581.844C342.7 588.244 342.8 588.444 341.5 591.044C340.7 592.544 338.4 595.544 336.4 597.844C334.5 600.044 332 603.444 330.9 605.244C329.1 608.444 329.1 608.644 330.8 609.544C333 610.844 333.2 618.244 331.1 619.044C328.8 619.944 319.1 616.744 317.1 614.544C314.7 611.944 315.5 609.044 320 603.144C324.1 597.744 324.3 596.644 321.1 595.844C319.7 595.544 317.9 594.444 317 593.444C315.4 591.644 315.5 591.444 319.4 588.844C321.7 587.444 323.5 585.744 323.5 585.244C323.5 584.744 322.4 582.844 321.1 581.144C318.3 577.444 316.4 571.344 317.2 568.544C317.5 567.144 319.3 566.044 322.4 565.044C328.5 563.144 330.7 563.444 332.1 566.344Z" fill="url(#paint45_linear_208_16)"/>
<path d="M373.3 543.744C375.4 545.744 375.5 546.544 375.5 561.144C375.5 570.744 375.9 577.444 376.6 578.744C377.3 579.944 382.1 585.244 387.4 590.544C395.4 598.544 397.6 600.244 400.9 600.744C406.3 601.644 409.7 605.144 409.7 609.844C409.7 616.744 404.5 621.244 397.8 619.944C395.3 619.544 393.7 618.144 391.2 614.544C389.5 611.944 382.3 603.744 375.3 596.344C356.1 576.244 357.1 578.044 356.7 560.744C356.3 545.044 356.6 544.244 362 541.844C365.7 540.244 370.3 540.944 373.3 543.744Z" fill="url(#paint46_linear_208_16)"/>
<path d="M406.3 543.744C408.5 545.744 408.5 546.244 408.5 569.344V592.844L404.4 588.944C402.1 586.744 398.1 582.344 395.4 579.144L390.5 573.344V559.644C390.5 552.144 390.9 545.444 391.3 544.744C391.7 544.144 393.4 542.844 395 542.044C398.6 540.144 403.1 540.844 406.3 543.744Z" fill="url(#paint47_linear_208_16)"/>
<path d="M438.9 543.544L441.6 545.644L441.3 563.444C441 579.144 440.8 581.444 439.1 583.244C435.2 587.644 426.3 586.744 424.4 581.744C423.9 580.444 423.5 571.744 423.5 562.444V545.544L426.1 543.544C429.6 540.744 435.4 540.844 438.9 543.544Z" fill="url(#paint48_linear_208_16)"/>
<path d="M438.5 601.944C443.7 604.644 444.2 613.744 439.4 617.744C432.3 623.544 423.5 618.944 423.5 609.244C423.5 602.244 431.6 598.344 438.5 601.944Z" fill="url(#paint49_linear_208_16)"/>
<path d="M468.9 541.444C469.6 541.444 471.1 542.344 472.3 543.444C474.4 545.344 474.5 546.444 474.5 559.344V573.244L470.6 578.144C468.5 580.744 465.3 584.244 463.4 585.844C461.5 587.444 459.2 589.444 458.3 590.244C456.6 591.644 456.5 590.544 456.5 568.544C456.5 546.544 456.6 545.344 458.5 543.644C460.9 541.644 464.4 540.444 466.3 541.044C467.1 541.244 468.2 541.444 468.9 541.444Z" fill="url(#paint50_linear_208_16)"/>
<path d="M507.3 561.044C507.4 569.744 507.3 578.044 507 579.344C506.7 580.644 499.5 588.744 491.1 597.344C482.7 605.944 475.2 613.844 474.4 615.044C472.3 617.944 468.4 620.444 465.7 620.444C456.5 620.444 452.6 608.944 459.7 602.944C461.3 601.544 463.9 600.444 465.3 600.444C467.4 600.444 470.4 598.044 478.5 589.944L489 579.444L490 543.944L493.4 542.244C497.3 540.344 500.6 540.644 504.5 543.444C506.996 545.142 507 545.344 507.299 560.972L507.3 561.044Z" fill="url(#paint51_linear_208_16)"/>
<path d="M179.3 694.144C179 698.144 178.7 698.844 176.7 698.944C174.1 699.144 172.9 696.044 173.9 691.944C174.4 690.144 175.2 689.444 177.1 689.444C179.5 689.444 179.6 689.744 179.3 694.144Z" fill="url(#paint52_linear_208_16)"/>
<path d="M174.3 599.244C174.5 601.244 174.1 602.644 173.3 602.944C172 603.444 164.5 600.944 164.5 599.944C164.5 599.144 172 595.544 173 595.844C173.6 595.944 174.1 597.544 174.3 599.244Z" fill="url(#paint53_linear_208_16)"/>
<path d="M334.5 653.944C334.5 658.444 334.5 658.444 331 658.444C327.5 658.444 327.5 658.444 327.5 653.944C327.5 649.444 327.5 649.444 331 649.444C334.5 649.444 334.5 649.444 334.5 653.944Z" fill="url(#paint54_linear_208_16)"/>
<path d="M335.5 689.944C335.5 695.144 335.4 695.444 333 695.444C330.6 695.444 330.5 695.144 330.5 689.944C330.5 684.744 330.6 684.444 333 684.444C335.4 684.444 335.5 684.744 335.5 689.944Z" fill="url(#paint55_linear_208_16)"/>
<path d="M327.3 726.644C327 731.044 326.8 731.144 321.5 730.544C321 730.444 320.5 728.644 320.5 726.444C320.5 722.544 320.6 722.444 324.1 722.444H327.6L327.3 726.644Z" fill="url(#paint56_linear_208_16)"/>
<path d="M290.4 757.044C291 757.544 285.4 763.444 284.4 763.444C283.6 763.444 282.7 756.644 283.4 755.844C283.9 755.344 289.6 756.344 290.4 757.044Z" fill="url(#paint57_linear_208_16)"/>
<path d="M438.2 732.644C440.5 734.544 441.7 738.544 441 742.144C440.6 744.644 439.2 746.244 435.6 748.744C433 750.444 424.8 757.644 417.4 764.644C397.1 783.944 399.2 782.944 381.2 782.944H366.2L364.1 780.144C361.3 776.344 361.5 770.144 364.5 766.844C366.8 764.544 367.2 764.444 382.2 764.444C391.8 764.444 398.5 764.044 399.8 763.344C401 762.644 406.3 757.844 411.6 752.544C419.6 744.544 421.3 742.244 421.8 739.044C422.5 734.644 425.7 730.744 428.9 730.244C431.6 729.744 436.2 730.944 438.2 732.644Z" fill="url(#paint58_linear_208_16)"/>
<path d="M410 735.544C407.8 737.844 403.4 741.844 400.2 744.544L394.4 749.444H380.5C368.9 749.444 366.4 749.144 365 747.744C361 743.844 360.9 737.944 364.8 733.644C366.8 731.444 367.2 731.444 390.398 731.444H390.4H413.9L410 735.544Z" fill="url(#paint59_linear_208_16)"/>
<path d="M404.3 700.844C408.7 704.744 407.8 713.644 402.8 715.544C401.5 716.044 392.8 716.444 383.5 716.444H366.6L364.6 713.844C361.8 710.344 361.9 704.544 364.6 701.044L366.7 698.344L384.5 698.644C400.2 698.944 402.5 699.144 404.3 700.844Z" fill="url(#paint60_linear_208_16)"/>
<path d="M399.2 669.344C401.8 671.444 405.3 674.644 406.9 676.544C408.5 678.444 410.5 680.744 411.3 681.644C412.7 683.344 411.6 683.444 389.7 683.444C367.6 683.444 366.5 683.344 364.6 681.344C362.4 679.044 361.6 675.544 362.2 672.044C362.5 670.644 363.6 668.644 364.6 667.544C366.4 665.644 367.7 665.444 380.4 665.444H394.3L399.2 669.344Z" fill="url(#paint61_linear_208_16)"/>
<path d="M402.5 634.144C403.9 635.044 411.5 642.144 419.5 649.944C427.5 657.744 434.9 664.744 436.1 665.544C439 667.544 441.5 671.544 441.5 674.244C441.5 683.444 430 687.344 424 680.244C422.6 678.644 421.5 676.044 421.5 674.644C421.5 672.544 419.1 669.544 411 661.444L400.5 650.944L365 649.944L363.3 646.344C361.9 643.644 361.7 642.144 362.5 639.544C364.5 632.644 365 632.444 383.4 632.444C397.2 632.444 400.5 632.744 402.5 634.144Z" fill="url(#paint62_linear_208_16)"/>
<path d="M438.8 700.544C444.6 707.644 440 716.444 430.3 716.444C423.3 716.444 419.4 708.344 423 701.444C425.7 696.244 434.8 695.744 438.8 700.544Z" fill="url(#paint63_linear_208_16)"/>
<path d="M619 577.944C623.4 582.244 621.9 589.144 616.2 591.344C608.1 594.444 601.4 582.844 608.1 577.544C611.7 574.744 616 574.844 619 577.944Z" fill="url(#paint64_linear_208_16)"/>
<path d="M617.9 549.644C623.2 554.344 621.4 562.444 614.8 563.744C605.6 565.444 601.7 553.344 610 548.644C613 546.944 615.1 547.244 617.9 549.644Z" fill="url(#paint65_linear_208_16)"/>
<path d="M628 622.344C627.1 623.144 622.5 617.344 622.5 615.244C622.5 614.344 623.7 613.244 625.3 612.644C627.994 611.746 628 611.844 628.298 616.712L628.3 616.744C628.5 619.444 628.3 621.944 628 622.344Z" fill="url(#paint66_linear_208_16)"/>
<path d="M657 702.444C657.7 703.544 649.9 709.444 647.8 709.444C646.9 709.444 646.5 708.144 646.5 705.444V701.444H651.4C654.2 701.444 656.7 701.844 657 702.444Z" fill="url(#paint67_linear_208_16)"/>
<path d="M698.1 625.644C709.2 634.644 718.6 642.644 718.8 643.544C719.2 645.144 718 648.144 716.1 649.944C713.5 652.344 688.4 671.444 682.5 675.444L676 679.844L662.4 680.244C646 680.744 645.5 680.444 645.5 671.144C645.5 662.144 645.9 661.844 656 662.244C662.3 662.444 665.3 662.144 667.7 660.844C670.2 659.644 684.5 649.844 688.4 646.744C688.9 646.344 688 645.544 675.4 636.444L665.8 629.444H657.2C646.7 629.444 645.5 628.344 645.5 618.744C645.5 609.544 645.7 609.444 663.2 609.444H677.8L698.1 625.644Z" fill="url(#paint68_linear_208_16)"/>
<path d="M665.6 644.344C667.7 646.044 667.8 646.544 666.7 648.844C665.2 652.144 663.1 653.044 659.9 651.644C658.2 650.844 657.5 649.644 657.5 647.644C657.5 642.444 661.4 640.944 665.6 644.344Z" fill="url(#paint69_linear_208_16)"/>
<path d="M742.2 611.644C746.7 615.844 744.4 623.444 738 625.044C733.3 626.244 727.7 620.644 728.9 615.844C730.5 609.644 737.7 607.444 742.2 611.644Z" fill="url(#paint70_linear_208_16)"/>
<path fill-rule="evenodd" clip-rule="evenodd" d="M758.5 565.944L749.1 575.144L739.7 584.444L694.9 584.544C670.2 584.644 649.3 584.544 648.5 584.444C644.7 583.944 644.2 581.944 643.7 564.544L643.2 547.444H758.5V565.944ZM663.4 564.444C661 563.144 660.9 558.844 663.3 557.544C664.3 556.844 678.3 556.444 700.7 556.444C731.4 556.444 736.6 556.644 737.9 557.944C739.4 559.444 739.1 561.744 737.2 564.144C736 565.844 666.4 566.044 663.4 564.444Z" fill="url(#paint71_linear_208_16)"/>
<path fill-rule="evenodd" clip-rule="evenodd" d="M564.2 559.012C573.7 563.712 578.7 571.112 580.5 583.112C581.5 589.612 581.4 591.112 579.7 596.112L577.7 601.812L583.8 605.812C600.9 616.812 613.3 633.012 618 650.212C619.8 656.612 621.1 693.912 619.7 698.912C618.9 701.912 619.1 703.012 621.3 706.412C624.7 711.912 625.3 720.212 622.5 724.712C616.4 734.312 602.3 734.312 596.4 724.712C593.4 719.812 593.8 713.712 597.4 707.212C600.4 702.012 600.4 701.812 600.4 686.512C600.4 669.712 599.1 657.912 596.7 651.512C594 644.712 586.6 634.312 580.6 628.912C571.7 621.112 566.1 618.712 553.6 617.712C537 616.312 528.9 611.612 523.6 600.212C521.6 595.612 521 592.912 521 587.412C521 577.112 523.6 570.512 530 564.312C536.3 558.112 541.4 556.112 551 556.012C557 555.912 559 556.412 564.2 559.012ZM546.2 576.312C547.7 576.012 549.4 575.612 549.9 575.512C550.9 575.212 554.4 576.112 557.5 577.312C559.8 578.312 562.4 583.312 562.4 586.712C562.4 590.612 558.4 595.412 553.9 596.912C546.8 599.212 539.4 593.912 539.4 586.512C539.4 582.412 543 577.012 546.2 576.312Z" fill="url(#paint72_linear_208_16)"/>
<path fill-rule="evenodd" clip-rule="evenodd" d="M564.2 559.012C573.7 563.712 578.7 571.112 580.5 583.112C581.5 589.612 581.4 591.112 579.7 596.112L577.7 601.812L583.8 605.812C600.9 616.812 613.3 633.012 618 650.212C619.8 656.612 621.1 693.912 619.7 698.912C618.9 701.912 619.1 703.012 621.3 706.412C624.7 711.912 625.3 720.212 622.5 724.712C616.4 734.312 602.3 734.312 596.4 724.712C593.4 719.812 593.8 713.712 597.4 707.212C600.4 702.012 600.4 701.812 600.4 686.512C600.4 669.712 599.1 657.912 596.7 651.512C594 644.712 586.6 634.312 580.6 628.912C571.7 621.112 566.1 618.712 553.6 617.712C537 616.312 528.9 611.612 523.6 600.212C521.6 595.612 521 592.912 521 587.412C521 577.112 523.6 570.512 530 564.312C536.3 558.112 541.4 556.112 551 556.012C557 555.912 559 556.412 564.2 559.012ZM546.2 576.312C547.7 576.012 549.4 575.612 549.9 575.512C550.9 575.212 554.4 576.112 557.5 577.312C559.8 578.312 562.4 583.312 562.4 586.712C562.4 590.612 558.4 595.412 553.9 596.912C546.8 599.212 539.4 593.912 539.4 586.512C539.4 582.412 543 577.012 546.2 576.312Z" fill="url(#paint73_linear_208_16)"/>
<path d="M239.881 286.016L240.481 313.516H222.381V285.416L239.881 286.016Z" fill="url(#paint74_linear_208_16)"/>
<path d="M151.081 286.316C151.681 286.716 153.081 289.316 154.081 292.016C155.581 295.916 156.981 297.716 161.281 300.716L166.681 304.516L171.281 301.816C173.781 300.416 176.581 298.716 177.481 298.216C179.081 297.216 182.281 300.016 188.481 307.916C192.981 313.616 193.981 313.516 140.681 313.316C84.681 313.016 88.181 313.716 97.181 303.616L102.381 297.616L114.181 304.016L118.481 301.616C124.881 298.116 125.481 297.516 127.981 291.816L130.281 286.616L139.581 286.216C144.681 286.116 149.081 285.816 149.381 285.716C149.681 285.616 150.381 285.916 151.081 286.316Z" fill="url(#paint75_linear_208_16)"/>
<path fill-rule="evenodd" clip-rule="evenodd" d="M272.481 137.216C273.481 138.216 273.681 151.016 273.481 192.716C273.281 245.016 273.181 247.216 271.281 251.216C270.081 253.616 267.381 257.016 265.281 258.916L261.281 262.316L205.081 262.716C174.181 262.916 146.881 262.816 144.381 262.516L139.881 262.016L132.781 245.016C128.781 235.616 125.281 227.016 124.981 225.816L124.281 223.516L144.581 223.316L164.881 223.016V213.016L141.581 212.016L146.481 205.216L151.381 198.516H157.181C165.381 198.516 165.781 198.016 165.081 189.916C164.381 181.716 165.681 177.116 169.681 174.116C172.381 172.116 173.781 172.016 206.181 171.816C224.681 171.716 240.481 171.616 241.181 171.616C243.181 171.516 242.881 156.916 240.781 156.116C239.881 155.816 226.381 155.516 210.781 155.516H182.281L186.981 149.516C189.581 146.216 193.581 141.716 195.881 139.616L199.981 135.916H235.581C262.281 136.016 271.581 136.316 272.481 137.216ZM237.581 191.516H242.381V232.516H192.381V191.516H197.181C201.781 191.516 201.981 191.716 209.381 199.616L216.881 207.716L224.781 199.616C232.581 191.716 232.881 191.516 237.581 191.516Z" fill="url(#paint76_linear_208_16)"/>
<path d="M110.281 253.116C112.981 256.516 112.981 259.316 110.181 262.216C105.781 266.916 98.381 263.816 98.381 257.316C98.381 250.616 106.181 247.916 110.281 253.116Z" fill="url(#paint77_linear_208_16)"/>
<path d="M273.081 107.716C274.881 109.216 274.781 117.016 272.781 118.916C271.481 120.316 266.681 120.516 235.281 120.516C215.581 120.516 199.381 120.116 199.381 119.716C199.381 118.616 211.581 106.816 213.181 106.316C216.381 105.416 271.881 106.616 273.081 107.716Z" fill="url(#paint78_linear_208_16)"/>
<path d="M297.081 287.716C299.781 290.216 299.981 292.216 297.681 294.716C294.181 298.516 287.881 295.216 289.181 290.216C290.381 285.116 293.281 284.216 297.081 287.716Z" fill="url(#paint79_linear_208_16)"/>
<path d="M201.881 288.016C201.881 291.816 201.681 292.016 198.881 292.016C196.181 292.016 195.881 291.616 195.581 288.616C195.181 284.916 196.581 283.316 199.881 283.716C201.481 284.016 201.881 284.816 201.881 288.016Z" fill="url(#paint80_linear_208_16)"/>
<path d="M104.781 274.516C105.481 275.216 98.681 279.516 96.881 279.516C96.581 279.516 96.381 278.016 96.381 276.116C96.381 272.716 96.381 272.616 100.181 273.216C102.181 273.516 104.281 274.116 104.781 274.516Z" fill="url(#paint81_linear_208_16)"/>
<path d="M540.37 638.577C559.87 644.477 575.07 660.977 580.27 681.677C582.37 690.177 581.77 705.577 578.77 714.677C572.57 733.977 556.67 749.577 537.77 754.877C529.57 757.177 513.47 757.277 505.17 755.177C494.87 752.577 483.17 746.177 476.27 739.377C466.27 729.577 466.27 729.877 475.37 722.077C486.97 712.177 486.47 712.277 494.07 719.377C503.27 728.077 510.07 731.077 520.17 731.077C526.57 731.077 529.07 730.577 532.47 728.877C538.47 725.677 540.37 720.077 536.87 715.777L535.17 713.577L530.67 715.577C519.27 720.777 507.27 715.077 501.37 701.877C493.47 683.877 514.77 665.877 532.37 675.577L537.67 678.477L539.67 675.977C540.77 674.577 541.87 671.877 542.27 669.977C543.37 664.077 537.37 659.677 525.07 657.177C520.67 656.377 510.87 658.077 505.07 660.777C498.47 663.877 489.57 672.977 485.77 680.577C483.97 683.977 481.97 686.977 481.17 687.277C479.27 688.077 475.17 685.477 469.17 679.777C465.07 675.877 464.67 675.177 465.17 672.277C467.47 661.277 482.97 645.777 497.07 640.377C510.37 635.277 527.37 634.577 540.37 638.577Z" fill="url(#paint82_linear_208_16)"/>
<path fill-rule="evenodd" clip-rule="evenodd" d="M265.5 630.444C268 635.744 271.1 639.044 276.2 642.044L279.5 643.844L285 640.944C290.4 637.944 290.4 637.944 292.2 639.944C296.4 644.444 302.5 652.744 302.5 653.844C302.5 654.444 301.4 656.644 300 658.644C298.6 660.644 297.5 663.144 297.5 664.244C297.5 667.344 304 673.944 308.9 675.844L313.5 677.644V696.244L307.8 697.644C302.8 698.844 301.6 699.544 299.1 703.344C296 707.944 296 708.044 300.6 715.144C302.9 718.844 302.5 720.044 296.8 727.144C292.5 732.444 291.5 732.744 286.8 730.344C282.4 728.044 279.3 728.244 272.2 731.444C268.5 733.044 267 734.444 265.8 737.244C265 739.244 263.9 741.644 263.5 742.444C263 743.544 260.6 744.044 254.2 744.244L245.7 744.544L244.1 739.044C242.7 734.344 242 733.444 238.8 732.144C236.899 731.42 234.016 730.205 232.077 729.387L231.5 729.144C228.2 727.744 227.7 727.744 223 730.044L218 732.344L213.7 728.144C211.3 725.844 208.5 722.544 207.4 720.744L205.4 717.644L211.6 707.244L209.3 703.844C207.3 700.844 202.8 697.944 197.3 696.144C195.8 695.544 195.5 694.144 195.5 686.144V676.844L200.3 674.644C204.7 672.544 210.5 666.244 210.5 663.444C210.5 662.844 209.3 660.244 207.9 657.844C204.7 652.444 205.1 651.244 212.6 643.844L217.5 639.044L222.8 641.644L228 644.144L233.3 641.144C237.6 638.744 239.1 637.144 241.5 632.444C243.1 629.244 245.2 626.344 246.2 626.144C247.2 625.844 251.4 625.644 255.6 625.544L263.2 625.444L265.5 630.444ZM229.4 685.744C229.4 674.344 235.9 664.644 246 661.044C251.8 658.944 261.2 659.144 266.1 661.344C282.7 668.844 287.2 688.344 275.5 701.744C264.8 713.844 249.5 714.744 237.5 703.844C231.5 698.444 229.4 693.644 229.4 685.744Z" fill="url(#paint83_linear_208_16)"/>
<path d="M260.5 682.444C261.6 683.544 262.5 685.344 262.5 686.444C262.5 689.044 259.1 692.444 256.3 692.444C253.4 692.444 250.5 689.644 250.5 686.744C250.5 683.944 253.8 680.444 256.5 680.444C257.6 680.444 259.4 681.344 260.5 682.444Z" fill="url(#paint84_linear_208_16)"/>
<path d="M524 81.5004C534.3 84.1004 546 90.5004 552.9 97.3004C562.9 107.1 562.9 106.8 553.8 114.6C542.2 124.5 542.7 124.4 535.1 117.3C525.9 108.6 519.1 105.6 509 105.6C502.6 105.6 500.1 106.1 496.7 107.8C490.7 111 488.8 116.6 492.3 120.9L494 123.1L498.5 121.1C509.9 115.9 521.9 121.6 527.8 134.8C535.7 152.8 514.4 170.8 496.8 161.1L491.5 158.2L489.5 160.7C488.4 162.1 487.3 164.8 486.9 166.7C485.8 172.6 491.8 177 504.1 179.5C508.5 180.3 518.3 178.6 524.1 175.9C530.7 172.8 539.6 163.7 543.4 156.1C545.2 152.7 547.2 149.7 548 149.4C549.9 148.6 554 151.2 560 156.9C564.1 160.7 564.5 161.6 564 164.4C562.2 172.8 550.3 186.5 539.4 192.8C529.6 198.3 520.5 200.5 507.5 200.4C499.7 200.4 494.1 199.8 490 198.6C469.9 192.6 454.2 176 448.9 155C446.8 146.5 447.4 131.1 450.4 122C456.5 102.9 472.4 87.2004 490.9 81.9004C498.8 79.6004 515.9 79.4004 524 81.5004Z" fill="url(#paint85_linear_208_16)"/>
<path d="M309.5 106.6L310.1 119.2L286.5 118.6L285.9 106L309.5 106.6Z" fill="url(#paint86_linear_208_16)"/>
<path d="M309.5 136.6V182.6L286 183.2V136L309.5 136.6Z" fill="url(#paint87_linear_208_16)"/>
<path d="M308.8 200C309.7 200.5 310 202.6 309.8 206.7L309.5 212.6L286 213.2V199.1H296.8C302.7 199.1 308.1 199.5 308.8 200Z" fill="url(#paint88_linear_208_16)"/>
<path d="M308.6 229.9C309.2 230.3 309.8 233.4 309.9 236.9C310.1 242.6 309.8 243.7 306.7 248.4C304.8 251.3 302.1 255.5 300.6 257.8C298 262 297.8 262.1 292.6 262.1C288.6 262.1 287.1 261.7 286.6 260.5C286.3 259.6 286 252.2 286 244V229.1H296.8C302.7 229.1 308 229.5 308.6 229.9Z" fill="url(#paint89_linear_208_16)"/>
<path d="M272.4 285.7C273.8 286.2 274 288.4 274 299.7V313.1H255V285.1H262.9C267.3 285.1 271.5 285.4 272.4 285.7Z" fill="url(#paint90_linear_208_16)"/>
<path d="M76.2339 515.698V347.787H122.491V371.249H105.625V492.235H122.491V515.698H76.2339ZM180.688 515.698C170.111 515.475 161.845 514.417 155.889 512.525C149.933 510.688 145.73 507.571 143.281 503.173C140.888 498.776 139.691 492.708 139.691 484.971V457C139.691 451.433 139.023 447.342 137.687 444.726C136.407 442.11 133.206 440.523 128.085 439.967V423.518C133.206 422.906 136.407 421.319 137.687 418.759C139.023 416.142 139.691 412.051 139.691 406.485V378.514C139.691 370.721 140.888 364.653 143.281 360.311C145.73 355.914 149.933 352.797 155.889 350.96C161.845 349.067 170.111 348.01 180.688 347.787V370.08C177.682 370.303 174.982 370.804 172.588 371.583C170.25 372.307 169.082 374.144 169.082 377.094V408.405C169.082 413.749 168.219 418.007 166.493 421.18C164.823 424.297 162.597 426.663 159.813 428.277C157.03 429.836 154.052 430.977 150.879 431.701C154.052 432.424 157.03 433.593 159.813 435.207C162.597 436.766 164.823 439.132 166.493 442.305C168.219 445.422 169.082 449.68 169.082 455.079V486.391C169.082 489.341 170.25 491.205 172.588 491.985C174.982 492.708 177.682 493.182 180.688 493.404V515.698ZM188.119 397.634V373.504L196.635 353.047H214.253L208.742 372.752H219.346V397.634H188.119ZM227.278 397.634V373.504L235.795 353.047H253.413L247.902 372.752H258.506V397.634H227.278ZM302.007 501.336C295.383 501.336 289.344 500.056 283.889 497.495C278.434 494.935 274.092 491.15 270.863 486.14C267.69 481.075 266.104 474.868 266.104 467.52V430.699H295.161V465.767C295.161 468.328 295.662 470.387 296.664 471.946C297.721 473.504 299.391 474.284 301.673 474.284C306.071 474.284 308.27 471.584 308.27 466.184V353.047H337.911V463.262C337.911 471.055 336.38 477.818 333.318 483.552C330.257 489.229 326.026 493.627 320.627 496.744C315.228 499.806 309.021 501.336 302.007 501.336ZM384.167 501.336C370.752 501.336 361.067 497.996 355.111 491.317C349.21 484.637 346.26 474.005 346.26 459.421V445.06H375.317V463.429C375.317 466.825 375.818 469.496 376.82 471.445C377.877 473.337 379.687 474.284 382.247 474.284C384.919 474.284 386.756 473.504 387.758 471.946C388.815 470.387 389.344 467.827 389.344 464.264C389.344 459.755 388.899 455.998 388.008 452.992C387.118 449.931 385.559 447.036 383.333 444.308C381.162 441.525 378.128 438.297 374.231 434.623L361.039 422.099C351.187 412.803 346.26 402.171 346.26 390.203C346.26 377.679 349.155 368.132 354.944 361.564C360.789 354.995 369.222 351.711 380.243 351.711C393.714 351.711 403.26 355.302 408.882 362.482C414.56 369.663 417.399 380.573 417.399 395.213H387.507V385.11C387.507 383.106 386.923 381.547 385.754 380.434C384.641 379.321 383.11 378.764 381.162 378.764C378.824 378.764 377.098 379.432 375.985 380.768C374.927 382.048 374.398 383.718 374.398 385.778C374.398 387.837 374.955 390.064 376.068 392.457C377.182 394.851 379.38 397.606 382.665 400.724L399.614 417.005C403.01 420.234 406.127 423.657 408.966 427.275C411.805 430.838 414.087 435.013 415.812 439.8C417.538 444.531 418.401 450.32 418.401 457.167C418.401 470.972 415.84 481.798 410.719 489.647C405.654 497.44 396.803 501.336 384.167 501.336ZM463.322 501.336C451.577 501.336 442.587 497.802 436.353 490.732C430.174 483.607 427.084 473.337 427.084 459.922V390.12C427.084 377.539 430.146 367.993 436.269 361.48C442.448 354.968 451.465 351.711 463.322 351.711C475.178 351.711 484.168 354.968 490.291 361.48C496.47 367.993 499.559 377.539 499.559 390.12V459.922C499.559 473.337 496.442 483.607 490.208 490.732C484.029 497.802 475.067 501.336 463.322 501.336ZM463.572 474.284C468.025 474.284 470.252 469.97 470.252 461.342V389.619C470.252 382.382 468.081 378.764 463.739 378.764C458.841 378.764 456.392 382.466 456.392 389.869V461.509C456.392 466.073 456.948 469.357 458.062 471.361C459.175 473.309 461.012 474.284 463.572 474.284ZM511.416 500V353.047H541.641L555.167 423.434V353.047H583.556V500H554.833L540.138 426.524V500H511.416ZM599.337 397.634L604.848 377.929H594.244V353.047H625.471V377.178L616.955 397.634H599.337ZM638.831 397.634L644.341 377.929H633.737V353.047H664.965V377.178L656.448 397.634H638.831ZM672.563 515.698V493.404C675.569 493.182 678.241 492.708 680.579 491.985C682.972 491.205 684.169 489.341 684.169 486.391V455.079C684.169 449.68 685.004 445.422 686.674 442.305C688.399 439.132 690.654 436.766 693.437 435.207C696.22 433.593 699.198 432.424 702.371 431.701C699.198 430.977 696.22 429.836 693.437 428.277C690.654 426.663 688.399 424.297 686.674 421.18C685.004 418.063 684.169 413.805 684.169 408.405V377.094C684.169 374.144 682.972 372.307 680.579 371.583C678.241 370.804 675.569 370.303 672.563 370.08V347.787C683.139 348.01 691.405 349.067 697.361 350.96C703.317 352.797 707.492 355.914 709.886 360.311C712.335 364.653 713.56 370.721 713.56 378.514V406.485C713.56 412.051 714.228 416.142 715.563 418.759C716.899 421.319 720.1 422.906 725.166 423.518V439.967C720.1 440.523 716.899 442.11 715.563 444.726C714.228 447.342 713.56 451.433 713.56 457V484.971C713.56 492.708 712.335 498.776 709.886 503.173C707.492 507.571 703.317 510.688 697.361 512.525C691.405 514.417 683.139 515.475 672.563 515.698ZM730.426 515.698V492.235H747.292V371.249H730.426V347.787H776.683V515.698H730.426Z" fill="white"/>
<defs>
<linearGradient id="paint0_linear_208_16" x1="308.5" y1="228.444" x2="585.5" y2="667.944" gradientUnits="userSpaceOnUse">
<stop stop-color="#72EBFF"/>
<stop offset="1" stop-color="#0884E6"/>
</linearGradient>
<linearGradient id="paint1_linear_208_16" x1="308.5" y1="228.444" x2="585.5" y2="667.944" gradientUnits="userSpaceOnUse">
<stop stop-color="#72EBFF"/>
<stop offset="1" stop-color="#0884E6"/>
</linearGradient>
<linearGradient id="paint2_linear_208_16" x1="308.5" y1="228.444" x2="585.5" y2="667.944" gradientUnits="userSpaceOnUse">
<stop stop-color="#72EBFF"/>
<stop offset="1" stop-color="#0884E6"/>
</linearGradient>
<linearGradient id="paint3_linear_208_16" x1="308.5" y1="228.444" x2="585.5" y2="667.944" gradientUnits="userSpaceOnUse">
<stop stop-color="#72EBFF"/>
<stop offset="1" stop-color="#0884E6"/>
</linearGradient>
<linearGradient id="paint4_linear_208_16" x1="308.5" y1="228.444" x2="585.5" y2="667.944" gradientUnits="userSpaceOnUse">
<stop stop-color="#72EBFF"/>
<stop offset="1" stop-color="#0884E6"/>
</linearGradient>
<linearGradient id="paint5_linear_208_16" x1="308.5" y1="228.444" x2="585.5" y2="667.944" gradientUnits="userSpaceOnUse">
<stop stop-color="#72EBFF"/>
<stop offset="1" stop-color="#0884E6"/>
</linearGradient>
<linearGradient id="paint6_linear_208_16" x1="308.5" y1="228.444" x2="585.5" y2="667.944" gradientUnits="userSpaceOnUse">
<stop stop-color="#72EBFF"/>
<stop offset="1" stop-color="#0884E6"/>
</linearGradient>
<linearGradient id="paint7_linear_208_16" x1="308.5" y1="228.444" x2="585.5" y2="667.944" gradientUnits="userSpaceOnUse">
<stop stop-color="#72EBFF"/>
<stop offset="1" stop-color="#0884E6"/>
</linearGradient>
<linearGradient id="paint8_linear_208_16" x1="308.5" y1="228.444" x2="585.5" y2="667.944" gradientUnits="userSpaceOnUse">
<stop stop-color="#72EBFF"/>
<stop offset="1" stop-color="#0884E6"/>
</linearGradient>
<linearGradient id="paint9_linear_208_16" x1="308.5" y1="228.444" x2="585.5" y2="667.944" gradientUnits="userSpaceOnUse">
<stop stop-color="#72EBFF"/>
<stop offset="1" stop-color="#0884E6"/>
</linearGradient>
<linearGradient id="paint10_linear_208_16" x1="308.5" y1="228.444" x2="585.5" y2="667.944" gradientUnits="userSpaceOnUse">
<stop stop-color="#72EBFF"/>
<stop offset="1" stop-color="#0884E6"/>
</linearGradient>
<linearGradient id="paint11_linear_208_16" x1="308.5" y1="228.444" x2="585.5" y2="667.944" gradientUnits="userSpaceOnUse">
<stop stop-color="#72EBFF"/>
<stop offset="1" stop-color="#0884E6"/>
</linearGradient>
<linearGradient id="paint12_linear_208_16" x1="308.5" y1="228.444" x2="585.5" y2="667.944" gradientUnits="userSpaceOnUse">
<stop stop-color="#72EBFF"/>
<stop offset="1" stop-color="#0884E6"/>
</linearGradient>
<linearGradient id="paint13_linear_208_16" x1="308.5" y1="228.444" x2="585.5" y2="667.944" gradientUnits="userSpaceOnUse">
<stop stop-color="#72EBFF"/>
<stop offset="1" stop-color="#0884E6"/>
</linearGradient>
<linearGradient id="paint14_linear_208_16" x1="308.5" y1="228.444" x2="585.5" y2="667.944" gradientUnits="userSpaceOnUse">
<stop stop-color="#72EBFF"/>
<stop offset="1" stop-color="#0884E6"/>
</linearGradient>
<linearGradient id="paint15_linear_208_16" x1="308.5" y1="228.444" x2="585.5" y2="667.944" gradientUnits="userSpaceOnUse">
<stop stop-color="#72EBFF"/>
<stop offset="1" stop-color="#0884E6"/>
</linearGradient>
<linearGradient id="paint16_linear_208_16" x1="308.5" y1="228.444" x2="585.5" y2="667.944" gradientUnits="userSpaceOnUse">
<stop stop-color="#72EBFF"/>
<stop offset="1" stop-color="#0884E6"/>
</linearGradient>
<linearGradient id="paint17_linear_208_16" x1="308.5" y1="228.444" x2="585.5" y2="667.944" gradientUnits="userSpaceOnUse">
<stop stop-color="#72EBFF"/>
<stop offset="1" stop-color="#0884E6"/>
</linearGradient>
<linearGradient id="paint18_linear_208_16" x1="308.5" y1="228.444" x2="585.5" y2="667.944" gradientUnits="userSpaceOnUse">
<stop stop-color="#72EBFF"/>
<stop offset="1" stop-color="#0884E6"/>
</linearGradient>
<linearGradient id="paint19_linear_208_16" x1="308.5" y1="228.444" x2="585.5" y2="667.944" gradientUnits="userSpaceOnUse">
<stop stop-color="#72EBFF"/>
<stop offset="1" stop-color="#0884E6"/>
</linearGradient>
<linearGradient id="paint20_linear_208_16" x1="308.5" y1="228.444" x2="585.5" y2="667.944" gradientUnits="userSpaceOnUse">
<stop stop-color="#72EBFF"/>
<stop offset="1" stop-color="#0884E6"/>
</linearGradient>
<linearGradient id="paint21_linear_208_16" x1="308.5" y1="228.444" x2="585.5" y2="667.944" gradientUnits="userSpaceOnUse">
<stop stop-color="#72EBFF"/>
<stop offset="1" stop-color="#0884E6"/>
</linearGradient>
<linearGradient id="paint22_linear_208_16" x1="308.5" y1="228.444" x2="585.5" y2="667.944" gradientUnits="userSpaceOnUse">
<stop stop-color="#72EBFF"/>
<stop offset="1" stop-color="#0884E6"/>
</linearGradient>
<linearGradient id="paint23_linear_208_16" x1="308.5" y1="228.444" x2="585.5" y2="667.944" gradientUnits="userSpaceOnUse">
<stop stop-color="#72EBFF"/>
<stop offset="1" stop-color="#0884E6"/>
</linearGradient>
<linearGradient id="paint24_linear_208_16" x1="308.5" y1="228.444" x2="585.5" y2="667.944" gradientUnits="userSpaceOnUse">
<stop stop-color="#72EBFF"/>
<stop offset="1" stop-color="#0884E6"/>
</linearGradient>
<linearGradient id="paint25_linear_208_16" x1="308.5" y1="228.444" x2="585.5" y2="667.944" gradientUnits="userSpaceOnUse">
<stop stop-color="#72EBFF"/>
<stop offset="1" stop-color="#0884E6"/>
</linearGradient>
<linearGradient id="paint26_linear_208_16" x1="308.5" y1="228.444" x2="585.5" y2="667.944" gradientUnits="userSpaceOnUse">
<stop stop-color="#72EBFF"/>
<stop offset="1" stop-color="#0884E6"/>
</linearGradient>
<linearGradient id="paint27_linear_208_16" x1="308.5" y1="228.444" x2="585.5" y2="667.944" gradientUnits="userSpaceOnUse">
<stop stop-color="#72EBFF"/>
<stop offset="1" stop-color="#0884E6"/>
</linearGradient>
<linearGradient id="paint28_linear_208_16" x1="308.5" y1="228.444" x2="585.5" y2="667.944" gradientUnits="userSpaceOnUse">
<stop stop-color="#72EBFF"/>
<stop offset="1" stop-color="#0884E6"/>
</linearGradient>
<linearGradient id="paint29_linear_208_16" x1="308.5" y1="228.444" x2="585.5" y2="667.944" gradientUnits="userSpaceOnUse">
<stop stop-color="#72EBFF"/>
<stop offset="1" stop-color="#0884E6"/>
</linearGradient>
<linearGradient id="paint30_linear_208_16" x1="308.5" y1="228.444" x2="585.5" y2="667.944" gradientUnits="userSpaceOnUse">
<stop stop-color="#72EBFF"/>
<stop offset="1" stop-color="#0884E6"/>
</linearGradient>
<linearGradient id="paint31_linear_208_16" x1="308.5" y1="228.444" x2="585.5" y2="667.944" gradientUnits="userSpaceOnUse">
<stop stop-color="#72EBFF"/>
<stop offset="1" stop-color="#0884E6"/>
</linearGradient>
<linearGradient id="paint32_linear_208_16" x1="308.5" y1="228.444" x2="585.5" y2="667.944" gradientUnits="userSpaceOnUse">
<stop stop-color="#72EBFF"/>
<stop offset="1" stop-color="#0884E6"/>
</linearGradient>
<linearGradient id="paint33_linear_208_16" x1="308.5" y1="228.444" x2="585.5" y2="667.944" gradientUnits="userSpaceOnUse">
<stop stop-color="#72EBFF"/>
<stop offset="1" stop-color="#0884E6"/>
</linearGradient>
<linearGradient id="paint34_linear_208_16" x1="308.5" y1="228.444" x2="585.5" y2="667.944" gradientUnits="userSpaceOnUse">
<stop stop-color="#72EBFF"/>
<stop offset="1" stop-color="#0884E6"/>
</linearGradient>
<linearGradient id="paint35_linear_208_16" x1="308.5" y1="228.444" x2="585.5" y2="667.944" gradientUnits="userSpaceOnUse">
<stop stop-color="#72EBFF"/>
<stop offset="1" stop-color="#0884E6"/>
</linearGradient>
<linearGradient id="paint36_linear_208_16" x1="308.5" y1="228.444" x2="585.5" y2="667.944" gradientUnits="userSpaceOnUse">
<stop stop-color="#72EBFF"/>
<stop offset="1" stop-color="#0884E6"/>
</linearGradient>
<linearGradient id="paint37_linear_208_16" x1="308.5" y1="228.444" x2="585.5" y2="667.944" gradientUnits="userSpaceOnUse">
<stop stop-color="#72EBFF"/>
<stop offset="1" stop-color="#0884E6"/>
</linearGradient>
<linearGradient id="paint38_linear_208_16" x1="308.5" y1="228.444" x2="585.5" y2="667.944" gradientUnits="userSpaceOnUse">
<stop stop-color="#72EBFF"/>
<stop offset="1" stop-color="#0884E6"/>
</linearGradient>
<linearGradient id="paint39_linear_208_16" x1="308.5" y1="228.444" x2="585.5" y2="667.944" gradientUnits="userSpaceOnUse">
<stop stop-color="#72EBFF"/>
<stop offset="1" stop-color="#0884E6"/>
</linearGradient>
<linearGradient id="paint40_linear_208_16" x1="308.5" y1="228.444" x2="585.5" y2="667.944" gradientUnits="userSpaceOnUse">
<stop stop-color="#72EBFF"/>
<stop offset="1" stop-color="#0884E6"/>
</linearGradient>
<linearGradient id="paint41_linear_208_16" x1="308.5" y1="228.444" x2="585.5" y2="667.944" gradientUnits="userSpaceOnUse">
<stop stop-color="#72EBFF"/>
<stop offset="1" stop-color="#0884E6"/>
</linearGradient>
<linearGradient id="paint42_linear_208_16" x1="308.5" y1="228.444" x2="585.5" y2="667.944" gradientUnits="userSpaceOnUse">
<stop stop-color="#72EBFF"/>
<stop offset="1" stop-color="#0884E6"/>
</linearGradient>
<linearGradient id="paint43_linear_208_16" x1="308.5" y1="228.444" x2="585.5" y2="667.944" gradientUnits="userSpaceOnUse">
<stop stop-color="#72EBFF"/>
<stop offset="1" stop-color="#0884E6"/>
</linearGradient>
<linearGradient id="paint44_linear_208_16" x1="308.5" y1="228.444" x2="585.5" y2="667.944" gradientUnits="userSpaceOnUse">
<stop stop-color="#72EBFF"/>
<stop offset="1" stop-color="#0884E6"/>
</linearGradient>
<linearGradient id="paint45_linear_208_16" x1="308.5" y1="228.444" x2="585.5" y2="667.944" gradientUnits="userSpaceOnUse">
<stop stop-color="#72EBFF"/>
<stop offset="1" stop-color="#0884E6"/>
</linearGradient>
<linearGradient id="paint46_linear_208_16" x1="308.5" y1="228.444" x2="585.5" y2="667.944" gradientUnits="userSpaceOnUse">
<stop stop-color="#72EBFF"/>
<stop offset="1" stop-color="#0884E6"/>
</linearGradient>
<linearGradient id="paint47_linear_208_16" x1="308.5" y1="228.444" x2="585.5" y2="667.944" gradientUnits="userSpaceOnUse">
<stop stop-color="#72EBFF"/>
<stop offset="1" stop-color="#0884E6"/>
</linearGradient>
<linearGradient id="paint48_linear_208_16" x1="308.5" y1="228.444" x2="585.5" y2="667.944" gradientUnits="userSpaceOnUse">
<stop stop-color="#72EBFF"/>
<stop offset="1" stop-color="#0884E6"/>
</linearGradient>
<linearGradient id="paint49_linear_208_16" x1="308.5" y1="228.444" x2="585.5" y2="667.944" gradientUnits="userSpaceOnUse">
<stop stop-color="#72EBFF"/>
<stop offset="1" stop-color="#0884E6"/>
</linearGradient>
<linearGradient id="paint50_linear_208_16" x1="308.5" y1="228.444" x2="585.5" y2="667.944" gradientUnits="userSpaceOnUse">
<stop stop-color="#72EBFF"/>
<stop offset="1" stop-color="#0884E6"/>
</linearGradient>
<linearGradient id="paint51_linear_208_16" x1="308.5" y1="228.444" x2="585.5" y2="667.944" gradientUnits="userSpaceOnUse">
<stop stop-color="#72EBFF"/>
<stop offset="1" stop-color="#0884E6"/>
</linearGradient>
<linearGradient id="paint52_linear_208_16" x1="308.5" y1="228.444" x2="585.5" y2="667.944" gradientUnits="userSpaceOnUse">
<stop stop-color="#72EBFF"/>
<stop offset="1" stop-color="#0884E6"/>
</linearGradient>
<linearGradient id="paint53_linear_208_16" x1="308.5" y1="228.444" x2="585.5" y2="667.944" gradientUnits="userSpaceOnUse">
<stop stop-color="#72EBFF"/>
<stop offset="1" stop-color="#0884E6"/>
</linearGradient>
<linearGradient id="paint54_linear_208_16" x1="308.5" y1="228.444" x2="585.5" y2="667.944" gradientUnits="userSpaceOnUse">
<stop stop-color="#72EBFF"/>
<stop offset="1" stop-color="#0884E6"/>
</linearGradient>
<linearGradient id="paint55_linear_208_16" x1="308.5" y1="228.444" x2="585.5" y2="667.944" gradientUnits="userSpaceOnUse">
<stop stop-color="#72EBFF"/>
<stop offset="1" stop-color="#0884E6"/>
</linearGradient>
<linearGradient id="paint56_linear_208_16" x1="308.5" y1="228.444" x2="585.5" y2="667.944" gradientUnits="userSpaceOnUse">
<stop stop-color="#72EBFF"/>
<stop offset="1" stop-color="#0884E6"/>
</linearGradient>
<linearGradient id="paint57_linear_208_16" x1="308.5" y1="228.444" x2="585.5" y2="667.944" gradientUnits="userSpaceOnUse">
<stop stop-color="#72EBFF"/>
<stop offset="1" stop-color="#0884E6"/>
</linearGradient>
<linearGradient id="paint58_linear_208_16" x1="308.5" y1="228.444" x2="585.5" y2="667.944" gradientUnits="userSpaceOnUse">
<stop stop-color="#72EBFF"/>
<stop offset="1" stop-color="#0884E6"/>
</linearGradient>
<linearGradient id="paint59_linear_208_16" x1="308.5" y1="228.444" x2="585.5" y2="667.944" gradientUnits="userSpaceOnUse">
<stop stop-color="#72EBFF"/>
<stop offset="1" stop-color="#0884E6"/>
</linearGradient>
<linearGradient id="paint60_linear_208_16" x1="308.5" y1="228.444" x2="585.5" y2="667.944" gradientUnits="userSpaceOnUse">
<stop stop-color="#72EBFF"/>
<stop offset="1" stop-color="#0884E6"/>
</linearGradient>
<linearGradient id="paint61_linear_208_16" x1="308.5" y1="228.444" x2="585.5" y2="667.944" gradientUnits="userSpaceOnUse">
<stop stop-color="#72EBFF"/>
<stop offset="1" stop-color="#0884E6"/>
</linearGradient>
<linearGradient id="paint62_linear_208_16" x1="308.5" y1="228.444" x2="585.5" y2="667.944" gradientUnits="userSpaceOnUse">
<stop stop-color="#72EBFF"/>
<stop offset="1" stop-color="#0884E6"/>
</linearGradient>
<linearGradient id="paint63_linear_208_16" x1="308.5" y1="228.444" x2="585.5" y2="667.944" gradientUnits="userSpaceOnUse">
<stop stop-color="#72EBFF"/>
<stop offset="1" stop-color="#0884E6"/>
</linearGradient>
<linearGradient id="paint64_linear_208_16" x1="308.5" y1="228.444" x2="585.5" y2="667.944" gradientUnits="userSpaceOnUse">
<stop stop-color="#72EBFF"/>
<stop offset="1" stop-color="#0884E6"/>
</linearGradient>
<linearGradient id="paint65_linear_208_16" x1="308.5" y1="228.444" x2="585.5" y2="667.944" gradientUnits="userSpaceOnUse">
<stop stop-color="#72EBFF"/>
<stop offset="1" stop-color="#0884E6"/>
</linearGradient>
<linearGradient id="paint66_linear_208_16" x1="308.5" y1="228.444" x2="585.5" y2="667.944" gradientUnits="userSpaceOnUse">
<stop stop-color="#72EBFF"/>
<stop offset="1" stop-color="#0884E6"/>
</linearGradient>
<linearGradient id="paint67_linear_208_16" x1="308.5" y1="228.444" x2="585.5" y2="667.944" gradientUnits="userSpaceOnUse">
<stop stop-color="#72EBFF"/>
<stop offset="1" stop-color="#0884E6"/>
</linearGradient>
<linearGradient id="paint68_linear_208_16" x1="308.5" y1="228.444" x2="585.5" y2="667.944" gradientUnits="userSpaceOnUse">
<stop stop-color="#72EBFF"/>
<stop offset="1" stop-color="#0884E6"/>
</linearGradient>
<linearGradient id="paint69_linear_208_16" x1="308.5" y1="228.444" x2="585.5" y2="667.944" gradientUnits="userSpaceOnUse">
<stop stop-color="#72EBFF"/>
<stop offset="1" stop-color="#0884E6"/>
</linearGradient>
<linearGradient id="paint70_linear_208_16" x1="308.5" y1="228.444" x2="585.5" y2="667.944" gradientUnits="userSpaceOnUse">
<stop stop-color="#72EBFF"/>
<stop offset="1" stop-color="#0884E6"/>
</linearGradient>
<linearGradient id="paint71_linear_208_16" x1="308.5" y1="228.444" x2="585.5" y2="667.944" gradientUnits="userSpaceOnUse">
<stop stop-color="#72EBFF"/>
<stop offset="1" stop-color="#0884E6"/>
</linearGradient>
<linearGradient id="paint72_linear_208_16" x1="219" y1="-123.044" x2="496" y2="316.456" gradientUnits="userSpaceOnUse">
<stop stop-color="#72EBFF"/>
<stop offset="1" stop-color="#0884E6"/>
</linearGradient>
<linearGradient id="paint73_linear_208_16" x1="515.543" y1="574.938" x2="650.728" y2="660.942" gradientUnits="userSpaceOnUse">
<stop offset="0.2599" stop-color="#FEFEFE"/>
<stop offset="0.26" stop-color="#CBDFEF"/>
<stop offset="0.55" stop-color="#C5E1F5"/>
<stop offset="0.575" stop-color="#A9C5D9"/>
<stop offset="0.73" stop-color="#A7C3D8"/>
</linearGradient>
<linearGradient id="paint74_linear_208_16" x1="81.0476" y1="128.341" x2="256.558" y2="318.308" gradientUnits="userSpaceOnUse">
<stop offset="0.2599" stop-color="#FEFEFE"/>
<stop offset="0.26" stop-color="#CBDFEF"/>
<stop offset="0.55" stop-color="#C5E1F5"/>
<stop offset="0.575" stop-color="#A9C5D9"/>
<stop offset="0.73" stop-color="#A7C3D8"/>
</linearGradient>
<linearGradient id="paint75_linear_208_16" x1="81.0476" y1="128.341" x2="256.558" y2="318.308" gradientUnits="userSpaceOnUse">
<stop offset="0.2599" stop-color="#FEFEFE"/>
<stop offset="0.26" stop-color="#CBDFEF"/>
<stop offset="0.55" stop-color="#C5E1F5"/>
<stop offset="0.575" stop-color="#A9C5D9"/>
<stop offset="0.73" stop-color="#A7C3D8"/>
</linearGradient>
<linearGradient id="paint76_linear_208_16" x1="81.0476" y1="128.341" x2="256.558" y2="318.308" gradientUnits="userSpaceOnUse">
<stop offset="0.2599" stop-color="#FEFEFE"/>
<stop offset="0.26" stop-color="#CBDFEF"/>
<stop offset="0.55" stop-color="#C5E1F5"/>
<stop offset="0.575" stop-color="#A9C5D9"/>
<stop offset="0.73" stop-color="#A7C3D8"/>
</linearGradient>
<linearGradient id="paint77_linear_208_16" x1="81.0476" y1="128.341" x2="256.558" y2="318.308" gradientUnits="userSpaceOnUse">
<stop offset="0.2599" stop-color="#FEFEFE"/>
<stop offset="0.26" stop-color="#CBDFEF"/>
<stop offset="0.55" stop-color="#C5E1F5"/>
<stop offset="0.575" stop-color="#A9C5D9"/>
<stop offset="0.73" stop-color="#A7C3D8"/>
</linearGradient>
<linearGradient id="paint78_linear_208_16" x1="81.0476" y1="128.341" x2="256.558" y2="318.308" gradientUnits="userSpaceOnUse">
<stop offset="0.2599" stop-color="#FEFEFE"/>
<stop offset="0.26" stop-color="#CBDFEF"/>
<stop offset="0.55" stop-color="#C5E1F5"/>
<stop offset="0.575" stop-color="#A9C5D9"/>
<stop offset="0.73" stop-color="#A7C3D8"/>
</linearGradient>
<linearGradient id="paint79_linear_208_16" x1="81.0476" y1="128.341" x2="256.558" y2="318.308" gradientUnits="userSpaceOnUse">
<stop offset="0.2599" stop-color="#FEFEFE"/>
<stop offset="0.26" stop-color="#CBDFEF"/>
<stop offset="0.55" stop-color="#C5E1F5"/>
<stop offset="0.575" stop-color="#A9C5D9"/>
<stop offset="0.73" stop-color="#A7C3D8"/>
</linearGradient>
<linearGradient id="paint80_linear_208_16" x1="81.0476" y1="128.341" x2="256.558" y2="318.308" gradientUnits="userSpaceOnUse">
<stop offset="0.2599" stop-color="#FEFEFE"/>
<stop offset="0.26" stop-color="#CBDFEF"/>
<stop offset="0.55" stop-color="#C5E1F5"/>
<stop offset="0.575" stop-color="#A9C5D9"/>
<stop offset="0.73" stop-color="#A7C3D8"/>
</linearGradient>
<linearGradient id="paint81_linear_208_16" x1="81.0476" y1="128.341" x2="256.558" y2="318.308" gradientUnits="userSpaceOnUse">
<stop offset="0.2599" stop-color="#FEFEFE"/>
<stop offset="0.26" stop-color="#CBDFEF"/>
<stop offset="0.55" stop-color="#C5E1F5"/>
<stop offset="0.575" stop-color="#A9C5D9"/>
<stop offset="0.73" stop-color="#A7C3D8"/>
</linearGradient>
<linearGradient id="paint82_linear_208_16" x1="458.843" y1="648.992" x2="561.126" y2="756.005" gradientUnits="userSpaceOnUse">
<stop offset="0.2599" stop-color="#FEFEFE"/>
<stop offset="0.26" stop-color="#FF9F98"/>
<stop offset="0.55" stop-color="#FF9F96"/>
<stop offset="0.575" stop-color="#FF7474"/>
<stop offset="0.73" stop-color="#FF6B6F"/>
</linearGradient>
<linearGradient id="paint83_linear_208_16" x1="189.265" y1="638.266" x2="290.057" y2="746.482" gradientUnits="userSpaceOnUse">
<stop offset="0.2599" stop-color="#FEFEFE"/>
<stop offset="0.26" stop-color="#FFCE77"/>
<stop offset="0.55" stop-color="#FFCE77"/>
<stop offset="0.575" stop-color="#F9A003"/>
<stop offset="0.73" stop-color="#F9A003"/>
</linearGradient>
<linearGradient id="paint84_linear_208_16" x1="189.265" y1="638.266" x2="290.057" y2="746.482" gradientUnits="userSpaceOnUse">
<stop offset="0.2599" stop-color="#FEFEFE"/>
<stop offset="0.26" stop-color="#FFCE77"/>
<stop offset="0.55" stop-color="#FFCE77"/>
<stop offset="0.575" stop-color="#F9A003"/>
<stop offset="0.73" stop-color="#F9A003"/>
</linearGradient>
<linearGradient id="paint85_linear_208_16" x1="441.5" y1="93.0004" x2="543.5" y2="200" gradientUnits="userSpaceOnUse">
<stop offset="0.2599" stop-color="#FEFEFE"/>
<stop offset="0.26" stop-color="#FFCE77"/>
<stop offset="0.55" stop-color="#FFCE77"/>
<stop offset="0.575" stop-color="#F9A003"/>
<stop offset="0.73" stop-color="#F9A003"/>
</linearGradient>
<linearGradient id="paint86_linear_208_16" x1="252.088" y1="128.296" x2="345.631" y2="155.265" gradientUnits="userSpaceOnUse">
<stop offset="0.2599" stop-color="#FEFEFE"/>
<stop offset="0.26" stop-color="#FF9F98"/>
<stop offset="0.55" stop-color="#FF9F96"/>
<stop offset="0.575" stop-color="#FF7474"/>
<stop offset="0.73" stop-color="#FF6B6F"/>
</linearGradient>
<linearGradient id="paint87_linear_208_16" x1="252.088" y1="128.296" x2="345.631" y2="155.265" gradientUnits="userSpaceOnUse">
<stop offset="0.2599" stop-color="#FEFEFE"/>
<stop offset="0.26" stop-color="#FF9F98"/>
<stop offset="0.55" stop-color="#FF9F96"/>
<stop offset="0.575" stop-color="#FF7474"/>
<stop offset="0.73" stop-color="#FF6B6F"/>
</linearGradient>
<linearGradient id="paint88_linear_208_16" x1="252.088" y1="128.296" x2="345.631" y2="155.265" gradientUnits="userSpaceOnUse">
<stop offset="0.2599" stop-color="#FEFEFE"/>
<stop offset="0.26" stop-color="#FF9F98"/>
<stop offset="0.55" stop-color="#FF9F96"/>
<stop offset="0.575" stop-color="#FF7474"/>
<stop offset="0.73" stop-color="#FF6B6F"/>
</linearGradient>
<linearGradient id="paint89_linear_208_16" x1="252.088" y1="128.296" x2="345.631" y2="155.265" gradientUnits="userSpaceOnUse">
<stop offset="0.2599" stop-color="#FEFEFE"/>
<stop offset="0.26" stop-color="#FF9F98"/>
<stop offset="0.55" stop-color="#FF9F96"/>
<stop offset="0.575" stop-color="#FF7474"/>
<stop offset="0.73" stop-color="#FF6B6F"/>
</linearGradient>
<linearGradient id="paint90_linear_208_16" x1="252.088" y1="128.296" x2="345.631" y2="155.265" gradientUnits="userSpaceOnUse">
<stop offset="0.2599" stop-color="#FEFEFE"/>
<stop offset="0.26" stop-color="#FF9F98"/>
<stop offset="0.55" stop-color="#FF9F96"/>
<stop offset="0.575" stop-color="#FF7474"/>
<stop offset="0.73" stop-color="#FF6B6F"/>
</linearGradient>
</defs>
</svg>
